<svg width="20" height="20" viewBox="0 0 20 20" fill="none" xmlns="http://www.w3.org/2000/svg">
<g clip-path="url(#clip0_4430_2560)">
<g clip-path="url(#clip1_4430_2560)">
<mask id="mask0_4430_2560" style="mask-type:luminance" maskUnits="userSpaceOnUse" x="-1" y="0" width="27" height="20">
<path d="M-1 0H26V20H-1V0Z" fill="white"/>
</mask>
<g mask="url(#mask0_4430_2560)">
<path d="M-1 0H26V20H-1V0Z" fill="#CC0000"/>
<path d="M-1 0H26V1.42917H-1V0Z" fill="#CC0000"/>
<path d="M-1 1.4292H26V2.85837H-1V1.4292Z" fill="white"/>
<path d="M-1 2.85828H26V4.28744H-1V2.85828Z" fill="#CC0000"/>
<path d="M-1 4.28748H26V5.70831H-1V4.28748Z" fill="white"/>
<path d="M-1 5.71252H26V7.14169H-1V5.71252Z" fill="#CC0000"/>
<path d="M-1 7.14172H26V8.57089H-1V7.14172Z" fill="white"/>
<path d="M-1 8.5708H26V9.99997H-1V8.5708Z" fill="#CC0000"/>
<path d="M-1 10H26V11.4292H-1V10Z" fill="white"/>
<path d="M-1 11.4292H26V12.8584H-1V11.4292Z" fill="#CC0000"/>
<path d="M-1 12.8583H26V14.2874H-1V12.8583Z" fill="white"/>
<path d="M-1 14.2875H26V15.7083H-1V14.2875Z" fill="#CC0000"/>
<path d="M-1 15.7125H26V17.1417H-1V15.7125Z" fill="white"/>
<path d="M-1 17.1417H26V18.5709H-1V17.1417Z" fill="#CC0000"/>
<path d="M-1 18.5708H26V20H-1V18.5708Z" fill="white"/>
<path d="M-1 0.020874H12.5V11.45H-1V0.020874Z" fill="#000066"/>
<path d="M7.75408 3.07504L8.00721 4.77087L8.97752 3.35421L8.4544 4.98754L9.95205 4.12087L8.76658 5.37087L10.4963 5.23754L8.88049 5.8542L10.4963 6.47087L8.76658 6.33754L9.95205 7.58754L8.4544 6.72087L8.9733 8.35837L8.00299 6.93754L7.74986 8.63337L7.50096 6.93754L6.53065 8.3542L7.05377 6.72087L5.55611 7.58754L6.73736 6.33754L5.00768 6.47087L6.62768 5.8542L5.0119 5.23754L6.74158 5.37087L5.55611 4.12087L7.05377 4.98754L6.53065 3.35004L7.50096 4.77087L7.75408 3.07504ZM6.34924 3.14587C5.8925 2.94401 5.39184 2.85838 4.89297 2.89679C4.3941 2.93521 3.91292 3.09644 3.49338 3.36578C3.07384 3.63512 2.7293 4.00397 2.49123 4.43865C2.25315 4.87334 2.12913 5.36 2.13049 5.8542C2.12913 6.34841 2.25315 6.83507 2.49123 7.26976C2.7293 7.70444 3.07384 8.07329 3.49338 8.34263C3.91292 8.61197 4.3941 8.7732 4.89297 8.81162C5.39184 8.85003 5.8925 8.7644 6.34924 8.56254C5.84487 8.92037 5.25032 9.13382 4.63104 9.1794C4.01175 9.22498 3.39173 9.10091 2.83924 8.82087C2.28738 8.54044 1.82449 8.11516 1.50148 7.59177C1.17846 7.06838 1.00781 6.46716 1.0083 5.8542C1.00851 5.2414 1.17975 4.64051 1.50321 4.11757C1.82667 3.59463 2.28983 3.16988 2.84179 2.88998C3.39375 2.61009 4.01315 2.48589 4.63193 2.53103C5.25071 2.57617 5.84491 2.78891 6.34924 3.14587Z" fill="#FFCC00"/>
</g>
</g>
</g>
<defs>
<clipPath id="clip0_4430_2560">
<rect width="20" height="20" fill="white"/>
</clipPath>
<clipPath id="clip1_4430_2560">
<rect width="27" height="20" fill="white" transform="translate(-1)"/>
</clipPath>
</defs>
</svg>
