<svg width="20" height="20" viewBox="0 0 20 20" fill="none" xmlns="http://www.w3.org/2000/svg">
<g clip-path="url(#clip0_4430_2553)">
<g clip-path="url(#clip1_4430_2553)">
<path d="M-3.5 0H23.1667V20H-3.5" fill="#EC1B2E"/>
<path d="M10.9291 4.29588C7.62493 4.08338 6.10827 8.41255 9.23327 10.0125C8.14993 9.07922 8.37493 7.70838 8.81243 6.99588L8.8916 7.04172C8.3166 8.02088 8.42493 9.23755 9.3541 10C8.82493 9.48755 8.95827 8.37505 9.85827 7.96255C10.7583 7.55005 10.8416 6.32505 10.5416 5.91672C10.1333 5.20561 10.2624 4.66533 10.9291 4.29588ZM9.3291 6.83338L9.13327 7.14172L9.05827 6.78338L8.69993 6.68755L9.02493 6.50838L8.99993 6.13755L9.27077 6.39172L9.6166 6.25422L9.46243 6.59172L9.69577 6.87505L9.3291 6.83338Z" fill="white"/>
<path d="M15.5199 9.67754C14.7009 6.46942 10.115 6.36477 9.55895 9.83125C10.1118 8.51253 11.4851 8.3029 12.2979 8.49882L12.2788 8.58827C11.1699 8.34399 10.0462 8.82299 9.60818 9.94231C9.93208 9.28067 11.0313 9.0637 11.7018 9.79218C12.3722 10.5207 13.563 10.2214 13.8586 9.80987C14.4087 9.20178 14.9625 9.15767 15.5199 9.67754ZM12.6121 8.93998L12.2584 8.84901L12.576 8.66695L12.5564 8.29654L12.8272 8.55027L13.1722 8.4119L13.0142 8.74802L13.2518 9.03444L12.8832 8.99211L12.6858 9.30158L12.6121 8.93998Z" fill="white"/>
<path d="M11.8201 15.7064C14.6182 13.9361 13.3005 9.54231 9.83191 10.0847C11.2569 10.203 11.8807 11.4443 11.9455 12.2779L11.8545 12.2873C11.7442 11.1572 10.9414 10.2366 9.7415 10.1658C10.4708 10.2694 11.0169 11.2478 10.5312 12.1106C10.0456 12.9733 10.6982 14.0133 11.1809 14.1673C11.9292 14.5026 12.1423 15.0156 11.8201 15.7064ZM11.623 12.713L11.6002 12.3485L11.8715 12.5943L12.2178 12.4612L12.0601 12.7972L12.2983 13.0825L11.9298 13.0361L11.7309 13.3506L11.6572 12.9869L11.3019 12.8948L11.623 12.713Z" fill="white"/>
<path d="M4.94277 14.0508C7.49099 16.1649 11.2626 13.554 9.6749 10.4227C10.0027 11.8146 9.01495 12.7913 8.24221 13.1106L8.2051 13.027C9.24583 12.5728 9.87332 11.5248 9.5698 10.3618C9.69666 11.0875 8.93488 11.9091 7.9643 11.7138C6.99373 11.5186 6.20627 12.4606 6.20897 12.9673C6.12133 13.7826 5.69927 14.1438 4.94277 14.0508ZM7.7287 12.9384L8.06837 12.8041L7.91842 13.138L8.15199 13.4262L7.78375 13.3801L7.586 13.6948L7.51629 13.33L7.15568 13.238L7.47878 13.0555L7.45655 12.6892L7.7287 12.9384Z" fill="white"/>
<path d="M4.39215 6.99864C3.169 10.0754 6.81761 12.8556 9.30498 10.378C8.08256 11.1199 6.84835 10.4823 6.30591 9.84605L6.37397 9.78492C7.12752 10.6344 8.31812 10.9073 9.33043 10.2592C8.67949 10.6041 7.66264 10.1335 7.54845 9.15012C7.43425 8.1667 6.29496 7.7089 5.81391 7.86804C5.01142 8.03664 4.5375 7.74684 4.39215 6.99864ZM6.31102 9.30446L6.54375 9.58599L6.17978 9.54659L5.97791 9.85777L5.90794 9.49331L5.54753 9.40249L5.87295 9.22345L5.84905 8.85206L6.12239 9.10297L6.46396 8.96861L6.31102 9.30446Z" fill="white"/>
</g>
</g>
<defs>
<clipPath id="clip0_4430_2553">
<rect width="20" height="20" fill="white"/>
</clipPath>
<clipPath id="clip1_4430_2553">
<rect width="26.6667" height="20" fill="white" transform="translate(-3.5)"/>
</clipPath>
</defs>
</svg>
