<svg width="20" height="20" viewBox="0 0 20 20" fill="none" xmlns="http://www.w3.org/2000/svg">
<g clip-path="url(#clip0_4430_2558)">
<rect width="20" height="20" fill="white"/>
<g clip-path="url(#clip1_4430_2558)">
<path fill-rule="evenodd" clip-rule="evenodd" d="M-2.00049 1.00098H22.0042V19.001H-2.00049V1.00098Z" fill="white"/>
<path fill-rule="evenodd" clip-rule="evenodd" d="M0.628906 6.46814L3.12571 2.72435L3.74968 3.14048L1.25287 6.88427L0.628906 6.46814ZM1.56485 7.09234L4.06166 3.34855L4.68562 3.76469L2.18882 7.50848L1.56485 7.09234ZM2.5008 7.71654L4.99761 3.97275L5.62157 4.38889L3.12476 8.13268L2.5008 7.71654Z" fill="#000001"/>
<path fill-rule="evenodd" clip-rule="evenodd" d="M14.3564 15.623L16.8533 11.8793L17.4772 12.2954L14.9804 16.0392L14.3564 15.623ZM15.2924 16.2472L17.7892 12.5035L18.4132 12.9196L15.9164 16.6634L15.2924 16.2472ZM16.2283 16.8715L18.7251 13.1277L19.3491 13.5438L16.8523 17.2876L16.2283 16.8715Z" fill="#000001"/>
<path d="M15.397 13.387L15.189 13.699L18.3088 15.7796L18.5169 15.4677L15.397 13.387Z" fill="white"/>
<path fill-rule="evenodd" clip-rule="evenodd" d="M6.24512 7.50903C6.90731 6.51612 7.93682 5.82693 9.10716 5.59307C10.2775 5.35922 11.4928 5.59986 12.4857 6.26205C13.4786 6.92425 14.1678 7.95375 14.4017 9.12409C14.6355 10.2944 14.3949 11.5097 13.7327 12.5026L6.24512 7.50903Z" fill="#CD2E3A"/>
<path fill-rule="evenodd" clip-rule="evenodd" d="M6.24486 7.50914C5.58266 8.50206 5.34202 9.71736 5.57588 10.8877C5.80973 12.058 6.49892 13.0875 7.49184 13.7497C8.48475 14.4119 9.70005 14.6526 10.8704 14.4187C12.0407 14.1849 13.0702 13.4957 13.7324 12.5028C14.0635 12.0063 14.1839 11.3986 14.0669 10.8135C13.95 10.2283 13.6054 9.71356 13.1089 9.38246C12.6125 9.05136 12.0048 8.93104 11.4197 9.04797C10.8345 9.1649 10.3197 9.50949 9.98864 10.0059L6.24486 7.50914Z" fill="#0047A0"/>
<path d="M9.98877 10.0059C10.6782 8.97208 10.3991 7.57507 9.36528 6.8856C8.33147 6.19612 6.93446 6.47527 6.24499 7.50909C5.55551 8.54291 5.83466 9.93991 6.86848 10.6294C7.90229 11.3189 9.2993 11.0397 9.98877 10.0059Z" fill="#CD2E3A"/>
<path fill-rule="evenodd" clip-rule="evenodd" d="M3.13672 17.2889L0.639913 13.5452L1.26388 13.129L3.76068 16.8728L3.13672 17.2889ZM4.07267 16.6647L1.57586 12.9209L2.19982 12.5048L4.69663 16.2486L4.07267 16.6647ZM5.00861 16.0405L2.51181 12.2967L3.13577 11.8806L5.63258 15.6244L5.00861 16.0405Z" fill="#000001"/>
<path fill-rule="evenodd" clip-rule="evenodd" d="M16.8638 8.13403L14.367 4.39024L14.9909 3.97411L17.4877 7.7179L16.8638 8.13403ZM17.7997 7.50983L15.3029 3.76604L15.9269 3.34991L18.4237 7.0937L17.7997 7.50983ZM18.7357 6.88563L16.2389 3.14184L16.8628 2.7257L19.3596 6.46949L18.7357 6.88563Z" fill="#000001"/>
<path d="M2.56391 14.7409L2.77197 15.0529L3.70792 14.4287L3.49985 14.1167L2.56391 14.7409Z" fill="white"/>
<path d="M15.1992 6.31412L15.4072 6.6261L16.4992 5.89786L16.2911 5.58588L15.1992 6.31412Z" fill="white"/>
<path d="M17.227 4.9617L17.4351 5.27368L18.371 4.64948L18.1629 4.3375L17.227 4.9617Z" fill="white"/>
</g>
</g>
<defs>
<clipPath id="clip0_4430_2558">
<rect width="20" height="20" fill="white"/>
</clipPath>
<clipPath id="clip1_4430_2558">
<rect width="24" height="18" fill="white" transform="translate(-2 1)"/>
</clipPath>
</defs>
</svg>
