<svg width="20" height="20" viewBox="0 0 20 20" fill="none" xmlns="http://www.w3.org/2000/svg">
<g clip-path="url(#clip0_4479_831)">
<mask id="mask0_4479_831" style="mask-type:luminance" maskUnits="userSpaceOnUse" x="0" y="0" width="20" height="20">
<path d="M20 0H0V20H20V0Z" fill="white"/>
</mask>
<g mask="url(#mask0_4479_831)">
<mask id="mask1_4479_831" style="mask-type:luminance" maskUnits="userSpaceOnUse" x="-1" y="0" width="27" height="20">
<path d="M25.6667 0H-1V20H25.6667V0Z" fill="white"/>
</mask>
<g mask="url(#mask1_4479_831)">
<path d="M-1 0H25.6667V20H-1V0Z" fill="#FE0000"/>
<path d="M-1 0H12.3333V10H-1V0Z" fill="#000095"/>
<path fill-rule="evenodd" clip-rule="evenodd" d="M5.6666 1.59998L6.016 3.69598L7.3666 2.05548L6.6212 4.04538L8.6111 3.29998L6.9706 4.65058L9.0666 4.99998L6.9706 5.34938L8.6111 6.69998L6.6212 5.95458L7.3666 7.94448L6.016 6.30398L5.6666 8.39998L5.3172 6.30398L3.9666 7.94448L4.712 5.95458L2.7221 6.69998L4.3626 5.34938L2.2666 4.99998L4.3626 4.65058L2.7221 3.29998L4.712 4.04538L3.9666 2.05548L5.3172 3.69598L5.6666 1.59998Z" fill="white"/>
<path d="M5.6666 6.89998C6.71594 6.89998 7.5666 6.04932 7.5666 4.99998C7.5666 3.95063 6.71594 3.09998 5.6666 3.09998C4.61726 3.09998 3.7666 3.95063 3.7666 4.99998C3.7666 6.04932 4.61726 6.89998 5.6666 6.89998Z" fill="#000095"/>
<path d="M5.6667 6.54995C6.52274 6.54995 7.2167 5.85599 7.2167 4.99995C7.2167 4.14391 6.52274 3.44995 5.6667 3.44995C4.81066 3.44995 4.1167 4.14391 4.1167 4.99995C4.1167 5.85599 4.81066 6.54995 5.6667 6.54995Z" fill="white"/>
</g>
</g>
</g>
<defs>
<clipPath id="clip0_4479_831">
<rect width="20" height="20" fill="white"/>
</clipPath>
</defs>
</svg>
