<svg width="20" height="20" viewBox="0 0 20 20" fill="none" xmlns="http://www.w3.org/2000/svg">
<g clip-path="url(#clip0_4430_2512)">
<g clip-path="url(#clip1_4430_2512)">
<path d="M-3.5 0H23.1667V20H-3.5V0Z" fill="#003399"/>
<path d="M9.83292 3.18225L9.53662 4.16991L10.0304 4.26867L9.83292 3.18225Z" fill="#FFCC00"/>
<path d="M9.8331 3.18225L10.1294 4.16991L9.63557 4.26867L9.8331 3.18225Z" fill="#FFCC00"/>
<path d="M10.7727 3.86467L9.74184 3.8881L9.80052 4.38827L10.7727 3.86467Z" fill="#FFCC00"/>
<path d="M10.7727 3.8647L9.92495 4.45169L9.67841 4.01257L10.7727 3.8647Z" fill="#FFCC00"/>
<path d="M10.4136 4.96896L10.0728 3.99577L9.61522 4.20613L10.4136 4.96896Z" fill="#FFCC00"/>
<path d="M10.4135 4.96891L9.5933 4.34404L9.93476 3.97387L10.4135 4.96891Z" fill="#FFCC00"/>
<path d="M8.89379 3.86467L9.92466 3.8881L9.86598 4.38827L8.89379 3.86467Z" fill="#FFCC00"/>
<path d="M8.89381 3.8647L9.74156 4.45169L9.98809 4.01257L8.89381 3.8647Z" fill="#FFCC00"/>
<path d="M9.25289 4.96896L9.59371 3.99577L10.0513 4.20613L9.25289 4.96896Z" fill="#FFCC00"/>
<path d="M9.25297 4.96891L10.0732 4.34404L9.73174 3.97387L9.25297 4.96891Z" fill="#FFCC00"/>
<path d="M9.83292 15.0341L9.53662 16.0217L10.0304 16.1205L9.83292 15.0341Z" fill="#FFCC00"/>
<path d="M9.8331 15.0341L10.1294 16.0217L9.63557 16.1205L9.8331 15.0341Z" fill="#FFCC00"/>
<path d="M10.7727 15.7165L9.74184 15.7399L9.80052 16.2401L10.7727 15.7165Z" fill="#FFCC00"/>
<path d="M10.7727 15.7165L9.92495 16.3035L9.67841 15.8644L10.7727 15.7165Z" fill="#FFCC00"/>
<path d="M10.4136 16.8208L10.0728 15.8476L9.61522 16.0579L10.4136 16.8208Z" fill="#FFCC00"/>
<path d="M10.4135 16.8207L9.5933 16.1958L9.93476 15.8257L10.4135 16.8207Z" fill="#FFCC00"/>
<path d="M8.89379 15.7165L9.92466 15.7399L9.86598 16.2401L8.89379 15.7165Z" fill="#FFCC00"/>
<path d="M8.89381 15.7165L9.74156 16.3035L9.98809 15.8644L8.89381 15.7165Z" fill="#FFCC00"/>
<path d="M9.25289 16.8208L9.59371 15.8476L10.0513 16.0579L9.25289 16.8208Z" fill="#FFCC00"/>
<path d="M9.25297 16.8207L10.0732 16.1958L9.73174 15.8257L9.25297 16.8207Z" fill="#FFCC00"/>
<path d="M3.90714 9.10815L3.61084 10.0958L4.10467 10.1946L3.90714 9.10815Z" fill="#FFCC00"/>
<path d="M3.90732 9.10815L4.20361 10.0958L3.70979 10.1946L3.90732 9.10815Z" fill="#FFCC00"/>
<path d="M4.84694 9.79058L3.81606 9.814L3.87474 10.3142L4.84694 9.79058Z" fill="#FFCC00"/>
<path d="M4.84691 9.7906L3.99917 10.3776L3.75263 9.93847L4.84691 9.7906Z" fill="#FFCC00"/>
<path d="M4.48783 10.8949L4.14701 9.92167L3.68944 10.132L4.48783 10.8949Z" fill="#FFCC00"/>
<path d="M4.48776 10.8948L3.66752 10.2699L4.00898 9.89977L4.48776 10.8948Z" fill="#FFCC00"/>
<path d="M2.96801 9.79058L3.99888 9.814L3.9402 10.3142L2.96801 9.79058Z" fill="#FFCC00"/>
<path d="M2.96803 9.7906L3.81577 10.3776L4.06231 9.93847L2.96803 9.7906Z" fill="#FFCC00"/>
<path d="M3.32711 10.8949L3.66793 9.92167L4.1255 10.132L3.32711 10.8949Z" fill="#FFCC00"/>
<path d="M3.32719 10.8948L4.14742 10.2699L3.80596 9.89977L3.32719 10.8948Z" fill="#FFCC00"/>
<path d="M6.36234 5.80765L7.18258 5.18278L6.84112 4.81262L6.36234 5.80765Z" fill="#FFCC00"/>
<path d="M6.36227 5.8077L6.70309 4.83452L7.16065 5.04488L6.36227 5.8077Z" fill="#FFCC00"/>
<path d="M6.00367 4.70356L6.85143 5.29055L7.09796 4.85141L6.00367 4.70356Z" fill="#FFCC00"/>
<path d="M6.00366 4.70355L7.03453 4.72695L6.97586 5.22713L6.00366 4.70355Z" fill="#FFCC00"/>
<path d="M6.94278 4.021L6.64649 5.00865L7.14032 5.10741L6.94278 4.021Z" fill="#FFCC00"/>
<path d="M6.94297 4.021L7.23927 5.00865L6.74545 5.10742L6.94297 4.021Z" fill="#FFCC00"/>
<path d="M7.5234 5.80765L6.70316 5.18278L7.04463 4.81261L7.5234 5.80765Z" fill="#FFCC00"/>
<path d="M7.52347 5.8077L7.18266 4.83451L6.72509 5.04487L7.52347 5.8077Z" fill="#FFCC00"/>
<path d="M7.88207 4.70343L7.03431 5.29043L6.78779 4.85128L7.88207 4.70343Z" fill="#FFCC00"/>
<path d="M7.88209 4.70343L6.85121 4.72683L6.90987 5.22701L7.88209 4.70343Z" fill="#FFCC00"/>
<path d="M5.3267 8.0046L4.98588 7.03142L4.52831 7.24178L5.3267 8.0046Z" fill="#FFCC00"/>
<path d="M5.32662 8.00455L4.50638 7.37968L4.84785 7.00951L5.32662 8.00455Z" fill="#FFCC00"/>
<path d="M4.16556 8.00468L4.9858 7.3798L4.64434 7.00964L4.16556 8.00468Z" fill="#FFCC00"/>
<path d="M4.16549 8.00472L4.50631 7.03154L4.96388 7.24189L4.16549 8.00472Z" fill="#FFCC00"/>
<path d="M3.80689 6.90045L4.65465 7.48745L4.90118 7.04831L3.80689 6.90045Z" fill="#FFCC00"/>
<path d="M3.80688 6.90045L4.83776 6.92385L4.77909 7.42403L3.80688 6.90045Z" fill="#FFCC00"/>
<path d="M5.6853 6.90046L4.83754 7.48745L4.59101 7.04831L5.6853 6.90046Z" fill="#FFCC00"/>
<path d="M5.68531 6.90045L4.65443 6.92385L4.7131 7.42403L5.68531 6.90045Z" fill="#FFCC00"/>
<path d="M4.74618 6.21789L5.04248 7.20555L4.54865 7.30431L4.74618 6.21789Z" fill="#FFCC00"/>
<path d="M4.746 6.2179L4.4497 7.20555L4.94352 7.30431L4.746 6.2179Z" fill="#FFCC00"/>
<path d="M5.68629 12.8405L4.65542 12.8639L4.7141 13.3641L5.68629 12.8405Z" fill="#FFCC00"/>
<path d="M5.68627 12.8405L4.83853 13.4275L4.59198 12.9884L5.68627 12.8405Z" fill="#FFCC00"/>
<path d="M5.32768 13.9448L4.98684 12.9716L4.52928 13.182L5.32768 13.9448Z" fill="#FFCC00"/>
<path d="M5.32759 13.9448L4.50735 13.32L4.84879 12.9498L5.32759 13.9448Z" fill="#FFCC00"/>
<path d="M4.16702 13.9449L4.98725 13.32L4.64576 12.9498L4.16702 13.9449Z" fill="#FFCC00"/>
<path d="M4.16697 13.9449L4.50775 12.9717L4.96534 13.182L4.16697 13.9449Z" fill="#FFCC00"/>
<path d="M4.74717 12.1581L5.04347 13.1457L4.54966 13.2445L4.74717 12.1581Z" fill="#FFCC00"/>
<path d="M4.74697 12.1581L4.4507 13.1457L4.94451 13.2445L4.74697 12.1581Z" fill="#FFCC00"/>
<path d="M3.80787 12.8407L4.83876 12.864L4.78013 13.3642L3.80787 12.8407Z" fill="#FFCC00"/>
<path d="M3.80785 12.8406L4.65566 13.4276L4.90216 12.9884L3.80785 12.8406Z" fill="#FFCC00"/>
<path d="M7.82985 14.8284L6.79898 14.8518L6.85766 15.352L7.82985 14.8284Z" fill="#FFCC00"/>
<path d="M7.82982 14.8284L6.98208 15.4154L6.73554 14.9763L7.82982 14.8284Z" fill="#FFCC00"/>
<path d="M7.47124 15.9327L7.13039 14.9595L6.67284 15.1699L7.47124 15.9327Z" fill="#FFCC00"/>
<path d="M7.47114 15.9328L6.6509 15.3079L6.99234 14.9377L7.47114 15.9328Z" fill="#FFCC00"/>
<path d="M6.31057 15.9328L7.1308 15.3079L6.78931 14.9377L6.31057 15.9328Z" fill="#FFCC00"/>
<path d="M6.31052 15.9328L6.65131 14.9596L7.1089 15.17L6.31052 15.9328Z" fill="#FFCC00"/>
<path d="M6.89073 14.1459L7.18703 15.1335L6.69322 15.2323L6.89073 14.1459Z" fill="#FFCC00"/>
<path d="M6.89052 14.1459L6.59425 15.1335L7.08807 15.2323L6.89052 14.1459Z" fill="#FFCC00"/>
<path d="M5.95094 14.8284L6.98183 14.8518L6.9232 15.352L5.95094 14.8284Z" fill="#FFCC00"/>
<path d="M5.9514 14.8284L6.79921 15.4154L7.04571 14.9762L5.9514 14.8284Z" fill="#FFCC00"/>
<path d="M15.7589 9.10815L16.0552 10.0958L15.5613 10.1946L15.7589 9.10815Z" fill="#FFCC00"/>
<path d="M15.7587 9.10815L15.4624 10.0958L15.9562 10.1946L15.7587 9.10815Z" fill="#FFCC00"/>
<path d="M14.8191 9.79058L15.85 9.814L15.7913 10.3142L14.8191 9.79058Z" fill="#FFCC00"/>
<path d="M14.8191 9.7906L15.6668 10.3776L15.9134 9.93847L14.8191 9.7906Z" fill="#FFCC00"/>
<path d="M15.1782 10.8949L15.519 9.92167L15.9766 10.132L15.1782 10.8949Z" fill="#FFCC00"/>
<path d="M15.1783 10.8948L15.9985 10.2699L15.657 9.89977L15.1783 10.8948Z" fill="#FFCC00"/>
<path d="M16.698 9.79058L15.6671 9.814L15.7258 10.3142L16.698 9.79058Z" fill="#FFCC00"/>
<path d="M16.698 9.7906L15.8502 10.3776L15.6037 9.93847L16.698 9.7906Z" fill="#FFCC00"/>
<path d="M16.3389 10.8949L15.9981 9.92167L15.5405 10.132L16.3389 10.8949Z" fill="#FFCC00"/>
<path d="M16.3388 10.8948L15.5186 10.2699L15.8601 9.89977L16.3388 10.8948Z" fill="#FFCC00"/>
<path d="M13.3037 5.80765L12.4834 5.18278L12.8249 4.81262L13.3037 5.80765Z" fill="#FFCC00"/>
<path d="M13.3037 5.8077L12.9629 4.83452L12.5054 5.04488L13.3037 5.8077Z" fill="#FFCC00"/>
<path d="M13.6623 4.70356L12.8146 5.29055L12.5681 4.85141L13.6623 4.70356Z" fill="#FFCC00"/>
<path d="M13.6624 4.70355L12.6315 4.72695L12.6902 5.22713L13.6624 4.70355Z" fill="#FFCC00"/>
<path d="M12.7232 4.021L13.0195 5.00865L12.5257 5.10741L12.7232 4.021Z" fill="#FFCC00"/>
<path d="M12.723 4.021L12.4268 5.00865L12.9206 5.10742L12.723 4.021Z" fill="#FFCC00"/>
<path d="M12.1426 5.80765L12.9629 5.18278L12.6214 4.81261L12.1426 5.80765Z" fill="#FFCC00"/>
<path d="M12.1425 5.8077L12.4834 4.83451L12.9409 5.04487L12.1425 5.8077Z" fill="#FFCC00"/>
<path d="M11.7839 4.70343L12.6317 5.29043L12.8782 4.85128L11.7839 4.70343Z" fill="#FFCC00"/>
<path d="M11.7839 4.70343L12.8148 4.72683L12.7561 5.22701L11.7839 4.70343Z" fill="#FFCC00"/>
<path d="M14.3398 8.00473L14.6806 7.03154L15.1382 7.2419L14.3398 8.00473Z" fill="#FFCC00"/>
<path d="M14.3399 8.00467L15.1601 7.3798L14.8187 7.00964L14.3399 8.00467Z" fill="#FFCC00"/>
<path d="M15.5009 8.00468L14.6807 7.3798L15.0222 7.00964L15.5009 8.00468Z" fill="#FFCC00"/>
<path d="M15.501 8.00472L15.1602 7.03154L14.7026 7.2419L15.501 8.00472Z" fill="#FFCC00"/>
<path d="M15.8596 6.90045L15.0119 7.48745L14.7653 7.04831L15.8596 6.90045Z" fill="#FFCC00"/>
<path d="M15.8596 6.90045L14.8287 6.92385L14.8874 7.42403L15.8596 6.90045Z" fill="#FFCC00"/>
<path d="M13.9812 6.90046L14.829 7.48745L15.0755 7.04831L13.9812 6.90046Z" fill="#FFCC00"/>
<path d="M13.9812 6.90045L15.0121 6.92385L14.9534 7.42403L13.9812 6.90045Z" fill="#FFCC00"/>
<path d="M14.9203 6.21789L14.624 7.20555L15.1179 7.30431L14.9203 6.21789Z" fill="#FFCC00"/>
<path d="M14.9205 6.2179L15.2168 7.20555L14.723 7.30432L14.9205 6.2179Z" fill="#FFCC00"/>
<path d="M13.9797 12.8405L15.0106 12.8639L14.9519 13.3641L13.9797 12.8405Z" fill="#FFCC00"/>
<path d="M13.9798 12.8405L14.8275 13.4275L15.074 12.9884L13.9798 12.8405Z" fill="#FFCC00"/>
<path d="M14.3383 13.9448L14.6792 12.9716L15.1367 13.182L14.3383 13.9448Z" fill="#FFCC00"/>
<path d="M14.3384 13.9448L15.1587 13.32L14.8172 12.9498L14.3384 13.9448Z" fill="#FFCC00"/>
<path d="M15.499 13.9449L14.6788 13.32L15.0203 12.9498L15.499 13.9449Z" fill="#FFCC00"/>
<path d="M15.499 13.9449L15.1583 12.9717L14.7007 13.182L15.499 13.9449Z" fill="#FFCC00"/>
<path d="M14.9188 12.1581L14.6225 13.1457L15.1164 13.2445L14.9188 12.1581Z" fill="#FFCC00"/>
<path d="M14.919 12.1581L15.2153 13.1457L14.7215 13.2445L14.919 12.1581Z" fill="#FFCC00"/>
<path d="M15.8581 12.8407L14.8273 12.864L14.8859 13.3642L15.8581 12.8407Z" fill="#FFCC00"/>
<path d="M15.8582 12.8406L15.0104 13.4276L14.7639 12.9884L15.8582 12.8406Z" fill="#FFCC00"/>
<path d="M11.8362 14.8284L12.867 14.8518L12.8084 15.352L11.8362 14.8284Z" fill="#FFCC00"/>
<path d="M11.8362 14.8284L12.6839 15.4154L12.9305 14.9763L11.8362 14.8284Z" fill="#FFCC00"/>
<path d="M12.1948 15.9327L12.5356 14.9595L12.9932 15.1699L12.1948 15.9327Z" fill="#FFCC00"/>
<path d="M12.1949 15.9328L13.0151 15.3079L12.6737 14.9377L12.1949 15.9328Z" fill="#FFCC00"/>
<path d="M13.3554 15.9328L12.5352 15.3079L12.8767 14.9377L13.3554 15.9328Z" fill="#FFCC00"/>
<path d="M13.3555 15.9328L13.0147 14.9596L12.5571 15.17L13.3555 15.9328Z" fill="#FFCC00"/>
<path d="M12.7753 14.1459L12.479 15.1335L12.9728 15.2323L12.7753 14.1459Z" fill="#FFCC00"/>
<path d="M12.7755 14.1459L13.0718 15.1335L12.578 15.2323L12.7755 14.1459Z" fill="#FFCC00"/>
<path d="M13.7151 14.8284L12.6842 14.8518L12.7428 15.352L13.7151 14.8284Z" fill="#FFCC00"/>
<path d="M13.7146 14.8284L12.8668 15.4154L12.6203 14.9762L13.7146 14.8284Z" fill="#FFCC00"/>
</g>
</g>
<defs>
<clipPath id="clip0_4430_2512">
<rect width="20" height="20" fill="white"/>
</clipPath>
<clipPath id="clip1_4430_2512">
<rect width="26.6667" height="20" fill="white" transform="translate(-3.5)"/>
</clipPath>
</defs>
</svg>
