<svg width="20" height="20" viewBox="0 0 20 20" fill="none" xmlns="http://www.w3.org/2000/svg">
<g clip-path="url(#clip0_4430_2493)">
<g clip-path="url(#clip1_4430_2493)">
<path d="M-3 0H24V20H-3V0Z" fill="#00008B"/>
<path d="M-1.41797 0L3.72891 3.77083L8.85469 0H10.5V1.29167L5.4375 5.02083L10.5 8.72917V10H8.8125L3.75 6.27083L-1.29141 10H-3V8.75L2.04141 5.04167L-3 1.33333V0H-1.41797Z" fill="white"/>
<path d="M5.94375 5.85417L10.5 9.16667V10L4.78359 5.85417H5.94375ZM2.0625 6.27083L2.18906 7L-1.86094 10H-3L2.0625 6.27083ZM10.5 0V0.0625L5.24766 3.97917L5.28984 3.0625L9.44531 0H10.5ZM-3 0L2.04141 3.66667H0.775781L-3 0.875V0Z" fill="#FF0000"/>
<path d="M2.08359 0V10H5.45859V0H2.08359ZM-3 3.33333V6.66667H10.5V3.33333H-3Z" fill="white"/>
<path d="M-3 4.02083V6.02083H10.5V4.02083H-3ZM2.75859 0V10H4.78359V0H2.75859Z" fill="#FF0000"/>
<path d="M19.2328 16.5291L18.3679 16.6375L18.4608 17.4916L17.8364 16.8916L17.2162 17.4958L17.3006 16.6416L16.4358 16.5416L17.1656 16.075L16.7058 15.3458L17.5326 15.6166L17.8237 14.8041L18.1233 15.6125L18.9459 15.3333L18.4945 16.0666L19.2328 16.5291ZM19.0767 11.6458L19.1906 11.1041L18.7772 10.7291L19.334 10.6666L19.5661 10.1625L19.7981 10.6666L20.355 10.7291L19.9415 11.1041L20.0554 11.6458L19.5661 11.3708L19.0767 11.6458ZM14.685 9.14581L13.8286 9.23748L13.9045 10.0833L13.297 9.47914L12.6726 10.0666L12.7739 9.22081L11.9217 9.10831L12.6515 8.65831L12.2086 7.92914L13.0228 8.21248L13.3265 7.41664L13.6092 8.22081L14.4276 7.95831L13.9678 8.67914L14.6892 9.14581H14.685ZM23.2828 7.77914L22.4011 7.89164L22.4981 8.76248L21.8611 8.14998L21.2283 8.76664L21.3169 7.89164L20.4351 7.79164L21.1819 7.31248L20.7136 6.56664L21.5573 6.84581L21.8526 6.02081L22.1564 6.84581L22.9959 6.55831L22.5319 7.30831L23.2828 7.77914ZM19.2286 4.29998L18.3553 4.39581L18.4354 5.26248L17.8153 4.64581L17.1783 5.24581L17.2795 4.38331L16.4062 4.26664L17.153 3.80831L16.7015 3.06248L17.5326 3.34998L17.8406 2.53748L18.1275 3.35831L18.9628 3.08748L18.4945 3.82081L19.2286 4.29998ZM6.87186 16.0708L4.93967 16.2958L5.13373 18.2083L3.74998 16.8583L2.35779 18.2L2.56451 16.2875L0.632324 16.0458L2.27342 15.0125L1.26092 13.3708L3.10029 13.9958L3.76686 12.1875L4.42076 14L6.26436 13.3875L5.2392 15.0208L6.87607 16.0666L6.87186 16.0708Z" fill="white"/>
</g>
</g>
<defs>
<clipPath id="clip0_4430_2493">
<rect width="20" height="20" fill="white"/>
</clipPath>
<clipPath id="clip1_4430_2493">
<rect width="27" height="20" fill="white" transform="translate(-3)"/>
</clipPath>
</defs>
</svg>
