<svg width="20" height="20" viewBox="0 0 20 20" fill="none" xmlns="http://www.w3.org/2000/svg">
<g clip-path="url(#clip0_4430_2557)">
<g clip-path="url(#clip1_4430_2557)">
<path d="M-3.5 0H23.1667V20H-3.5V0Z" fill="white"/>
<path d="M-3.5 0H23.1667V6H-3.5V0Z" fill="#000001"/>
<path d="M-3.5 14H23.1667V20H-3.5V14Z" fill="#006600"/>
<path d="M6.2583 15.9375L6.4833 16.0625L12.3208 5.9375C12.6583 5.8625 12.8458 5.5375 13.0333 5.2125C13.1583 4.9875 13.6583 4.125 13.8708 3C13.2778 3.52699 12.7753 4.14774 12.3833 4.8375C12.1958 5.1625 12.0083 5.4875 12.0958 5.825L6.2583 15.9375Z" fill="black" stroke="black" stroke-width="3"/>
<path d="M6.2583 15.9375L6.4833 16.0625L12.3208 5.9375C12.6583 5.8625 12.8458 5.5375 13.0333 5.2125C13.1583 4.9875 13.6583 4.125 13.8708 3C13.2778 3.52699 12.7753 4.14774 12.3833 4.8375C12.1958 5.1625 12.0083 5.4875 12.0958 5.825L6.2583 15.9375Z" fill="white"/>
<path d="M13.4082 15.9375L13.1832 16.0625L7.3457 5.9375C7.0082 5.8625 6.8207 5.5375 6.6332 5.2125C6.5082 4.9875 6.0082 4.125 5.7957 3C6.38873 3.52699 6.89124 4.14774 7.2832 4.8375C7.4707 5.1625 7.6582 5.4875 7.5707 5.825L13.4082 15.9375Z" fill="black" stroke="black" stroke-width="3"/>
<path d="M13.4082 15.9375L13.1832 16.0625L7.3457 5.9375C7.0082 5.8625 6.8207 5.5375 6.6332 5.2125C6.5082 4.9875 6.0082 4.125 5.7957 3C6.38873 3.52699 6.89124 4.14774 7.2832 4.8375C7.4707 5.1625 7.6582 5.4875 7.5707 5.825L13.4082 15.9375Z" fill="white"/>
<path d="M23.1875 7H12.2084C11.8334 6 10.5834 4 9.83337 4C9.08337 4 7.83337 6 7.45837 7H-3.5083V13H7.45837C7.83337 14 9.08337 16 9.83337 16C10.5834 16 11.8334 14 12.2084 13H23.1875V7Z" fill="#BB0000"/>
<path d="M12.2085 13C12.5835 12 12.8335 11 12.8335 10C12.8335 9 12.5835 8 12.2085 7C11.8335 8 11.5835 9 11.5835 10C11.5835 11 11.8335 12 12.2085 13Z" fill="black"/>
<path d="M7.4585 13C7.0835 12 6.8335 11 6.8335 10C6.8335 9 7.0835 8 7.4585 7C7.8335 8 8.0835 9 8.0835 10C8.0835 11 7.8335 12 7.4585 13Z" fill="black"/>
<path d="M9.8335 10.75C10.1096 10.75 10.3335 10.4142 10.3335 10C10.3335 9.58579 10.1096 9.25 9.8335 9.25C9.55735 9.25 9.3335 9.58579 9.3335 10C9.3335 10.4142 9.55735 10.75 9.8335 10.75Z" fill="white"/>
<path d="M9.9585 10.725C9.9585 10.725 10.4585 11.725 10.4585 13.35C10.4585 14.975 9.9585 15.975 9.9585 15.975V10.725Z" fill="white"/>
<path d="M9.7085 9.27502C9.7085 9.27502 9.2085 8.27502 9.2085 6.65002C9.2085 5.02502 9.7085 4.02502 9.7085 4.02502V9.27502Z" fill="white"/>
<path d="M9.7085 10.725C9.7085 10.725 9.2085 11.725 9.2085 13.35C9.2085 14.975 9.7085 15.975 9.7085 15.975V10.725Z" fill="white"/>
<path d="M9.9585 9.27502C9.9585 9.27502 10.4585 8.27502 10.4585 6.65002C10.4585 5.02502 9.9585 4.02502 9.9585 4.02502V9.27502Z" fill="white"/>
</g>
</g>
<defs>
<clipPath id="clip0_4430_2557">
<rect width="20" height="20" fill="white"/>
</clipPath>
<clipPath id="clip1_4430_2557">
<rect width="26.6667" height="20" fill="white" transform="translate(-3.5)"/>
</clipPath>
</defs>
</svg>
