<svg width="20" height="20" viewBox="0 0 20 20" fill="none" xmlns="http://www.w3.org/2000/svg">
<g clip-path="url(#clip0_4479_512)">
<g clip-path="url(#clip1_4479_512)">
<path d="M0 0H26.6667V20H0V0Z" fill="#DE2910"/>
<path fill-rule="evenodd" clip-rule="evenodd" d="M4.4443 2.33325L5.0431 4.17585L6.9805 4.17595L5.4132 5.31475L6.0118 7.15735L4.4443 6.01865L2.8769 7.15735L3.4755 5.31475L1.9082 4.17595L3.8456 4.17585L4.4443 2.33325Z" fill="#FFDE00"/>
<path fill-rule="evenodd" clip-rule="evenodd" d="M8.15234 2.49725L8.54974 1.98825L8.18854 1.45295L8.79544 1.67355L9.19284 1.16455L9.17054 1.80995L9.77754 2.03065L9.15674 2.20895L9.13444 2.85435L8.77314 2.31905L8.15234 2.49725Z" fill="#FFDE00"/>
<path fill-rule="evenodd" clip-rule="evenodd" d="M9.78906 4.14096L10.3638 3.84646L10.2613 3.20886L10.719 3.66446L11.2938 3.36996L11.0019 3.94606L11.4596 4.40166L10.8215 4.30216L10.5296 4.87826L10.4271 4.24056L9.78906 4.14096Z" fill="#FFDE00"/>
<path fill-rule="evenodd" clip-rule="evenodd" d="M9.82031 6.72798L10.4661 6.72588L10.6638 6.11108L10.8653 6.72468L11.5111 6.72258L10.9898 7.10388L11.1913 7.71748L10.6677 7.33958L10.1464 7.72078L10.344 7.10588L9.82031 6.72798Z" fill="#FFDE00"/>
<path fill-rule="evenodd" clip-rule="evenodd" d="M8.22814 8.40537L8.81814 8.66787L9.25024 8.18787L9.18284 8.83017L9.77284 9.09267L9.14124 9.22717L9.07384 9.86937L8.75084 9.31017L8.11914 9.44457L8.55114 8.96457L8.22814 8.40537Z" fill="#FFDE00"/>
</g>
</g>
<defs>
<clipPath id="clip0_4479_512">
<rect width="20" height="20" fill="white"/>
</clipPath>
<clipPath id="clip1_4479_512">
<rect width="27" height="20" fill="white"/>
</clipPath>
</defs>
</svg>
