<svg width="20" height="20" viewBox="0 0 20 20" fill="none" xmlns="http://www.w3.org/2000/svg">
<g clip-path="url(#clip0_4430_2556)">
<g clip-path="url(#clip1_4430_2556)">
<path d="M-3.5 0H23.1667V6.66667H-3.5V0Z" fill="#FF9933"/>
<path d="M-3.5 6.66663H23.1667V13.3333H-3.5V6.66663Z" fill="white"/>
<path d="M-3.5 13.3334H23.1667V20H-3.5V13.3334Z" fill="#128807"/>
<path d="M9.83317 12.6667C11.3059 12.6667 12.4998 11.4728 12.4998 10C12.4998 8.52728 11.3059 7.33337 9.83317 7.33337C8.36041 7.33337 7.1665 8.52728 7.1665 10C7.1665 11.4728 8.36041 12.6667 9.83317 12.6667Z" fill="#000088"/>
<path d="M9.83333 12.3334C11.122 12.3334 12.1667 11.2887 12.1667 10.0001C12.1667 8.71142 11.122 7.66675 9.83333 7.66675C8.54467 7.66675 7.5 8.71142 7.5 10.0001C7.5 11.2887 8.54467 12.3334 9.83333 12.3334Z" fill="white"/>
<path d="M9.83337 10.4667C10.0911 10.4667 10.3 10.2577 10.3 9.99999C10.3 9.74226 10.0911 9.53333 9.83337 9.53333C9.57563 9.53333 9.3667 9.74226 9.3667 9.99999C9.3667 10.2577 9.57563 10.4667 9.83337 10.4667Z" fill="#000088"/>
<path d="M12.1306 10.4244C12.1963 10.433 12.2566 10.3868 12.2653 10.3211C12.2739 10.2554 12.2276 10.1951 12.1619 10.1864C12.0962 10.1778 12.036 10.224 12.0273 10.2897C12.0187 10.3555 12.0649 10.4157 12.1306 10.4244Z" fill="#000088"/>
<path d="M9.83293 12.3333L9.91293 10.9333L9.83293 10.2666L9.75293 10.9333L9.83293 12.3333Z" fill="#000088"/>
<path d="M11.9424 11.0046C12.0036 11.03 12.0738 11.0009 12.0991 10.9396C12.1245 10.8784 12.0954 10.8082 12.0342 10.7829C11.973 10.7575 11.9028 10.7866 11.8774 10.8478C11.8521 10.909 11.8811 10.9792 11.9424 11.0046Z" fill="#000088"/>
<path d="M9.2289 12.2538L9.66852 10.9222L9.7638 10.2575L9.51398 10.8808L9.2289 12.2538Z" fill="#000088"/>
<path d="M11.6112 11.5164C11.6638 11.5567 11.7391 11.5468 11.7795 11.4942C11.8198 11.4417 11.8099 11.3663 11.7573 11.326C11.7047 11.2856 11.6294 11.2956 11.5891 11.3481C11.5487 11.4007 11.5586 11.476 11.6112 11.5164Z" fill="#000088"/>
<path d="M8.66681 12.0207L9.43609 10.8483L9.70014 10.2309L9.29753 10.7683L8.66681 12.0207Z" fill="#000088"/>
<path d="M11.158 11.9248C11.1984 11.9774 11.2737 11.9873 11.3263 11.9469C11.3789 11.9066 11.3888 11.8313 11.3484 11.7787C11.3081 11.7261 11.2328 11.7162 11.1802 11.7565C11.1276 11.7969 11.1177 11.8722 11.158 11.9248Z" fill="#000088"/>
<path d="M8.18359 11.6499L9.23011 10.7165L9.64495 10.1885L9.11697 10.6034L8.18359 11.6499Z" fill="#000088"/>
<path d="M10.6142 12.202C10.6396 12.2632 10.7098 12.2923 10.771 12.2669C10.8322 12.2416 10.8613 12.1714 10.836 12.1101C10.8106 12.0489 10.7404 12.0198 10.6792 12.0452C10.6179 12.0706 10.5889 12.1407 10.6142 12.202Z" fill="#000088"/>
<path d="M7.81223 11.1666L9.06466 10.5359L9.60201 10.1332L8.98466 10.3973L7.81223 11.1666Z" fill="#000088"/>
<path d="M10.0179 12.3291C10.0266 12.3948 10.0869 12.4411 10.1526 12.4324C10.2183 12.4238 10.2645 12.3635 10.2559 12.2978C10.2472 12.2321 10.187 12.1858 10.1213 12.1945C10.0556 12.2031 10.0093 12.2634 10.0179 12.3291Z" fill="#000088"/>
<path d="M7.57914 10.6039L8.95214 10.3188L9.57539 10.069L8.91074 10.1642L7.57914 10.6039Z" fill="#000088"/>
<path d="M9.40898 12.2977C9.40034 12.3634 9.44659 12.4237 9.5123 12.4324C9.57801 12.441 9.63829 12.3948 9.64694 12.3291C9.65559 12.2634 9.60933 12.2031 9.54362 12.1944C9.47791 12.1858 9.41763 12.232 9.40898 12.2977Z" fill="#000088"/>
<path d="M7.50025 10.0002L8.90025 10.0799L9.5669 9.99993L8.90023 9.92012L7.50025 10.0002Z" fill="#000088"/>
<path d="M8.82902 12.1095C8.80366 12.1707 8.83274 12.2409 8.89397 12.2663C8.9552 12.2916 9.0254 12.2626 9.05076 12.2013C9.07612 12.1401 9.04704 12.0699 8.98581 12.0445C8.92458 12.0192 8.85438 12.0483 8.82902 12.1095Z" fill="#000088"/>
<path d="M7.57973 9.39604L8.91132 9.83566L9.57598 9.93092L8.95273 9.6811L7.57973 9.39604Z" fill="#000088"/>
<path d="M8.31662 11.7777C8.27628 11.8303 8.28619 11.9056 8.33877 11.946C8.39135 11.9863 8.46668 11.9764 8.50703 11.9238C8.54737 11.8712 8.53745 11.7959 8.48488 11.7556C8.4323 11.7152 8.35697 11.7251 8.31662 11.7777Z" fill="#000088"/>
<path d="M7.8123 8.83331L8.98474 9.60259L9.60209 9.86665L9.06474 9.46403L7.8123 8.83331Z" fill="#000088"/>
<path d="M7.9086 11.3245C7.85602 11.3649 7.8461 11.4402 7.88645 11.4928C7.92679 11.5454 8.00212 11.5553 8.0547 11.5149C8.10728 11.4746 8.1172 11.3993 8.07685 11.3467C8.03651 11.2941 7.96118 11.2842 7.9086 11.3245Z" fill="#000088"/>
<path d="M8.18325 8.35009L9.11663 9.39661L9.6446 9.81145L9.22977 9.28348L8.18325 8.35009Z" fill="#000088"/>
<path d="M7.63176 10.7815C7.57053 10.8068 7.54146 10.877 7.56682 10.9382C7.59218 10.9995 7.66238 11.0286 7.72361 11.0032C7.78484 10.9778 7.81391 10.9076 7.78855 10.8464C7.76319 10.7852 7.69299 10.7561 7.63176 10.7815Z" fill="#000088"/>
<path d="M8.66741 7.97946L9.29812 9.23189L9.70073 9.76925L9.43669 9.1519L8.66741 7.97946Z" fill="#000088"/>
<path d="M7.50449 10.1849C7.43878 10.1936 7.39252 10.2539 7.40117 10.3196C7.40982 10.3853 7.4701 10.4315 7.53581 10.4229C7.60152 10.4142 7.64777 10.354 7.63912 10.2883C7.63048 10.2225 7.5702 10.1763 7.50449 10.1849Z" fill="#000088"/>
<path d="M9.23012 7.74638L9.51518 9.11938L9.765 9.74263L9.66974 9.07797L9.23012 7.74638Z" fill="#000088"/>
<path d="M7.5359 9.57562C7.47019 9.56696 7.40991 9.61322 7.40126 9.67892C7.39261 9.74463 7.43886 9.80491 7.50456 9.81356C7.57027 9.82221 7.63055 9.77596 7.6392 9.71025C7.64785 9.64455 7.6016 9.58427 7.5359 9.57562Z" fill="#000088"/>
<path d="M9.83352 7.66674L9.75365 9.06674L9.83363 9.7334L9.91354 9.06673L9.83352 7.66674Z" fill="#000088"/>
<path d="M7.72366 8.99541C7.66243 8.97005 7.59224 8.99912 7.56687 9.06035C7.54151 9.12158 7.57058 9.19177 7.63181 9.21714C7.69304 9.2425 7.76324 9.21343 7.7886 9.1522C7.81396 9.09097 7.78489 9.02077 7.72366 8.99541Z" fill="#000088"/>
<path d="M10.4371 7.74623L9.9975 9.07782L9.90222 9.74248L10.152 9.11923L10.4371 7.74623Z" fill="#000088"/>
<path d="M8.0553 8.48362C8.00272 8.44327 7.92739 8.45319 7.88705 8.50576C7.8467 8.55834 7.85662 8.63367 7.90919 8.67402C7.96177 8.71436 8.0371 8.70445 8.07745 8.65187C8.11779 8.59929 8.10788 8.52396 8.0553 8.48362Z" fill="#000088"/>
<path d="M10.9997 7.9793L10.2304 9.15173L9.96636 9.76908L10.369 9.23173L10.9997 7.9793Z" fill="#000088"/>
<path d="M8.50847 8.07535C8.46813 8.02277 8.3928 8.01285 8.34022 8.05319C8.28764 8.09354 8.27772 8.16887 8.31806 8.22145C8.35841 8.27403 8.43374 8.28395 8.48632 8.2436C8.5389 8.20326 8.54882 8.12793 8.50847 8.07535Z" fill="#000088"/>
<path d="M11.4834 8.35024L10.4369 9.28362L10.022 9.81159L10.55 9.39676L11.4834 8.35024Z" fill="#000088"/>
<path d="M9.05227 7.7979C9.02691 7.73667 8.95672 7.7076 8.89549 7.73296C8.83426 7.75832 8.80518 7.82852 8.83054 7.88975C8.8559 7.95097 8.9261 7.98005 8.98733 7.95469C9.04856 7.92933 9.07764 7.85913 9.05227 7.7979Z" fill="#000088"/>
<path d="M11.8543 8.8333L10.6018 9.46402L10.0645 9.86663L10.6818 9.60258L11.8543 8.8333Z" fill="#000088"/>
<path d="M9.64856 7.67075C9.63991 7.60504 9.57963 7.55878 9.51392 7.56743C9.44821 7.57608 9.40196 7.63636 9.41061 7.70207C9.41926 7.76778 9.47954 7.81403 9.54524 7.80538C9.61095 7.79673 9.65721 7.73645 9.64856 7.67075Z" fill="#000088"/>
<path d="M12.0874 9.39614L10.7144 9.6812L10.0911 9.93102L10.7558 9.83576L12.0874 9.39614Z" fill="#000088"/>
<path d="M10.2575 7.70226C10.2662 7.63655 10.2199 7.57627 10.1542 7.56762C10.0885 7.55897 10.0282 7.60523 10.0196 7.67094C10.0109 7.73665 10.0572 7.79693 10.1229 7.80558C10.1886 7.81423 10.2489 7.76797 10.2575 7.70226Z" fill="#000088"/>
<path d="M12.1667 9.99982L10.7667 9.92015L10.1001 10.0001L10.7668 10.0799L12.1667 9.99982Z" fill="#000088"/>
<path d="M10.838 7.89052C10.8633 7.82929 10.8343 7.75909 10.773 7.73373C10.7118 7.70837 10.6416 7.73745 10.6162 7.79868C10.5909 7.85991 10.6199 7.9301 10.6812 7.95547C10.7424 7.98083 10.8126 7.95175 10.838 7.89052Z" fill="#000088"/>
<path d="M12.0873 10.604L10.7557 10.1643L10.091 10.0691L10.7143 10.3189L12.0873 10.604Z" fill="#000088"/>
<path d="M11.3504 8.22228C11.3907 8.1697 11.3808 8.09437 11.3282 8.05403C11.2756 8.01369 11.2003 8.0236 11.16 8.07618C11.1196 8.12876 11.1295 8.20409 11.1821 8.24444C11.2347 8.28478 11.31 8.27486 11.3504 8.22228Z" fill="#000088"/>
<path d="M11.8547 11.1667L10.6823 10.3974L10.0649 10.1334L10.6023 10.536L11.8547 11.1667Z" fill="#000088"/>
<path d="M11.7589 8.67533C11.8115 8.63499 11.8214 8.55966 11.781 8.50708C11.7407 8.4545 11.6654 8.44459 11.6128 8.48493C11.5602 8.52528 11.5503 8.60061 11.5906 8.65318C11.631 8.70576 11.7063 8.71568 11.7589 8.67533Z" fill="#000088"/>
<path d="M11.4837 11.6499L10.5504 10.6034L10.0224 10.1885L10.4372 10.7165L11.4837 11.6499Z" fill="#000088"/>
<path d="M12.0352 9.21865C12.0965 9.19329 12.1255 9.12309 12.1002 9.06187C12.0748 9.00064 12.0046 8.97156 11.9434 8.99692C11.8822 9.02229 11.8531 9.09248 11.8784 9.15371C11.9038 9.21494 11.974 9.24402 12.0352 9.21865Z" fill="#000088"/>
<path d="M11.0001 12.0207L10.3694 10.7682L9.96674 10.2309L10.2308 10.8482L11.0001 12.0207Z" fill="#000088"/>
<path d="M12.1625 9.81518C12.2282 9.80653 12.2745 9.74625 12.2658 9.68054C12.2572 9.61483 12.1969 9.56858 12.1312 9.57723C12.0655 9.58588 12.0192 9.64616 12.0279 9.71187C12.0365 9.77757 12.0968 9.82383 12.1625 9.81518Z" fill="#000088"/>
<path d="M10.4374 12.2537L10.1523 10.8807L9.90247 10.2575L9.99774 10.9221L10.4374 12.2537Z" fill="#000088"/>
</g>
</g>
<defs>
<clipPath id="clip0_4430_2556">
<rect width="20" height="20" fill="white"/>
</clipPath>
<clipPath id="clip1_4430_2556">
<rect width="26.6667" height="20" fill="white" transform="translate(-3.5)"/>
</clipPath>
</defs>
</svg>
