<svg width="20" height="20" viewBox="0 0 20 20" fill="none" xmlns="http://www.w3.org/2000/svg">
<g clip-path="url(#clip0_4430_2552)">
<g clip-path="url(#clip1_4430_2552)">
<path d="M-3.5 0H23.1667V20H-3.5V0Z" fill="#4997D0"/>
<path d="M5.3877 0H14.2794V20H5.3877V0Z" fill="white"/>
<path d="M8.89191 12.6652C8.98318 12.6515 9.03389 12.6239 9.09474 12.6033M9.17249 12.4621C9.21739 12.5079 9.25199 12.5631 9.27391 12.6239M9.00008 12.4483C9.04304 12.4891 9.07752 12.5383 9.1015 12.5929M7.42813 7.88934C7.39433 7.94444 7.32672 7.98231 7.26587 8.00642M7.25573 7.99953C7.25122 7.94903 7.25122 7.89852 7.25573 7.84802M7.19149 8.02019C7.19149 8.03396 7.20502 8.0684 7.21178 8.08906M7.28277 8.12349L7.21516 8.13382M7.07994 8.10283C7.07994 8.19236 7.09008 8.29566 7.09684 8.37485M7.03599 8.34042C7.05177 8.37026 7.06979 8.39207 7.09008 8.40584M6.93457 8.62966C6.9526 8.65721 6.96725 8.70312 6.97852 8.76739M7.1036 8.60556L7.03599 8.65721M7.09346 8.80871C7.05965 8.83855 7.02021 8.86266 6.97514 8.88102M6.84668 10.2721C6.88102 10.3345 6.92694 10.3895 6.9819 10.434M7.00218 10.4925C6.96647 10.488 6.93199 10.4763 6.90077 10.4581M7.04951 10.7508L7.10698 10.7852M7.09346 10.9023C7.13403 10.9344 7.17572 10.9792 7.21854 11.0365M7.17121 11.133C7.21854 11.1444 7.2546 11.1559 7.27939 11.1674M7.24558 11.2535H7.31319M7.35714 11.071L7.34024 11.2156M7.37404 11.2707L7.38757 11.2156M7.54645 11.4222L7.54307 11.5324M8.86824 12.4931L8.82768 12.5482M8.74654 12.4139L8.72288 12.3519" stroke="#24420E" stroke-width="0.327532"/>
<path d="M10.0412 12.9236C10.0129 12.8829 9.97436 12.8508 9.9296 12.8306C9.6693 12.6929 9.409 12.6275 9.11827 12.5793C9.04728 12.5689 8.97967 12.5035 8.90868 12.4691C8.73965 12.3899 8.55372 12.3589 8.39146 12.2728C8.38132 12.2694 8.34075 12.2453 8.32385 12.2211C8.25624 12.1454 8.13792 12.1213 8.06693 12.049C7.78296 11.7804 7.48547 11.5325 7.32997 11.1709C7.14066 10.7336 6.9074 10.2826 6.93782 9.78671C6.95811 9.46992 6.91416 9.15314 6.98853 8.85701C7.10347 8.40938 7.24545 7.97207 7.50914 7.60364L7.46519 7.63118C7.21499 8.0102 7.03828 8.43447 6.94459 8.88111C6.86683 9.18068 6.91078 9.50091 6.89388 9.81081C6.86007 10.3101 7.09671 10.7612 7.28264 11.1985C7.43814 11.5566 7.73901 11.8079 8.0196 12.08C8.09397 12.1488 8.20891 12.1729 8.27652 12.2521L8.34413 12.3038C8.50978 12.3864 8.69571 12.4174 8.86473 12.5001C8.93234 12.5345 8.99995 12.5965 9.06757 12.6102C9.3518 12.6465 9.62821 12.7302 9.88566 12.8582C9.93042 12.8783 9.96897 12.9104 9.99721 12.9511L10.0412 12.9201" fill="#406325"/>
<path d="M10.0412 12.9236C10.0129 12.8829 9.97436 12.8508 9.9296 12.8306C9.6693 12.6929 9.409 12.6275 9.11827 12.5793C9.04728 12.5689 8.97967 12.5035 8.90868 12.4691C8.73965 12.3899 8.55372 12.3589 8.39146 12.2728C8.38132 12.2694 8.34075 12.2453 8.32385 12.2211C8.25624 12.1454 8.13792 12.1213 8.06693 12.049C7.78296 11.7804 7.48547 11.5325 7.32997 11.1709C7.14066 10.7336 6.9074 10.2826 6.93782 9.78671C6.95811 9.46992 6.91416 9.15314 6.98853 8.85701C7.10347 8.40938 7.24545 7.97207 7.50914 7.60364L7.46519 7.63118C7.21499 8.0102 7.03828 8.43447 6.94459 8.88111C6.86683 9.18068 6.91078 9.50091 6.89388 9.81081C6.86007 10.3101 7.09671 10.7612 7.28264 11.1985C7.43814 11.5566 7.73901 11.8079 8.0196 12.08C8.09397 12.1488 8.20891 12.1729 8.27652 12.2521L8.34413 12.3038C8.50978 12.3864 8.69571 12.4174 8.86473 12.5001C8.93234 12.5345 8.99995 12.5965 9.06757 12.6102C9.3518 12.6465 9.62821 12.7302 9.88566 12.8582C9.93042 12.8783 9.96897 12.9104 9.99721 12.9511L10.0412 12.9201" stroke="#24420E" stroke-width="0.163766"/>
<path d="M7.34393 11.0848C7.27444 10.82 7.27212 10.5416 7.33717 10.2756C7.56367 10.7233 7.48929 11.0917 7.34393 11.0848ZM8.8956 12.6481C8.61997 12.7124 8.3651 12.8476 8.15526 13.0406C8.66572 13.0441 8.96659 12.7893 8.8956 12.6481ZM9.14914 12.5C8.91814 12.2415 8.7553 11.9276 8.67587 11.5875C9.18295 11.9629 9.31479 12.4243 9.14914 12.5Z" fill="#67923D" stroke="#24420E" stroke-width="0.163766"/>
<path d="M8.97637 12.5035C8.73293 12.2934 8.54666 12.023 8.43549 11.7184C8.95271 12.0007 9.12174 12.4139 8.97637 12.5035ZM8.44901 12.2693C8.48282 12.0007 8.2597 11.436 8.19547 11.3741C8.09405 11.9422 8.29689 12.3244 8.44901 12.2693ZM7.52612 11.4326C7.47153 11.194 7.47735 10.9452 7.54303 10.7095C7.72896 11.1124 7.65458 11.4395 7.52612 11.4326ZM7.06299 8.78812C7.24805 8.54419 7.49289 8.35418 7.7729 8.23718C7.54303 8.73991 7.1644 8.92241 7.06299 8.78812Z" fill="#67923D" stroke="#24420E" stroke-width="0.163766"/>
<path d="M7.0868 8.59528C7.22116 8.31782 7.42382 8.08055 7.67501 7.90662C7.54993 8.44722 7.21188 8.70547 7.0868 8.59528ZM8.02997 12.0111C7.87376 11.7341 7.78887 11.4214 7.78319 11.102C8.16181 11.5324 8.18885 11.9732 8.02659 12.0111H8.02997ZM7.05975 10.7543C6.82311 10.7921 6.33632 10.5959 6.28223 10.5373C6.77579 10.4271 7.10708 10.6062 7.05975 10.7543ZM6.98538 10.4202C7.01242 10.2309 7.27611 9.8762 7.33358 9.84866C7.29977 10.2619 7.08342 10.4891 6.98538 10.4202ZM8.7196 12.438C8.39032 12.5128 8.08607 12.6743 7.83728 12.9063C8.44577 12.9098 8.80749 12.6068 8.7196 12.438Z" fill="#67923D" stroke="#24420E" stroke-width="0.163766"/>
<path d="M7.34725 11.0813C7.48923 11.0882 7.5636 10.7232 7.33711 10.2756C7.37974 10.5422 7.38316 10.8137 7.34725 11.0813ZM7.72587 11.77C7.51721 11.5805 7.26485 11.4478 6.99229 11.3844C7.29316 11.801 7.66502 11.9043 7.72587 11.77ZM6.90102 9.94505C6.80482 9.63125 6.63278 9.34709 6.4007 9.11865C6.4514 9.7109 6.75903 10.038 6.90102 9.94505ZM7.18498 11.1261C7.01595 10.9987 6.54268 10.9402 6.47507 10.9608C6.81988 11.2501 7.15794 11.2535 7.18498 11.1261ZM6.86721 10.2722C6.7212 10.0653 6.52411 9.90135 6.2959 9.79698C6.48183 10.224 6.78946 10.3824 6.86721 10.2687V10.2722ZM6.96187 8.63314C6.98891 8.37144 6.77256 7.8274 6.71171 7.76542C6.61367 8.31635 6.80974 8.68479 6.95848 8.63314H6.96187ZM7.11061 8.12008C7.20188 7.89626 7.13765 7.34877 7.09371 7.27991C6.87735 7.74476 6.96525 8.12697 7.11061 8.12008Z" fill="#406325" stroke="#24420E" stroke-width="0.163766"/>
<path d="M7.27959 7.85496C7.37312 7.64583 7.4138 7.41619 7.39791 7.18695C7.15451 7.52096 7.16127 7.83774 7.27959 7.85496ZM7.48242 7.64492C7.63223 7.47482 7.73695 7.2686 7.78667 7.04578C7.45876 7.28681 7.37424 7.58982 7.48242 7.64492ZM6.93815 9.13244C6.94153 9.16343 6.90435 8.85008 6.6001 8.50231C6.61362 9.01192 6.80969 9.20475 6.93815 9.13244ZM8.04021 12.0868C7.77134 11.9439 7.47124 11.8728 7.16803 11.8802C7.59398 12.2383 8.00978 12.2452 8.04021 12.0868ZM8.44925 12.2693C8.29375 12.321 8.0943 11.9422 8.19233 11.374C8.23622 11.6829 8.32153 11.9841 8.44587 12.2693H8.44925ZM8.89887 12.6481C8.96648 12.7893 8.66899 13.0441 8.16191 13.0406C8.56757 12.8685 8.87858 12.6997 8.89887 12.6515V12.6481ZM9.14565 12.4966C9.31129 12.4174 9.18283 11.9629 8.67237 11.5875C8.9631 12.0421 9.16255 12.4346 9.14565 12.4966Z" fill="#406325" stroke="#24420E" stroke-width="0.163766"/>
<path d="M8.97638 12.5C9.11836 12.407 8.95271 12.0007 8.43549 11.7184C8.75664 12.104 8.98314 12.4415 8.97638 12.5ZM7.5295 11.4326C7.65458 11.4395 7.73234 11.1123 7.54641 10.7095C7.57007 11.0882 7.55993 11.3981 7.5295 11.4326ZM7.06299 8.79153C7.1644 8.92238 7.53626 8.74333 7.76952 8.2406C7.56147 8.45815 7.32347 8.64374 7.06299 8.79153Z" fill="#406325" stroke="#24420E" stroke-width="0.163766"/>
<path d="M7.09356 8.59528C7.21526 8.70547 7.54993 8.44722 7.67501 7.90662C7.40457 8.29571 7.14765 8.5884 7.09356 8.59528ZM8.02997 12.0076C8.18885 11.9697 8.16519 11.5324 7.78319 11.102C7.95221 11.5669 8.05363 11.956 8.02997 12.0076ZM7.05299 10.7543C7.10032 10.6062 6.77241 10.4306 6.28223 10.5373C6.69803 10.6131 7.02595 10.7095 7.05299 10.7543ZM6.98876 10.4237C7.0868 10.4857 7.29639 10.2619 7.33696 9.84866C7.24838 10.0563 7.13112 10.2499 6.98876 10.4237ZM8.7196 12.4415C8.80411 12.6137 8.44915 12.9132 7.84066 12.9098C8.32069 12.7066 8.69593 12.5035 8.7196 12.4415Z" fill="#406325" stroke="#24420E" stroke-width="0.163766"/>
<path d="M7.11034 10.9023C6.96877 10.6729 6.77062 10.4853 6.53564 10.3583C6.70467 10.8266 7.01568 11.016 7.11034 10.9023Z" fill="#406325" stroke="#24420E" stroke-width="0.163766"/>
<path d="M6.87397 9.10142C7.00919 8.93958 7.46557 8.78463 7.53656 8.79152C7.26611 9.15307 6.92806 9.22538 6.87397 9.10142ZM7.72249 11.77C7.66164 11.9077 7.29316 11.8044 6.98891 11.3878C7.21389 11.5508 7.46102 11.6796 7.72249 11.77ZM6.89764 9.94504C6.75565 10.038 6.45478 9.71089 6.4007 9.11864C6.62381 9.5766 6.84017 9.92782 6.89764 9.94504ZM7.1816 11.1261C7.15794 11.2535 6.81988 11.2501 6.47845 10.9643C6.70393 11.0525 6.94077 11.107 7.1816 11.1261ZM6.86045 10.2687C6.7827 10.3789 6.48183 10.2239 6.2959 9.79697C6.5731 10.0724 6.81988 10.2687 6.86383 10.2687H6.86045ZM6.9551 8.62968C6.80636 8.68478 6.61367 8.31978 6.70832 7.76885C6.7996 8.2337 6.91116 8.60214 6.9551 8.62968ZM7.10723 8.11663C6.96187 8.12696 6.87397 7.74475 7.09033 7.2799C7.06328 7.72064 7.07342 8.08219 7.10723 8.11663ZM7.27626 7.85493C7.16132 7.83427 7.15118 7.52093 7.39796 7.18693C7.32476 7.40213 7.28373 7.62731 7.27626 7.85493ZM7.47909 7.64489C7.37429 7.58635 7.45542 7.28678 7.78334 7.04919C7.65352 7.23132 7.55099 7.43208 7.47909 7.64489Z" fill="#67923D" stroke="#24420E" stroke-width="0.163766"/>
<path d="M6.93789 9.13245C6.80605 9.20476 6.61336 9.01193 6.59984 8.50232C6.77337 8.90634 6.88606 9.11638 6.93789 9.13245ZM8.03657 12.0868C8.00614 12.2452 7.59372 12.2383 7.16777 11.8837C7.614 12.0317 7.98924 12.1144 8.03657 12.0868ZM7.75936 11.7597C7.63175 11.5619 7.55503 11.3345 7.53625 11.0986C7.8405 11.3982 7.88106 11.7218 7.76612 11.7597H7.75936ZM7.19143 10.8989C7.06973 10.6992 7.05621 10.1792 7.09002 10.1069C7.3706 10.5167 7.3368 10.8885 7.19143 10.8989ZM7.10016 10.9023C7.00888 11.016 6.69787 10.83 6.53223 10.3583C6.69365 10.5676 6.88511 10.751 7.10016 10.9023Z" fill="#67923D" stroke="#24420E" stroke-width="0.163766"/>
<path d="M6.87354 9.1015C6.92762 9.22546 7.25892 9.15315 7.53274 8.79504C7.12708 9.02919 6.96819 9.13249 6.87354 9.1015ZM7.18793 10.892C7.33329 10.8817 7.36709 10.5133 7.08651 10.107C7.16118 10.3626 7.19541 10.6288 7.18793 10.8955V10.892ZM7.76262 11.7598C7.87756 11.7253 7.83699 11.3982 7.53612 11.0986C7.68487 11.4326 7.77952 11.7184 7.76262 11.7598Z" fill="#406325" stroke="#24420E" stroke-width="0.163766"/>
<path d="M6.93447 9.71438C7.00208 9.42514 6.877 8.93619 6.7891 8.83289C6.63022 9.36316 6.78234 9.74881 6.93447 9.71438Z" fill="#406325" stroke="#24420E" stroke-width="0.163766"/>
<path d="M6.92793 9.78324C6.7251 9.828 6.63382 9.37004 6.78933 8.8501C6.82313 9.31495 6.88398 9.74881 6.92455 9.7798L6.92793 9.78324Z" fill="#67923D" stroke="#24420E" stroke-width="0.163766"/>
<path d="M6.88379 9.77983C6.91347 9.4748 7.01811 9.1823 7.18804 8.92932C7.25565 9.47337 7.03591 9.83492 6.88379 9.77983Z" fill="#67923D" stroke="#24420E" stroke-width="0.163766"/>
<path d="M6.88721 9.77638C7.03933 9.83147 7.25569 9.47337 7.18808 8.92932C7.06976 9.38728 6.93453 9.74883 6.88721 9.77638Z" fill="#406325" stroke="#24420E" stroke-width="0.163766"/>
<path d="M6.93115 10.1104C6.97797 9.81096 7.10158 9.52945 7.28949 9.29431C7.31653 9.85213 7.07652 10.1861 6.93115 10.1104Z" fill="#67923D" stroke="#24420E" stroke-width="0.163766"/>
<path d="M6.93457 10.1137C7.07655 10.1895 7.31657 9.85894 7.28953 9.30457C7.14078 9.74531 6.98528 10.0931 6.93457 10.1137Z" fill="#406325" stroke="#24420E" stroke-width="0.163766"/>
<path d="M7.02349 8.35774C7.04428 8.35774 7.06114 8.34078 7.06114 8.31986C7.06114 8.29894 7.04428 8.28198 7.02349 8.28198C7.0027 8.28198 6.98584 8.29894 6.98584 8.31986C6.98584 8.34078 7.0027 8.35774 7.02349 8.35774Z" fill="#BA1F3E" stroke="#511124" stroke-width="0.163766"/>
<path d="M7.30718 8.14423C7.32798 8.14423 7.34483 8.12728 7.34483 8.10636C7.34483 8.08544 7.32798 8.06848 7.30718 8.06848C7.28639 8.06848 7.26953 8.08544 7.26953 8.10636C7.26953 8.12728 7.28639 8.14423 7.30718 8.14423Z" fill="#BA1F3E" stroke="#511124" stroke-width="0.163766"/>
<path d="M7.1856 8.02717C7.20639 8.02717 7.22325 8.01021 7.22325 7.98929C7.22325 7.96837 7.20639 7.95142 7.1856 7.95142C7.16481 7.95142 7.14795 7.96837 7.14795 7.98929C7.14795 8.01021 7.16481 8.02717 7.1856 8.02717Z" fill="#BA1F3E" stroke="#511124" stroke-width="0.163766"/>
<path d="M6.87744 10.4926C6.90171 10.4926 6.92139 10.4726 6.92139 10.4478C6.92139 10.4231 6.90171 10.4031 6.87744 10.4031C6.85317 10.4031 6.8335 10.4231 6.8335 10.4478C6.8335 10.4726 6.85317 10.4926 6.87744 10.4926Z" fill="#BA1F3E" stroke="#511124" stroke-width="0.163766"/>
<path d="M6.96192 9.9417C6.98619 9.9417 7.00586 9.92166 7.00586 9.89694C7.00586 9.87221 6.98619 9.85217 6.96192 9.85217C6.93764 9.85217 6.91797 9.87221 6.91797 9.89694C6.91797 9.92166 6.93764 9.9417 6.96192 9.9417Z" fill="#BA1F3E" stroke="#511124" stroke-width="0.163766"/>
<path d="M7.40821 11.2294C7.43248 11.2294 7.45215 11.2094 7.45215 11.1847C7.45215 11.1599 7.43248 11.1399 7.40821 11.1399C7.38393 11.1399 7.36426 11.1599 7.36426 11.1847C7.36426 11.2094 7.38393 11.2294 7.40821 11.2294Z" fill="#BA1F3E" stroke="#511124" stroke-width="0.163766"/>
<path d="M7.21192 11.2948C7.23619 11.2948 7.25586 11.2748 7.25586 11.2501C7.25586 11.2254 7.23619 11.2053 7.21192 11.2053C7.18764 11.2053 7.16797 11.2254 7.16797 11.2501C7.16797 11.2748 7.18764 11.2948 7.21192 11.2948Z" fill="#BA1F3E" stroke="#511124" stroke-width="0.163766"/>
<path d="M8.70948 12.3692C8.73375 12.3692 8.75342 12.3491 8.75342 12.3244C8.75342 12.2997 8.73375 12.2797 8.70948 12.2797C8.6852 12.2797 8.66553 12.2997 8.66553 12.3244C8.66553 12.3491 8.6852 12.3692 8.70948 12.3692Z" fill="#BA1F3E" stroke="#511124" stroke-width="0.163766"/>
<path d="M8.80762 12.6137C8.83189 12.6137 8.85157 12.5937 8.85157 12.5689C8.85157 12.5442 8.83189 12.5242 8.80762 12.5242C8.78335 12.5242 8.76367 12.5442 8.76367 12.5689C8.76367 12.5937 8.78335 12.6137 8.80762 12.6137Z" fill="#BA1F3E" stroke="#511124" stroke-width="0.163766"/>
<path d="M12.5769 8.58493C12.6005 8.60559 12.6174 8.61247 12.6546 8.65035M12.4315 7.99956C12.4315 7.95135 12.4112 7.87216 12.4011 7.82739M12.5194 7.93069C12.5194 7.99497 12.507 8.05695 12.4822 8.11663M12.3402 8.09942C12.3988 8.1568 12.4585 8.20157 12.5194 8.23371M12.6479 8.27503C12.6524 8.34389 12.6445 8.41276 12.6242 8.48163M12.6377 8.53328L12.6817 8.45408M12.6174 8.87417C12.6648 8.8845 12.7121 8.94303 12.7357 8.99468M12.7526 8.94992L12.8067 8.87417M12.8642 9.93471L12.7831 10.0518M12.6479 10.0518C12.6749 10.1 12.7019 10.1551 12.7357 10.1895M12.8203 10.3927C12.7808 10.4501 12.7287 10.4973 12.6681 10.5304M12.6749 10.6854C12.6377 10.7129 12.5904 10.7887 12.5498 10.8472M12.8338 10.1516L12.7628 10.1826M12.7155 9.92783L12.756 9.96226M12.4416 11.2501H12.374M12.303 11.1881L12.3233 11.2432M12.0664 11.4188C12.0596 11.4831 12.0608 11.5473 12.0698 11.6116M12.2151 11.3017L12.2489 11.3775M12.3808 11.374L12.2963 11.3844M11.2551 12.2555L11.2213 12.3175M11.6235 12.1798C11.574 12.1844 11.5278 12.1821 11.4849 12.1729M11.299 12.3795L11.1976 12.345M10.7007 12.438C10.6702 12.4621 10.633 12.5207 10.5992 12.5757M10.579 12.4208C10.4978 12.4656 10.4708 12.5482 10.4302 12.6205M10.5249 12.7169C10.4708 12.7009 10.4111 12.6779 10.3457 12.6481M10.9103 12.624C10.8325 12.5826 10.7514 12.5895 10.6702 12.5757M11.0353 12.562C10.9114 12.539 10.7953 12.5379 10.6871 12.5585M10.9508 12.469L10.9035 12.4483M10.7142 12.6377L10.6364 12.593M12.5938 10.8988C12.5509 10.931 12.5093 10.9757 12.4687 11.0331M12.5295 8.29224L12.4552 8.2647" stroke="#24420E" stroke-width="0.327532"/>
<path d="M9.646 12.92C9.67755 12.8787 9.71473 12.8477 9.75755 12.8271C10.0179 12.6893 10.2782 12.6274 10.5689 12.5792C10.6399 12.5654 10.7075 12.5 10.7785 12.469C10.9475 12.3863 11.1334 12.3553 11.2957 12.2727C11.3058 12.2658 11.3464 12.2417 11.3633 12.2176C11.4309 12.1419 11.5492 12.1178 11.6202 12.0454C11.9042 11.7769 12.2017 11.5289 12.3572 11.1674C12.5465 10.7301 12.7798 10.279 12.7493 9.78317C12.7291 9.46638 12.773 9.1496 12.6986 8.85347C12.6045 8.40588 12.4279 7.98055 12.178 7.6001L12.222 7.62764C12.4726 8.0077 12.6493 8.43317 12.7426 8.88102C12.8203 9.17714 12.7764 9.49737 12.7933 9.81072C12.8271 10.3066 12.5904 10.7576 12.4045 11.1984C12.249 11.5565 11.9481 11.8044 11.6676 12.0764C11.5932 12.1453 11.4782 12.1694 11.4106 12.2486L11.343 12.3002C11.1774 12.3829 10.9915 12.4173 10.8224 12.4965C10.7548 12.531 10.6872 12.5929 10.6196 12.6067C10.3354 12.6429 10.0589 12.7267 9.8015 12.8546C9.75674 12.8748 9.71819 12.9069 9.68994 12.9476L9.646 12.92Z" fill="#406325" stroke="#24420E" stroke-width="0.163766"/>
<path d="M12.3232 11.1881C12.4179 10.9333 12.3232 10.3342 12.2759 10.2584C12.0494 10.7887 12.1609 11.2088 12.3232 11.1881Z" fill="#406325" stroke="#24420E" stroke-width="0.163766"/>
<path d="M12.0832 11.4291C12.1609 11.2363 12.1068 10.7646 12.0696 10.706C11.8837 11.1089 11.9581 11.4394 12.0832 11.4291ZM12.6545 8.8776C12.4838 8.65489 12.2589 8.48157 12.002 8.37488C12.2116 8.83284 12.5598 9.00156 12.6545 8.8776Z" fill="#406325" stroke="#24420E" stroke-width="0.163766"/>
<path d="M12.6005 8.60214C12.4892 8.3702 12.3202 8.17197 12.1104 8.0271C12.2151 8.47473 12.4957 8.69166 12.6005 8.60214ZM12.7594 9.11519C12.6411 8.97746 12.2456 8.84317 12.1847 8.85006C12.4214 9.15996 12.7121 9.22538 12.7594 9.11519ZM12.6648 10.7129C12.9066 10.7112 13.1436 10.6434 13.351 10.5166C12.9149 10.4202 12.6242 10.5821 12.6648 10.7129ZM12.658 10.5166C12.658 10.3238 12.445 9.93815 12.3876 9.89683C12.3707 10.31 12.5532 10.5683 12.658 10.5166Z" fill="#406325" stroke="#24420E" stroke-width="0.163766"/>
<path d="M12.675 10.0449C12.6276 9.74672 12.504 9.46646 12.3167 9.2323C12.2896 9.79012 12.5296 10.1207 12.675 10.0449ZM10.8833 12.6378C11.0966 12.8287 11.3554 12.9593 11.6338 13.0165C11.3363 12.593 10.9543 12.4966 10.8867 12.6378H10.8833Z" fill="#406325" stroke="#24420E" stroke-width="0.163766"/>
<path d="M12.3234 11.1812C12.1577 11.2019 12.0496 10.7887 12.2761 10.2584C12.2592 10.7474 12.2828 11.1434 12.3234 11.1812ZM10.5182 12.6825C10.7936 12.7493 11.0482 12.8854 11.2585 13.0785C10.7481 13.082 10.4472 12.8272 10.5148 12.686L10.5182 12.6825ZM10.5182 12.4105C10.5858 12.135 11.0253 11.6805 11.1098 11.6495C10.9881 12.2383 10.6466 12.5276 10.5182 12.4105ZM11.2382 12.2693C11.2468 11.9538 11.334 11.6457 11.4918 11.3741C11.5932 11.9388 11.3904 12.321 11.2382 12.2693ZM11.9651 11.7666C12.1727 11.5776 12.4239 11.4449 12.6953 11.381C12.3944 11.7976 12.0259 11.9009 11.9617 11.7666H11.9651ZM12.8339 9.93131C12.8677 9.71438 13.1618 9.31495 13.226 9.28052C13.1854 9.74881 12.9454 10.0036 12.8339 9.93475V9.93131Z" fill="#67923D" stroke="#24420E" stroke-width="0.163766"/>
<path d="M12.4385 11.2432C12.6937 11.1113 12.9772 11.0462 13.2633 11.0538C12.8644 11.3878 12.4689 11.3912 12.4385 11.2432ZM12.7867 10.3996C12.9398 10.1836 13.1462 10.0125 13.385 9.90371C13.189 10.3513 12.8678 10.5166 12.7867 10.3996ZM12.736 8.82939C12.736 8.5677 13.0064 8.04775 13.074 7.9961C13.1112 8.55048 12.8813 8.89826 12.736 8.82939ZM12.5027 7.93757C12.4443 7.71201 12.4432 7.47504 12.4993 7.2489C12.6853 7.62422 12.6244 7.93757 12.4993 7.93757H12.5027Z" fill="#67923D" stroke="#24420E" stroke-width="0.163766"/>
<path d="M12.3573 7.86181C12.1802 7.64165 12.0594 7.38019 12.0058 7.10083C12.4047 7.42106 12.4926 7.80327 12.3573 7.86181ZM12.7529 9.04976C12.7427 9.08075 12.8543 8.78462 13.2329 8.52293C13.0977 9.01532 12.861 9.15306 12.7529 9.04976ZM11.6001 12.1453C11.9052 11.986 12.2445 11.9067 12.5872 11.9146C12.1072 12.3209 11.6339 12.3278 11.6001 12.1453ZM12.0835 11.4291C11.9584 11.436 11.8807 11.1089 12.0666 10.706C12.0429 11.0848 12.0531 11.3947 12.0835 11.4291ZM12.6548 8.87759C12.5636 9.00155 12.2154 8.83627 12.0058 8.37486C12.1956 8.57529 12.4145 8.74484 12.6548 8.87759ZM12.5974 8.60212C12.4926 8.69165 12.2154 8.47816 12.1106 8.02709C12.3371 8.35076 12.55 8.59524 12.5974 8.60212ZM12.7596 9.11862C12.7123 9.22537 12.4249 9.16339 12.1883 8.85349C12.5399 9.05664 12.6785 9.14273 12.763 9.11862H12.7596ZM12.6717 10.7094C12.6278 10.5786 12.9185 10.4236 13.3546 10.5201C13.1188 10.5474 12.8886 10.6113 12.6717 10.7094ZM12.6582 10.5166C12.55 10.5683 12.3709 10.3135 12.3878 9.90026C12.4483 10.119 12.5394 10.3277 12.6582 10.5201V10.5166Z" fill="#67923D" stroke="#24420E" stroke-width="0.163766"/>
<path d="M12.6717 10.0517C12.5263 10.1275 12.2897 9.79693 12.3167 9.24255C12.4655 9.6833 12.621 10.0311 12.6717 10.0517ZM10.8901 12.6377C10.9577 12.4931 11.333 12.5895 11.6339 13.0096C11.262 12.7789 10.9408 12.6205 10.8901 12.6377Z" fill="#67923D" stroke="#24420E" stroke-width="0.163766"/>
<path d="M11.2383 12.2624C11.3938 12.3175 11.5932 11.9388 11.4952 11.3706C11.4005 11.8527 11.2856 12.2349 11.2383 12.2659V12.2624Z" fill="#406325" stroke="#24420E" stroke-width="0.163766"/>
<path d="M11.5866 12.0833C11.7146 11.7917 11.7681 11.4719 11.7421 11.1536C11.4041 11.6219 11.4243 12.0592 11.5866 12.0833ZM10.515 12.6859C10.4474 12.8271 10.7415 13.0819 11.2519 13.075C10.8463 12.9097 10.5353 12.7376 10.515 12.6859ZM10.5217 12.407C10.6502 12.5241 10.9882 12.2383 11.1099 11.6495C10.8361 12.0764 10.5792 12.4001 10.5217 12.407ZM11.9652 11.7665C12.0261 11.9043 12.3946 11.801 12.6988 11.3843C12.4738 11.5474 12.2267 11.6761 11.9652 11.7665ZM12.8374 9.93125C12.949 10.0036 13.1856 9.74875 13.2262 9.2839C13.1286 9.51801 12.9976 9.73614 12.8374 9.93125ZM12.4385 11.2432C12.4723 11.3947 12.8611 11.3878 13.2634 11.0538C12.8408 11.1915 12.4858 11.2673 12.4419 11.2432H12.4385ZM12.7901 10.3961C12.8746 10.5132 13.1924 10.3479 13.3884 9.90026C13.215 10.0957 13.0132 10.2629 12.7901 10.3961ZM12.7427 8.82594C12.8847 8.89481 13.1146 8.55047 13.074 7.99954C12.9388 8.44717 12.7901 8.80184 12.7394 8.82594H12.7427ZM12.5061 7.93412C12.6244 7.93756 12.6887 7.62422 12.4993 7.24545C12.5332 7.607 12.5332 7.90313 12.5061 7.93412ZM12.3607 7.85836C12.496 7.79983 12.4081 7.42106 12.0092 7.10083C12.1627 7.33413 12.2812 7.58945 12.3607 7.85836ZM12.7529 9.0532C12.8611 9.1565 13.0977 9.01877 13.2329 8.52293C12.967 8.86956 12.807 9.04631 12.7529 9.0532ZM11.6035 12.1488C11.6373 12.3278 12.1072 12.3209 12.5839 11.9181C12.0802 12.0833 11.6576 12.1797 11.6035 12.1488Z" fill="#406325" stroke="#24420E" stroke-width="0.163766"/>
<path d="M11.8335 11.8836C11.9308 11.667 11.9726 11.429 11.9552 11.1915C11.7017 11.5358 11.7118 11.8629 11.8335 11.8802V11.8836ZM12.4961 10.8954C12.6178 10.6991 12.6313 10.1757 12.5975 10.1034C12.3169 10.5132 12.3508 10.885 12.4961 10.8954Z" fill="#406325" stroke="#24420E" stroke-width="0.163766"/>
<path d="M11.5864 12.0799C11.4242 12.0593 11.4073 11.622 11.7385 11.1571C11.6168 11.6323 11.556 12.0317 11.5864 12.0799ZM12.7764 9.72814C12.7426 9.45956 12.9116 9.03603 12.9995 8.95339C13.0874 9.44923 12.9082 9.77979 12.7764 9.72814ZM11.8332 11.8802C11.7115 11.863 11.7014 11.5359 11.9549 11.1916C11.8802 11.4135 11.8392 11.6457 11.8332 11.8802ZM12.6243 8.29227C12.5499 8.08567 12.6243 7.60361 12.6648 7.54163C12.844 7.96171 12.7527 8.3026 12.6243 8.29227ZM10.6602 12.4277C10.7447 12.1522 11.2078 11.7046 11.2957 11.6702C11.1503 12.2728 10.7886 12.5517 10.6602 12.4277ZM12.5059 10.9953C12.6466 10.7663 12.8435 10.5788 13.0772 10.4512C12.9082 10.9195 12.5972 11.1089 12.5026 10.9953H12.5059ZM12.4992 10.892C12.3538 10.8782 12.32 10.5132 12.6006 10.1035C12.5259 10.3592 12.4917 10.6253 12.4992 10.892Z" fill="#67923D" stroke="#24420E" stroke-width="0.163766"/>
<path d="M12.7764 9.79012C12.9522 9.85554 13.0806 9.45267 12.9995 8.96716C12.9599 9.25117 12.8849 9.52888 12.7764 9.79356V9.79012Z" fill="#406325" stroke="#24420E" stroke-width="0.163766"/>
<path d="M12.8035 9.77635C12.8204 9.5181 12.5668 8.98438 12.4992 8.92585C12.4316 9.46989 12.6513 9.83144 12.8035 9.77635ZM12.6243 8.28883C12.7561 8.3026 12.844 7.96516 12.6649 7.54163C12.6784 7.93761 12.6581 8.25784 12.6243 8.28883ZM10.6636 12.4243C10.792 12.5517 11.1504 12.2728 11.2957 11.6736C10.9982 12.0972 10.721 12.4174 10.6636 12.4243ZM12.5093 10.9953C12.604 11.1089 12.915 10.923 13.084 10.4512C12.9206 10.6611 12.7268 10.8446 12.5093 10.9953Z" fill="#406325" stroke="#24420E" stroke-width="0.163766"/>
<path d="M12.7999 9.77282C12.6478 9.83135 12.4315 9.47325 12.4991 8.9292C12.6174 9.38372 12.7526 9.74527 12.7999 9.77282Z" fill="#67923D" stroke="#24420E" stroke-width="0.163766"/>
<path d="M12.6959 8.48164C12.7166 8.48164 12.7335 8.46468 12.7335 8.44376C12.7335 8.42284 12.7166 8.40588 12.6959 8.40588C12.6751 8.40588 12.6582 8.42284 12.6582 8.44376C12.6582 8.46468 12.6751 8.48164 12.6959 8.48164Z" fill="#BA1F3E" stroke="#511124" stroke-width="0.163766"/>
<path d="M12.8243 8.8913C12.8451 8.8913 12.8619 8.87435 12.8619 8.85343C12.8619 8.83251 12.8451 8.81555 12.8243 8.81555C12.8035 8.81555 12.7866 8.83251 12.7866 8.85343C12.7866 8.87435 12.8035 8.8913 12.8243 8.8913Z" fill="#BA1F3E" stroke="#511124" stroke-width="0.163766"/>
<path d="M12.8711 10.1895C12.8954 10.1895 12.915 10.1695 12.915 10.1447C12.915 10.12 12.8954 10.1 12.8711 10.1C12.8468 10.1 12.8271 10.12 12.8271 10.1447C12.8271 10.1695 12.8468 10.1895 12.8711 10.1895Z" fill="#BA1F3E" stroke="#511124" stroke-width="0.163766"/>
<path d="M12.6953 9.94841C12.7196 9.94841 12.7393 9.92837 12.7393 9.90365C12.7393 9.87893 12.7196 9.85889 12.6953 9.85889C12.671 9.85889 12.6514 9.87893 12.6514 9.90365C12.6514 9.92837 12.671 9.94841 12.6953 9.94841Z" fill="#BA1F3E" stroke="#511124" stroke-width="0.163766"/>
<path d="M12.1982 11.3223C12.2225 11.3223 12.2422 11.3023 12.2422 11.2776C12.2422 11.2528 12.2225 11.2328 12.1982 11.2328C12.174 11.2328 12.1543 11.2528 12.1543 11.2776C12.1543 11.3023 12.174 11.3223 12.1982 11.3223Z" fill="#BA1F3E" stroke="#511124" stroke-width="0.163766"/>
<path d="M12.4111 11.4153C12.4354 11.4153 12.4551 11.3953 12.4551 11.3706C12.4551 11.3458 12.4354 11.3258 12.4111 11.3258C12.3869 11.3258 12.3672 11.3458 12.3672 11.3706C12.3672 11.3953 12.3869 11.4153 12.4111 11.4153Z" fill="#BA1F3E" stroke="#511124" stroke-width="0.163766"/>
<path d="M10.978 12.5309C11.0023 12.5309 11.022 12.5109 11.022 12.4862C11.022 12.4614 11.0023 12.4414 10.978 12.4414C10.9538 12.4414 10.9341 12.4614 10.9341 12.4862C10.9341 12.5109 10.9538 12.5309 10.978 12.5309Z" fill="#BA1F3E" stroke="#511124" stroke-width="0.163766"/>
<path d="M10.7412 12.7032C10.7655 12.7032 10.7852 12.6831 10.7852 12.6584C10.7852 12.6337 10.7655 12.6136 10.7412 12.6136C10.7169 12.6136 10.6973 12.6337 10.6973 12.6584C10.6973 12.6831 10.7169 12.7032 10.7412 12.7032Z" fill="#BA1F3E" stroke="#511124" stroke-width="0.163766"/>
<path d="M12.4419 8.28877C12.4627 8.28877 12.4796 8.27181 12.4796 8.25089C12.4796 8.22997 12.4627 8.21301 12.4419 8.21301C12.4212 8.21301 12.4043 8.22997 12.4043 8.25089C12.4043 8.27181 12.4212 8.28877 12.4419 8.28877Z" fill="#BA1F3E" stroke="#511124" stroke-width="0.163766"/>
<path d="M8.28993 11.2467C8.28317 11.2811 8.31697 11.3259 8.35754 11.3155C8.37444 11.3155 8.3812 11.2983 8.3643 11.2983C8.34852 11.3029 8.335 11.2995 8.32373 11.288C8.31562 11.2788 8.31009 11.2676 8.30771 11.2554C8.30533 11.2433 8.30619 11.2308 8.31021 11.2191L8.28993 11.2467Z" fill="#8C959D" stroke="#485654" stroke-width="0.081883"/>
<path d="M8.3883 11.3155C8.3545 11.3568 8.30379 11.374 8.27336 11.3464C8.25083 11.3258 8.24519 11.3028 8.25646 11.2776L8.22266 11.3223C8.22266 11.3223 8.24294 11.3671 8.27675 11.3843C8.32069 11.4015 8.37816 11.374 8.41197 11.3292C8.43901 11.2948 8.46606 11.2466 8.44577 11.2053C8.43034 11.1786 8.40652 11.1579 8.37816 11.1467L8.34436 11.1812C8.36239 11.1766 8.38154 11.1812 8.40183 11.1949C8.44577 11.2294 8.42211 11.281 8.3883 11.3155Z" fill="#8C959D"/>
<path d="M8.38827 11.3155L8.35108 11.3499C8.3353 11.3591 8.3184 11.3625 8.30037 11.3602L8.27671 11.3499L8.2598 11.3293L8.24966 11.3051C8.24741 11.296 8.24966 11.2868 8.25642 11.2776L8.2598 11.281L8.22262 11.3258V11.3224L8.25642 11.3671L8.28009 11.3809L8.30713 11.3843C8.3264 11.384 8.34516 11.378 8.36122 11.3671C8.37925 11.3579 8.3939 11.3465 8.40517 11.3327L8.43897 11.2845C8.44799 11.2684 8.45137 11.2501 8.44911 11.2294L8.44235 11.2018C8.42723 11.177 8.40473 11.1577 8.37812 11.1468H8.3815L8.3477 11.1846H8.34432C8.35108 11.18 8.35897 11.1777 8.36798 11.1777L8.39503 11.1846C8.4108 11.1938 8.42094 11.2076 8.42545 11.226C8.4277 11.2443 8.42545 11.2604 8.41869 11.2742C8.41193 11.2925 8.40179 11.3063 8.38827 11.3155ZM8.38827 11.3155C8.40179 11.3063 8.4108 11.2925 8.41531 11.2742C8.41982 11.2558 8.42207 11.2397 8.42207 11.226C8.41756 11.2099 8.40742 11.1984 8.39165 11.1915C8.37587 11.18 8.36122 11.1777 8.3477 11.1846H8.34432L8.37812 11.1433C8.40648 11.1545 8.4303 11.1751 8.44573 11.2018C8.4525 11.2087 8.45588 11.2179 8.45588 11.2294C8.45588 11.2523 8.45137 11.2719 8.44235 11.2879C8.43559 11.3063 8.42432 11.3224 8.40855 11.3361C8.39728 11.3522 8.38263 11.3648 8.3646 11.374C8.34883 11.3855 8.32967 11.3912 8.30713 11.3912C8.29718 11.3921 8.28717 11.3907 8.27781 11.3871C8.26846 11.3835 8.26 11.3779 8.25304 11.3706L8.21924 11.3224L8.25304 11.2776H8.2598L8.25642 11.3051L8.26318 11.3293L8.28009 11.3465C8.2846 11.3534 8.29136 11.3568 8.30037 11.3568C8.3184 11.3591 8.3353 11.3568 8.35108 11.3499L8.38827 11.3155Z" fill="#485654"/>
<path d="M11.0249 8.25098L9.66931 9.61109L8.2799 10.9609L8.1244 11.1468C8.05679 11.226 7.97565 11.3293 7.881 11.4223C7.8641 11.4464 7.84381 11.4361 7.82353 11.4498C7.76268 11.4843 7.69845 11.5462 7.6545 11.5979L7.2387 12.0627C7.21165 12.0903 7.20714 12.1132 7.22517 12.1316L7.44829 12.4346C7.48886 12.4759 7.53618 12.4966 7.55647 12.4622C7.66126 12.2728 7.92833 11.987 8.02974 11.7632C8.08721 11.6254 8.16158 11.381 8.21567 11.3224C8.28328 11.2467 8.45569 11.0538 8.61458 10.8851L8.64838 10.8507C8.65514 10.8369 8.66528 10.8254 8.67881 10.8163C9.47323 9.98986 10.3927 8.98785 11.0621 8.28197L11.0249 8.25098Z" fill="#6C301E" stroke="#351710" stroke-width="0.163766" stroke-linejoin="round"/>
<path d="M8.20888 10.9643C8.17056 10.9598 8.13788 10.9437 8.11084 10.9161C8.15141 10.9299 8.19197 10.9437 8.22916 10.9265L8.20888 10.9643Z" fill="#8C959D" stroke="#485654" stroke-width="0.081883"/>
<path d="M12.4382 7.24548L11.3632 8.14764C11.3519 8.15911 11.3418 8.15911 11.3328 8.14764L11.2347 8.065V8.04434L11.2821 7.99613C11.2866 7.99154 11.2854 7.98465 11.2787 7.97547L11.2584 7.95481C11.2494 7.95251 11.2415 7.95481 11.2347 7.9617L11.1874 8.01335C11.1604 8.01564 11.1446 8.03171 11.1401 8.06155C10.491 8.70546 9.92984 9.28049 9.28415 9.91407L8.52015 10.6578C8.49311 10.6923 8.37479 10.7577 8.29703 10.8093C8.26774 10.8277 8.24745 10.8449 8.23618 10.861L8.17533 11.0504C8.15505 11.0917 8.09082 11.1881 8.09082 11.195L8.21928 11.3224L8.59452 10.9126L8.62495 10.8782C8.60021 10.843 8.57061 10.8117 8.53705 10.7852L8.51339 10.768C8.51339 10.7588 8.51902 10.7508 8.53029 10.7439C9.42275 9.86242 10.3896 8.89484 11.1739 8.10632H11.2077L11.3057 8.21306C11.3283 8.23602 11.3474 8.24061 11.3632 8.22683L12.4416 7.24548H12.4382Z" fill="#B2B6BA" stroke="#485654" stroke-width="0.163766"/>
<path d="M8.17871 11.0435H8.19899L8.2159 11.04L8.23956 10.9574L8.26661 10.8747C8.25984 10.8678 8.25196 10.8633 8.24294 10.861C8.25196 10.861 8.25984 10.8656 8.26661 10.8747L8.24294 10.9574L8.21928 11.04L8.19899 11.0469L8.17871 11.0435Z" fill="#485654"/>
<path d="M8.4219 10.9849C8.43325 10.9849 8.44244 10.9757 8.44244 10.9643C8.44244 10.9529 8.43325 10.9436 8.4219 10.9436C8.41056 10.9436 8.40137 10.9529 8.40137 10.9643C8.40137 10.9757 8.41056 10.9849 8.4219 10.9849Z" stroke="#485654" stroke-width="0.163766"/>
<path d="M8.29349 11.1158C8.30483 11.1158 8.31402 11.1065 8.31402 11.0951C8.31402 11.0837 8.30483 11.0745 8.29349 11.0745C8.28214 11.0745 8.27295 11.0837 8.27295 11.0951C8.27295 11.1065 8.28214 11.1158 8.29349 11.1158Z" stroke="#485654" stroke-width="0.163766"/>
<path d="M10.5854 8.58497L10.7038 8.70548L10.7241 8.68482L10.6057 8.56775L10.5854 8.58841V8.58497Z" fill="#8C959D" stroke="#485654" stroke-width="0.081883"/>
<path d="M10.823 11.2941C10.8281 11.3288 10.7922 11.3718 10.7522 11.3595C10.7353 11.3587 10.7294 11.3411 10.7462 11.342C10.7618 11.3473 10.7755 11.3446 10.7873 11.3337C10.7958 11.3249 10.8019 11.3139 10.8048 11.302C10.8078 11.29 10.8075 11.2774 10.8041 11.2655L10.823 11.2941Z" fill="#8C959D" stroke="#485654" stroke-width="0.0818831"/>
<path d="M10.722 11.3579C10.7537 11.4009 10.8036 11.4206 10.8353 11.3946C10.8588 11.3751 10.8655 11.3524 10.8555 11.3266L10.8871 11.373C10.8871 11.373 10.8647 11.4167 10.8301 11.4322C10.7854 11.4473 10.7293 11.4169 10.6977 11.3705C10.6723 11.3348 10.6476 11.2853 10.6699 11.245C10.6865 11.2191 10.7113 11.1997 10.7402 11.1899L10.7723 11.226C10.7545 11.2205 10.7352 11.2241 10.7142 11.2369C10.6687 11.2691 10.6899 11.3218 10.722 11.3579Z" fill="#8C959D"/>
<path d="M10.7218 11.358L10.7573 11.3942C10.7727 11.4042 10.7894 11.4085 10.8075 11.4071L10.8316 11.398L10.8495 11.3782L10.8608 11.3546C10.8635 11.3455 10.8617 11.3362 10.8553 11.3267L10.8518 11.33L10.8868 11.3766L10.887 11.3731L10.851 11.4162L10.8268 11.4287L10.7996 11.4308C10.7803 11.4295 10.7619 11.4226 10.7464 11.4109C10.7288 11.4009 10.7147 11.3887 10.7041 11.3744L10.6727 11.3245C10.6644 11.308 10.662 11.2895 10.6652 11.269L10.6733 11.2418C10.6896 11.2178 10.713 11.1996 10.7401 11.19L10.7367 11.1898L10.7686 11.2293L10.772 11.2295C10.7655 11.2246 10.7577 11.2219 10.7487 11.2214L10.7214 11.227C10.7052 11.2354 10.6944 11.2486 10.689 11.2667C10.6859 11.285 10.6873 11.3011 10.6934 11.3152C10.6993 11.3339 10.7088 11.3482 10.7218 11.358ZM10.7218 11.358C10.7088 11.3482 10.7004 11.334 10.6968 11.3154C10.6932 11.2968 10.6917 11.2807 10.6924 11.2669C10.6976 11.2511 10.7083 11.2401 10.7244 11.234C10.7407 11.2233 10.7555 11.2218 10.7686 11.2293L10.772 11.2295L10.7402 11.1866C10.7114 11.1963 10.6866 11.2158 10.6699 11.2417C10.6628 11.2482 10.659 11.2572 10.6584 11.2687C10.6573 11.2916 10.6609 11.3113 10.6691 11.3278C10.675 11.3465 10.6855 11.3631 10.7006 11.3776C10.7111 11.3942 10.7251 11.4076 10.7427 11.4177C10.7579 11.4299 10.7767 11.4366 10.7992 11.4377C10.8091 11.439 10.8192 11.4381 10.8287 11.435C10.8382 11.4319 10.847 11.4267 10.8543 11.4198L10.8903 11.3733L10.8587 11.3269L10.852 11.3266L10.854 11.3543L10.8461 11.378L10.8284 11.3943C10.8236 11.401 10.8167 11.4041 10.8077 11.4037C10.7895 11.405 10.7728 11.4019 10.7573 11.3942L10.7218 11.358Z" fill="#485654"/>
<path d="M8.23504 8.16584L9.52378 9.59179L10.8468 11.0091L10.9932 11.2025C11.0569 11.285 11.133 11.3922 11.2231 11.4898C11.2388 11.5147 11.2595 11.5054 11.2791 11.5202C11.3383 11.5576 11.3994 11.6227 11.4409 11.6765L11.8339 12.1615C11.8596 12.1903 11.863 12.2135 11.8441 12.2309L11.6067 12.5225C11.5642 12.5617 11.5159 12.58 11.4973 12.5446C11.4017 12.3502 11.1487 12.0515 11.0581 11.8229C11.0074 11.6824 10.9448 11.4346 10.8936 11.3734C10.8297 11.2944 10.6667 11.0932 10.5161 10.9168L10.484 10.8807C10.4779 10.8666 10.4683 10.8546 10.4553 10.8448C9.70144 9.97985 8.8311 8.93329 8.19642 8.19494L8.23504 8.16584Z" fill="#6C301E" stroke="#351710" stroke-width="0.163766" stroke-linejoin="round"/>
<path d="M10.9178 11.016C10.9563 11.0134 10.9897 10.9989 11.0181 10.9728C10.9769 10.9845 10.9357 10.9963 10.8994 10.9772L10.9178 11.016Z" fill="#8C959D" stroke="#485654" stroke-width="0.0818831"/>
<path d="M6.87219 7.09128L7.90264 8.04584C7.91335 8.05787 7.92348 8.05837 7.93303 8.04736L8.03491 7.96969L8.03591 7.94906L7.99095 7.89855C7.98667 7.89374 7.98812 7.88692 7.99531 7.87809L8.01657 7.85846C8.02568 7.85662 8.03345 7.8593 8.03987 7.86652L8.08466 7.92046C8.11157 7.9241 8.12655 7.94093 8.12962 7.97097C8.74702 8.6464 9.27994 9.24867 9.89446 9.91361L10.6219 10.6945C10.6472 10.7302 10.7623 10.8015 10.8374 10.8569C10.8658 10.8767 10.8853 10.8949 10.8957 10.9115L10.9474 11.1037C10.9657 11.146 11.0252 11.2455 11.0249 11.2524L10.8905 11.3732L10.5354 10.9453L10.5066 10.9094C10.533 10.8755 10.5641 10.8457 10.5989 10.8209L10.6233 10.8049C10.6238 10.7957 10.6185 10.7874 10.6076 10.78C9.7585 9.85513 8.83923 8.8406 8.09371 8.01399L8.05995 8.01231L7.95691 8.11405C7.9333 8.13585 7.91394 8.13949 7.89885 8.12494L6.86882 7.09111L6.87219 7.09128Z" fill="#B2B6BA" stroke="#485654" stroke-width="0.163766"/>
<path d="M10.9444 11.0968L10.9239 11.0957L10.907 11.0915L10.887 11.0077L10.8637 10.9238C10.8708 10.9172 10.879 10.913 10.8882 10.9112C10.8791 10.9107 10.871 10.9149 10.8637 10.9238L10.8836 11.0075L10.9036 11.0913L10.9237 11.0992L10.9444 11.0968Z" fill="#485654"/>
<path d="M10.7036 11.0261C10.6923 11.0256 10.6835 11.0158 10.6841 11.0044C10.6846 10.993 10.6943 10.9843 10.7056 10.9848C10.7169 10.9854 10.7256 10.9951 10.7251 11.0065C10.7245 11.0179 10.7149 11.0267 10.7036 11.0261Z" stroke="#485654" stroke-width="0.163766"/>
<path d="M10.8257 11.1632C10.8143 11.1626 10.8056 11.1529 10.8062 11.1415C10.8067 11.1301 10.8163 11.1213 10.8276 11.1219C10.839 11.1225 10.8477 11.1322 10.8472 11.1436C10.8466 11.155 10.837 11.1638 10.8257 11.1632Z" stroke="#485654" stroke-width="0.163766"/>
<path d="M8.65835 8.52135L8.5344 8.63583L8.51513 8.61419L8.63892 8.50314L8.65819 8.52479L8.65835 8.52135Z" fill="#8C959D" stroke="#485654" stroke-width="0.0818831"/>
<path d="M8.28005 12.2486C7.95304 12.1692 7.61116 12.1799 7.28955 12.2796C7.84058 12.5551 8.28681 12.438 8.27667 12.2452L8.28005 12.2486ZM11.2887 12.3623C11.5524 12.2486 12.1947 12.3382 12.2725 12.3967C11.7248 12.6687 11.2752 12.5517 11.2854 12.3623H11.2887Z" fill="#67923D" stroke="#24420E" stroke-width="0.163766"/>
<path d="M8.27329 12.2521C8.28343 12.4415 7.84058 12.5586 7.28955 12.2831C7.80677 12.3175 8.22934 12.2969 8.26991 12.2487L8.27329 12.2521ZM11.2887 12.3657C11.282 12.5551 11.7248 12.6722 12.2758 12.3967C11.7586 12.4312 11.3361 12.4105 11.2921 12.3623L11.2887 12.3657Z" fill="#406325" stroke="#24420E" stroke-width="0.163766"/>
<path d="M10.7987 12.0627C10.1174 11.1019 9.23974 10.303 8.22607 9.72119C8.34439 9.7143 8.61146 9.85548 8.72301 9.92779C9.53096 10.4581 10.2206 11.1605 10.9406 11.9869C10.9001 12.0282 10.873 12.0558 10.8257 12.0902L10.7987 12.0627Z" fill="#B2B6BA" stroke="#485654" stroke-width="0.163766"/>
<path d="M10.8696 12.0558L10.8155 12.0971C10.038 11.0779 8.95623 10.1034 8.22266 9.72119C9.2402 10.1964 10.0955 11.1571 10.8595 12.0489H10.8629L10.8696 12.0558Z" fill="#8C959D"/>
<path d="M10.8696 12.0558L10.8155 12.0971C10.4563 11.6272 10.0582 11.1894 9.62558 10.7887C9.30214 10.4862 8.95878 10.2067 8.5979 9.95195C8.4762 9.86931 8.35112 9.7924 8.22266 9.72124V9.71436C8.4931 9.84291 8.74664 9.99556 8.98328 10.1723C9.21992 10.3468 9.44529 10.5373 9.65939 10.7439C9.87307 10.9486 10.0794 11.1611 10.278 11.3809C10.4786 11.6036 10.6747 11.8274 10.8662 12.0524L10.8696 12.0558ZM10.8696 12.0558C10.6758 11.8286 10.4786 11.6059 10.278 11.3878C10.0795 11.1678 9.87317 10.9554 9.65939 10.7508C9.44529 10.5465 9.21992 10.356 8.98328 10.1792C8.74664 10.0024 8.49423 9.85094 8.22604 9.72469V9.7178C8.48099 9.86522 8.72605 10.0297 8.95961 10.2102C9.42525 10.5722 9.85749 10.9768 10.251 11.4188C10.4494 11.638 10.6389 11.8654 10.8189 12.1006L10.8696 12.0558Z" fill="#485654"/>
<path d="M11.103 11.8905C11.0354 11.9112 10.9757 11.9376 10.9238 11.9697C10.9171 12.0179 10.8562 12.073 10.8055 12.0833L10.7852 12.0558H10.7785L10.7582 12.0661C10.7356 12.0638 10.7176 12.0753 10.7041 12.1005C10.6906 12.135 10.7142 12.1797 10.7447 12.2073C10.7785 12.2314 10.792 12.2417 10.8258 12.2417C10.863 12.2314 10.8833 12.197 10.8934 12.1866C11.0185 12.3416 11.1131 12.4277 11.272 12.5516C11.343 12.5516 11.3802 12.5069 11.3565 12.4552C11.3475 12.4368 11.3329 12.43 11.3126 12.4345V12.4173C11.3937 12.3416 11.4309 12.2452 11.343 12.0799C11.2686 11.9422 11.1841 11.8939 11.1064 11.8939H11.103V11.8905ZM11.3126 12.0489C11.3284 12.0719 11.3396 12.0948 11.3464 12.1178C11.4005 12.2211 11.3565 12.3485 11.2686 12.3863H11.2619C11.2754 12.3622 11.2348 12.3106 11.2146 12.3278C11.2247 12.3037 11.1909 12.2589 11.1638 12.2693C11.1774 12.2452 11.1469 12.2038 11.1165 12.2176C11.13 12.1935 11.1064 12.1556 11.0726 12.1625C11.0827 12.135 11.059 12.1005 11.0286 12.1074C11.0286 12.0822 11.023 12.065 11.0117 12.0558C11.0455 12.0282 11.0895 11.9835 11.1267 11.9628C11.2179 11.9215 11.2754 11.9972 11.3126 12.0489Z" fill="#FAB81C" stroke="#6C301E" stroke-width="0.163766"/>
<path d="M11.3535 12.159C11.3352 12.1453 11.3283 12.1326 11.3329 12.1212C11.342 12.1074 11.3557 12.1051 11.374 12.1143C11.3922 12.1235 11.4002 12.1349 11.3979 12.1487C11.3888 12.1625 11.374 12.1659 11.3535 12.159Z" fill="#FAB81C" stroke="#6C301E" stroke-width="0.081883"/>
<path d="M11.3432 12.1246C11.3249 12.1131 11.3181 12.0994 11.3227 12.0833C11.3318 12.0718 11.3455 12.0707 11.3637 12.0799C11.382 12.089 11.39 12.1005 11.3877 12.1143C11.3786 12.1281 11.3637 12.1315 11.3432 12.1246Z" fill="#FAB81C" stroke="#6C301E" stroke-width="0.081883"/>
<path d="M11.3232 12.0834C11.3049 12.0742 11.2981 12.0627 11.3026 12.0489C11.3118 12.0352 11.3255 12.0317 11.3437 12.0386C11.362 12.0524 11.3688 12.065 11.3642 12.0765C11.3597 12.088 11.346 12.0903 11.3232 12.0834Z" fill="#FAB81C" stroke="#6C301E" stroke-width="0.081883"/>
<path d="M11.2958 12.0489C11.2776 12.0374 11.2707 12.0248 11.2753 12.011C11.2844 11.9995 11.2981 11.9972 11.3164 12.0041C11.3346 12.0179 11.3426 12.0305 11.3403 12.042C11.3312 12.0558 11.3164 12.0581 11.2958 12.0489Z" fill="#FAB81C" stroke="#6C301E" stroke-width="0.081883"/>
<path d="M11.2624 12.0144C11.2418 12.0029 11.235 11.9915 11.2418 11.98V11.9731C11.2487 11.9765 11.2658 11.98 11.2624 11.9697V11.9628L11.2829 11.9697C11.3012 11.9834 11.308 11.9961 11.3034 12.0075C11.2989 12.019 11.2852 12.0213 11.2624 12.0144Z" fill="#FAB81C" stroke="#6C301E" stroke-width="0.081883"/>
<path d="M10.8931 12.1866C10.9167 12.1247 10.9607 12.0696 11.0114 12.0558L10.8931 12.1866ZM10.8998 12.197C10.9438 12.2038 11.0114 12.1522 11.0283 12.1074L10.8998 12.197ZM10.9404 12.2452C10.9945 12.2589 11.052 12.2038 11.0756 12.1625L10.9404 12.2452ZM10.9911 12.3003C11.0587 12.3003 11.0959 12.2555 11.1162 12.2176L10.9911 12.3003ZM11.0418 12.3519C11.0993 12.3519 11.15 12.3071 11.1635 12.2693L11.0418 12.3519ZM11.0891 12.4001C11.1522 12.3955 11.1939 12.3726 11.2142 12.3313L11.0891 12.4001ZM11.1466 12.4483C11.2041 12.4518 11.248 12.4173 11.2615 12.3863L11.1466 12.4483ZM11.2075 12.5C11.2615 12.5 11.2987 12.4655 11.3123 12.4311L11.2075 12.5Z" fill="#FAB81C"/>
<path d="M10.8931 12.1866C10.9081 12.1431 10.9351 12.1048 10.9708 12.0764C10.9798 12.0673 10.9934 12.0604 11.0114 12.0558L10.9708 12.0764L10.937 12.1109C10.9185 12.1336 10.9036 12.1591 10.8931 12.1866ZM10.8998 12.197L10.9404 12.1901L10.9742 12.1694L11.008 12.1419C10.9897 12.1634 10.9665 12.1799 10.9404 12.1901C10.9269 12.197 10.9134 12.1993 10.8998 12.197ZM10.9404 12.2452H10.981L11.0148 12.2245C11.0379 12.2081 11.0575 12.187 11.0722 12.1625L11.0486 12.197L11.0181 12.228L10.9843 12.2452H10.9404ZM10.9911 12.3003C11.0046 12.3003 11.017 12.298 11.0283 12.2934L11.0621 12.2762L11.0959 12.2486L11.1162 12.2142C11.1063 12.2408 11.0886 12.2637 11.0655 12.2796L11.0317 12.2968L10.9911 12.3003ZM11.0418 12.3519C11.0689 12.3519 11.0925 12.3427 11.1128 12.3244C11.1335 12.3101 11.1508 12.2912 11.1635 12.2693C11.1613 12.2808 11.1545 12.2922 11.1432 12.3037L11.1162 12.3278L11.0824 12.3485L11.0418 12.3519ZM11.0891 12.4001C11.1027 12.4001 11.1151 12.3978 11.1263 12.3932C11.1511 12.3871 11.1742 12.3753 11.1939 12.3588L11.2142 12.3278L11.1939 12.3622C11.1849 12.3714 11.1737 12.3783 11.1601 12.3829C11.1376 12.3967 11.1151 12.4024 11.0925 12.4001H11.0891ZM11.1466 12.4483C11.1701 12.4474 11.1931 12.4416 11.2142 12.4311L11.2413 12.4139L11.2615 12.3863C11.2593 12.3978 11.2537 12.407 11.2446 12.4139C11.2309 12.4264 11.2149 12.4358 11.1974 12.4418C11.18 12.4477 11.1615 12.4499 11.1432 12.4483H11.1466ZM11.2075 12.5L11.2413 12.4965L11.2683 12.4828L11.292 12.4621L11.3123 12.4346C11.3042 12.4556 11.2896 12.4735 11.2707 12.4853C11.2518 12.4971 11.2295 12.5023 11.2075 12.5Z" fill="#6C301E"/>
<path d="M8.74969 11.9725C9.48566 11.0546 10.4083 10.3102 11.4541 9.79065C11.3364 9.77663 11.0616 9.90142 10.946 9.96686C10.1086 10.4474 9.37928 11.1069 8.61237 11.8884C8.65046 11.932 8.67585 11.9612 8.72109 11.9984L8.74969 11.9725Z" fill="#B2B6BA" stroke="#485654" stroke-width="0.163766"/>
<path d="M8.67928 11.9614L8.73087 12.0059C9.56637 11.0355 10.703 10.1281 11.4575 9.79089C10.4141 10.2038 9.50439 11.1111 8.68981 11.9552L8.68643 11.955L8.67928 11.9614Z" fill="#8C959D"/>
<path d="M8.67937 11.9613L8.73096 12.0059C9.11694 11.5584 9.53984 11.1455 9.995 10.7716C10.3355 10.4892 10.6945 10.2309 11.0696 9.99844C11.1959 9.92329 11.3252 9.85409 11.4576 9.79081L11.458 9.78394C11.1806 9.89592 10.9186 10.033 10.6721 10.1951C10.4257 10.355 10.1896 10.5316 9.96386 10.7249C9.73864 10.9163 9.52028 11.1159 9.30922 11.3234C9.09603 11.5335 8.88727 11.7451 8.68295 11.9581L8.67937 11.9613ZM8.67937 11.9613C8.88608 11.7462 9.0959 11.5358 9.30882 11.3303C9.51978 11.1227 9.73814 10.923 9.96346 10.7317C10.1891 10.5407 10.4251 10.3642 10.6717 10.202C10.9182 10.0399 11.179 9.90387 11.454 9.79404L11.4544 9.78717C11.1913 9.91893 10.9371 10.0683 10.6935 10.2344C10.2076 10.5676 9.75255 10.9454 9.33401 11.3628C9.12314 11.5696 8.92076 11.7852 8.72738 12.0091L8.67937 11.9613Z" fill="#485654"/>
<path d="M8.45632 11.7823C8.5226 11.807 8.58068 11.837 8.63055 11.8722C8.63449 11.9207 8.69203 11.9794 8.74204 11.9928L8.7639 11.9665L8.77064 11.9669L8.79029 11.9784C8.81292 11.9775 8.83025 11.9901 8.84228 12.0161C8.85377 12.0513 8.82754 12.0945 8.79557 12.1202C8.76042 12.1422 8.74632 12.1517 8.71257 12.1496C8.67605 12.1371 8.65781 12.1015 8.64829 12.0906C8.51441 12.2377 8.41491 12.3179 8.24908 12.432C8.17822 12.4277 8.14371 12.3808 8.17034 12.3307C8.1804 12.3129 8.19543 12.3069 8.21541 12.3127L8.21641 12.2955C8.13983 12.215 8.10833 12.1165 8.2057 11.9568C8.28796 11.8238 8.37513 11.7808 8.45274 11.7855L8.45612 11.7857L8.45632 11.7823ZM8.23787 11.9277C8.22079 11.9497 8.2082 11.9719 8.20011 11.9944C8.1401 12.0943 8.17655 12.2241 8.26208 12.2672L8.26883 12.2677C8.25674 12.2428 8.30024 12.1937 8.31949 12.2121C8.31077 12.1874 8.34712 12.1448 8.37351 12.1567C8.36142 12.1318 8.3942 12.0924 8.42376 12.108C8.41167 12.0831 8.4375 12.0468 8.47084 12.0557C8.46233 12.0276 8.48795 11.9946 8.51792 12.0033C8.51939 11.9781 8.52602 11.9613 8.5378 11.9528C8.50566 11.9233 8.4644 11.8759 8.42848 11.8531C8.33978 11.8063 8.278 11.8784 8.23787 11.9277Z" fill="#FAB81C" stroke="#6C301E" stroke-width="0.163766"/>
<path d="M8.19056 12.0354C8.20956 12.0227 8.21712 12.0105 8.21324 11.9988C8.20495 11.9844 8.19143 11.9813 8.17269 11.9894C8.15396 11.9975 8.14532 12.0085 8.14679 12.0224C8.15509 12.0367 8.16968 12.041 8.19056 12.0354Z" fill="#FAB81C" stroke="#6C301E" stroke-width="0.0818831"/>
<path d="M8.20273 12.0016C8.2216 11.9912 8.22923 11.9779 8.22562 11.9615C8.21718 11.9495 8.2036 11.9475 8.18486 11.9556C8.16613 11.9637 8.15749 11.9747 8.15897 11.9886C8.16726 12.0029 8.18185 12.0072 8.20273 12.0016Z" fill="#FAB81C" stroke="#6C301E" stroke-width="0.0818831"/>
<path d="M8.22535 11.9616C8.24408 11.9535 8.25158 11.9424 8.24783 11.9284C8.23953 11.914 8.22609 11.9098 8.20748 11.9156C8.18848 11.9282 8.18091 11.9404 8.1848 11.9522C8.18868 11.9639 8.20219 11.9671 8.22535 11.9616Z" fill="#FAB81C" stroke="#6C301E" stroke-width="0.0818831"/>
<path d="M8.25462 11.9289C8.27349 11.9185 8.28105 11.9063 8.2773 11.8923C8.26887 11.8802 8.25536 11.8771 8.23675 11.8829C8.21775 11.8956 8.20905 11.9077 8.21065 11.9193C8.21895 11.9337 8.2336 11.9368 8.25462 11.9289Z" fill="#FAB81C" stroke="#6C301E" stroke-width="0.0818831"/>
<path d="M8.29036 11.8966C8.3115 11.8863 8.319 11.8753 8.31284 11.8634L8.31324 11.8565C8.30622 11.8595 8.28895 11.8619 8.29297 11.8518L8.29337 11.8449L8.27249 11.8506C8.25349 11.8632 8.24593 11.8754 8.24981 11.8872C8.25369 11.8989 8.2672 11.9021 8.29036 11.8966Z" fill="#FAB81C" stroke="#6C301E" stroke-width="0.0818831"/>
<path d="M8.64814 12.0906C8.62813 12.0273 8.58747 11.9696 8.53765 11.9528L8.64814 12.0906ZM8.64079 12.1005C8.59652 12.1047 8.53204 12.0491 8.51777 12.0034L8.64079 12.1005ZM8.59749 12.1462C8.54269 12.1566 8.48853 12.0982 8.46732 12.0555L8.59749 12.1462ZM8.54366 12.1981C8.47617 12.194 8.44166 12.1471 8.42362 12.108L8.54366 12.1981ZM8.49004 12.2466C8.43267 12.2431 8.38466 12.1954 8.37336 12.1567L8.49004 12.2466ZM8.43999 12.2918C8.37726 12.2834 8.33698 12.258 8.31914 12.2155L8.43999 12.2918ZM8.37981 12.3365C8.32224 12.3365 8.28038 12.2994 8.26868 12.2677L8.37981 12.3365ZM8.31606 12.3844C8.26207 12.3811 8.22695 12.3445 8.21546 12.3093L8.31606 12.3844Z" fill="#FAB81C"/>
<path d="M8.64814 12.0906C8.63568 12.0462 8.61097 12.0064 8.57694 11.9759C8.56848 11.9662 8.55538 11.9585 8.53765 11.9528L8.57694 11.9759L8.60868 12.0123C8.62587 12.0361 8.63919 12.0625 8.64814 12.0906ZM8.64079 12.1005L8.6007 12.0912L8.56815 12.0685L8.53601 12.0389C8.55301 12.0615 8.57523 12.0795 8.6007 12.0912C8.61379 12.0988 8.62716 12.102 8.64079 12.1005ZM8.59749 12.1462L8.55699 12.1437L8.52445 12.121C8.50227 12.1033 8.48396 12.081 8.47069 12.0557L8.49231 12.0915L8.52088 12.1243L8.55362 12.1435L8.59749 12.1462ZM8.54366 12.1981C8.53016 12.1973 8.51792 12.1942 8.50694 12.189L8.4742 12.1697L8.44206 12.1402L8.42382 12.1046C8.43211 12.1318 8.44846 12.1556 8.47062 12.173L8.50337 12.1922L8.54366 12.1981ZM8.49004 12.2466C8.46304 12.2449 8.43995 12.2343 8.42077 12.2148C8.40095 12.1993 8.38475 12.1794 8.37336 12.1567C8.37495 12.1683 8.38103 12.1802 8.39161 12.1923L8.4172 12.218L8.44974 12.2407L8.49004 12.2466ZM8.43999 12.2918C8.42649 12.291 8.41425 12.288 8.40327 12.2827C8.37887 12.2751 8.35648 12.262 8.33778 12.2443L8.31934 12.2121L8.33758 12.2477C8.34604 12.2574 8.35689 12.265 8.37012 12.2704C8.39182 12.2855 8.41398 12.2926 8.43661 12.2916L8.43999 12.2918ZM8.37981 12.3365C8.35644 12.3342 8.33379 12.3269 8.31332 12.3152L8.28733 12.2964L8.26868 12.2677C8.27027 12.2793 8.27535 12.2888 8.28395 12.2962C8.29692 12.3095 8.31241 12.3199 8.32947 12.3269C8.34653 12.3338 8.36481 12.3372 8.38318 12.3367L8.37981 12.3365ZM8.31606 12.3844L8.28252 12.3789L8.25632 12.3635L8.2339 12.3415L8.21526 12.3127C8.22204 12.3343 8.23558 12.3529 8.25379 12.3659C8.272 12.3788 8.29388 12.3853 8.31606 12.3844Z" fill="#6C301E"/>
<path d="M7.44194 7.93069C7.7102 7.78659 7.93729 7.57426 8.10115 7.31433C7.57378 7.45895 7.33377 7.80673 7.44194 7.93413V7.93069ZM12.3708 8.09252C12.2555 7.82187 12.0739 7.58591 11.8434 7.4073C11.9381 7.93069 12.2491 8.19238 12.3708 8.09597V8.09252Z" fill="#406325" stroke="#24420E" stroke-width="0.163766"/>
<path d="M7.44185 7.93066C7.33029 7.8067 7.57031 7.46237 8.09767 7.31775C7.72582 7.60699 7.44861 7.87557 7.44185 7.93066ZM12.3707 8.0925C12.2456 8.1958 11.9414 7.93411 11.8467 7.41416C12.0901 7.79293 12.32 8.08561 12.3707 8.0925Z" fill="#67923D" stroke="#24420E" stroke-width="0.163766"/>
<path d="M8.89511 10.6199C8.89511 10.6199 8.6889 10.644 8.62805 10.3513C8.5672 10.038 8.80722 10.007 8.80722 10.007C8.80722 10.007 9.08104 9.97598 9.25345 9.97253L9.32782 10.5923L8.89511 10.6199Z" fill="url(#paint0_radial_4430_2552)" stroke="#999270" stroke-width="0.163766"/>
<path d="M8.92244 10.527C8.92244 10.527 8.78722 10.5511 8.76017 10.3342C8.73989 10.1792 8.83454 10.1586 8.83454 10.1586L9.14556 10.2137V10.496L8.92244 10.527Z" fill="url(#paint1_radial_4430_2552)" stroke="#999270" stroke-width="0.163766"/>
<path d="M8.83447 10.1585C8.83447 10.1585 9.03731 10.1448 9.13872 10.131L9.18267 10.3273L8.94265 10.341C8.94265 10.341 8.92575 10.1654 8.83447 10.1585Z" fill="url(#paint2_radial_4430_2552)" stroke="#999270" stroke-width="0.163766"/>
<path d="M8.79395 10.0105C8.79395 10.0105 9.04749 9.94509 9.08129 10.2309C9.08805 10.3066 9.04749 10.4788 8.92241 10.527L9.3923 10.4754L9.34835 9.95886L9.19285 9.97264C9.19285 9.97264 8.8548 9.98297 8.79395 10.0071V10.0105Z" fill="url(#paint3_radial_4430_2552)" stroke="#999270" stroke-width="0.163766"/>
<path d="M8.89518 10.6199C8.89518 10.6199 10.6497 10.4994 10.8288 10.5063C11.363 10.2102 10.8288 9.04287 10.3792 8.38864C10.4299 8.24057 9.36846 7.91001 8.8918 7.941C8.8287 7.941 8.7701 7.94445 8.71601 7.95133C8.45571 7.97888 8.45233 8.31977 8.55713 8.5367C8.65854 8.7433 9.58481 10.4305 8.93575 10.613L8.89518 10.6199Z" fill="#F9F0AA" stroke="#999270" stroke-width="0.163766"/>
<path d="M10.7748 9.0773C10.6564 8.82594 10.5145 8.58491 10.3792 8.38864C10.4299 8.24057 9.36846 7.91001 8.8918 7.941C8.8287 7.941 8.7701 7.94445 8.71601 7.95133C8.45571 7.97888 8.45233 8.31977 8.55713 8.5367C8.59093 8.59868 8.70249 8.81216 8.82419 9.0773" fill="url(#paint4_linear_4430_2552)"/>
<path d="M10.7748 9.0773C10.6564 8.82594 10.5145 8.58491 10.3792 8.38864C10.4299 8.24057 9.36846 7.91001 8.8918 7.941C8.8287 7.941 8.7701 7.94445 8.71601 7.95133C8.45571 7.97888 8.45233 8.31977 8.55713 8.5367C8.59093 8.59868 8.70249 8.81216 8.82419 9.0773" stroke="#999270" stroke-width="0.163766"/>
<path d="M8.98967 9.48015C9.17898 9.98288 9.28378 10.5132 8.93559 10.613L8.89502 10.6199C8.89502 10.6199 10.6529 10.4994 10.8287 10.5063C11.1194 10.3444 11.0924 9.92779 10.9369 9.47327" fill="url(#paint5_linear_4430_2552)"/>
<path d="M8.98967 9.48015C9.17898 9.98288 9.28378 10.5132 8.93559 10.613L8.89502 10.6199C8.89502 10.6199 10.6529 10.4994 10.8287 10.5063C11.1194 10.3444 11.0924 9.92779 10.9369 9.47327" stroke="#999270" stroke-width="0.163766"/>
<path d="M8.73288 8.05115C8.6078 8.05115 8.57399 8.17511 8.57737 8.25087C8.58075 8.45747 8.73288 8.46435 8.73288 8.46435L8.93571 8.45402L9.03037 8.03394L8.73288 8.05115Z" fill="url(#paint6_radial_4430_2552)" stroke="#999270" stroke-width="0.163766"/>
<path d="M8.73291 8.05115L9.0304 8.03394L9.0642 8.34728L8.80052 8.36105C8.80052 8.36105 8.88503 8.10969 8.73291 8.05115Z" fill="url(#paint7_linear_4430_2552)" stroke="#999270" stroke-width="0.163766"/>
<path d="M10.3792 8.38866C10.6057 8.35422 10.6024 8.04432 10.4468 7.91692C9.92286 7.89626 9.23661 7.91348 8.73629 7.95135C8.79376 7.95135 8.95265 7.96513 8.96955 8.17517C8.97364 8.22077 8.96651 8.26668 8.94881 8.30877C8.9311 8.35085 8.90337 8.38778 8.86813 8.4162C8.82903 8.44612 8.78179 8.46296 8.73291 8.46441H8.85461L8.95603 8.45064C9.66594 8.35767 10.3759 8.38866 10.3759 8.38866H10.3792Z" fill="url(#paint8_linear_4430_2552)" stroke="#999270" stroke-width="0.163766"/>
<path d="M9.10791 8.87414C9.1034 8.86266 9.09439 8.85348 9.08087 8.8466C9.0696 8.84889 9.06396 8.8443 9.06396 8.83282H9.09101L9.1451 8.82593C9.15637 8.83282 9.15637 8.83856 9.1451 8.84315C9.12819 8.84315 9.13834 8.86037 9.14172 8.8707L9.18566 8.974C9.19017 8.98777 9.19806 8.99581 9.20933 8.9981L9.24651 8.99466C9.25327 8.98548 9.25553 8.974 9.25327 8.96022C9.24989 8.94989 9.27018 8.95334 9.27018 8.96022L9.2837 9.00843C9.2837 9.01302 9.27919 9.01417 9.27018 9.01187L9.16876 9.01876C9.15862 9.01876 9.14172 9.02909 9.13496 9.01876C9.13496 9.00499 9.15524 9.01188 9.15524 9.00155L9.1451 8.96711L9.10791 8.87414ZM9.27018 8.86037C9.26792 8.85119 9.26004 8.84315 9.24651 8.83626C9.23525 8.83856 9.22848 8.83397 9.22623 8.82249C9.23299 8.8179 9.24088 8.8179 9.24989 8.82249L9.30736 8.81561C9.3175 8.81561 9.32089 8.83282 9.30736 8.82938C9.29835 8.83167 9.2961 8.83971 9.3006 8.85348L9.35131 8.97056C9.35131 8.97974 9.35695 8.98662 9.36821 8.99121C9.37723 8.99121 9.38512 8.99466 9.39188 9.00155C9.38962 9.00843 9.38286 9.00958 9.37159 9.00499L9.31751 9.01187C9.30849 9.01187 9.30286 9.00843 9.3006 9.00155C9.29722 8.99122 9.3175 9.00155 9.32089 8.98777C9.32089 8.97859 9.31638 8.96711 9.30736 8.95334L9.27018 8.86381V8.86037ZM9.4223 8.88791C9.42681 8.89251 9.43244 8.89251 9.4392 8.88791C9.45047 8.88791 9.45723 8.88332 9.45949 8.87414C9.45949 8.85578 9.4516 8.842 9.43582 8.83282C9.42456 8.82594 9.41216 8.82364 9.39864 8.82593L9.40202 8.84315L9.4223 8.88791ZM9.44258 8.94301L9.46287 8.97744C9.47188 8.98203 9.4809 8.98203 9.48991 8.97744C9.50118 8.97515 9.50569 8.96941 9.50344 8.96022C9.50118 8.93497 9.48766 8.91776 9.46287 8.90857H9.42906L9.43582 8.92579L9.44258 8.94301ZM9.37497 8.86037C9.37047 8.84659 9.36258 8.83512 9.35131 8.82593C9.3423 8.82823 9.33441 8.82593 9.32765 8.81905C9.32765 8.80872 9.34793 8.81561 9.35469 8.81216C9.38512 8.81216 9.41554 8.80183 9.44258 8.81216C9.46963 8.82134 9.48653 8.83971 9.49329 8.86726C9.49329 8.88103 9.48653 8.89021 9.47301 8.8948L9.48991 8.89825C9.51245 8.90513 9.52823 8.9189 9.53724 8.93956C9.54626 8.95334 9.54626 8.96826 9.53724 8.98433C9.52146 8.99581 9.50569 9.0004 9.48991 8.9981L9.41216 9.00499C9.40202 9.00499 9.39864 8.98777 9.41216 8.98777C9.42118 8.98548 9.42343 8.97859 9.41892 8.96711L9.37497 8.86381V8.86037ZM9.62513 8.79495C9.63415 8.79724 9.63978 8.80298 9.64204 8.81216L9.65218 8.84315C9.64316 8.84545 9.6364 8.84086 9.6319 8.82938C9.62513 8.8202 9.61725 8.81561 9.60823 8.81561H9.56767C9.56316 8.82249 9.56429 8.82938 9.57105 8.83626L9.59133 8.88447C9.60034 8.88447 9.60936 8.88103 9.61837 8.87414C9.61837 8.86725 9.60823 8.85004 9.62513 8.85348C9.6319 8.86266 9.6364 8.87299 9.63866 8.88447L9.65556 8.92235C9.64542 8.93268 9.63866 8.9189 9.63528 8.90857C9.62626 8.89939 9.61499 8.89595 9.60147 8.89825V8.90857L9.62175 8.96022C9.63077 8.96941 9.64204 8.97285 9.65556 8.97056C9.66908 8.97285 9.68035 8.96826 9.68937 8.95678C9.69613 8.94989 9.67922 8.93268 9.68937 8.92923C9.70063 8.93153 9.70627 8.93842 9.70627 8.9499C9.70627 8.96137 9.70965 8.97055 9.71641 8.97744C9.71416 8.98433 9.70965 8.98662 9.70289 8.98433L9.60147 8.99121C9.58795 8.99121 9.57105 8.9981 9.56767 8.98433C9.56767 8.974 9.59133 8.98089 9.58795 8.96711L9.57443 8.93268L9.53724 8.83971C9.53273 8.82593 9.52372 8.8179 9.5102 8.81561C9.50343 8.81561 9.48991 8.8156 9.49667 8.80183H9.53048L9.62513 8.79495ZM9.70289 8.83971C9.70063 8.82823 9.69275 8.8179 9.67922 8.80872C9.66795 8.81101 9.66007 8.80642 9.65556 8.79495H9.68937C9.71641 8.79495 9.74345 8.78462 9.7705 8.79495C9.7998 8.80183 9.81783 8.82249 9.82459 8.85692C9.82459 8.8707 9.8167 8.87988 9.80092 8.88447C9.79078 8.88447 9.80768 8.88791 9.81106 8.89136C9.8336 8.90284 9.84938 8.92005 9.85839 8.94301C9.86177 8.94989 9.87529 8.96711 9.87867 8.9499C9.88206 8.93268 9.89896 8.94989 9.89558 8.96022C9.89332 8.974 9.88544 8.98088 9.87191 8.98088C9.85839 8.98088 9.846 8.974 9.83473 8.96022C9.82346 8.93727 9.80881 8.91776 9.79078 8.90169L9.76374 8.8948V8.91202L9.78402 8.95334C9.79303 8.96252 9.8043 8.96596 9.81783 8.96367C9.82797 8.96711 9.82459 8.98433 9.81106 8.98088H9.7536C9.74345 8.98777 9.72317 8.98089 9.72993 8.97056C9.74345 8.97056 9.74909 8.96482 9.74683 8.95334L9.71303 8.86381L9.70289 8.83971ZM9.75021 8.87414H9.78064C9.78965 8.86955 9.79191 8.86152 9.7874 8.85004C9.78289 8.83167 9.77275 8.8179 9.75698 8.80872C9.75021 8.80872 9.72993 8.80183 9.72655 8.81216L9.75021 8.86726V8.87414ZM9.99361 8.92923C9.99812 8.94071 10.0049 8.94875 10.0139 8.95334C10.0229 8.95334 10.0308 8.95678 10.0376 8.96367C10.0353 8.97055 10.0285 8.97285 10.0173 8.97056H9.96319C9.95192 8.97515 9.94516 8.9717 9.94291 8.96022C9.94967 8.95334 9.96657 8.96022 9.96657 8.94645L9.94967 8.90857L9.91248 8.80872C9.90572 8.79954 9.89783 8.79609 9.88882 8.79839C9.87529 8.79609 9.86741 8.80068 9.86515 8.81216C9.86966 8.82364 9.86966 8.83282 9.86515 8.83971C9.85614 8.83741 9.8505 8.83167 9.84825 8.82249C9.846 8.81331 9.84149 8.80183 9.83473 8.78806C9.83924 8.78347 9.84487 8.78232 9.85163 8.78461L9.99361 8.77773C10.0049 8.77773 10.0105 8.78347 10.0105 8.79495L10.024 8.82938C10.0173 8.83627 10.0105 8.83282 10.0038 8.81905C9.99699 8.80527 9.98685 8.79724 9.97333 8.79495L9.94629 8.80183L9.95305 8.82593L9.99361 8.92923ZM10.1221 8.89825C10.1176 8.90054 10.1164 8.90513 10.1187 8.91202V8.93956C10.1255 8.94875 10.1345 8.95334 10.1457 8.95334C10.1525 8.95334 10.1491 8.97056 10.139 8.96711H10.0984C10.0883 8.97056 10.0714 8.96367 10.0815 8.95334C10.0883 8.95334 10.0939 8.94989 10.0984 8.94301V8.77084C10.1074 8.76395 10.1142 8.76625 10.1187 8.77773L10.2404 8.93268C10.2472 8.94186 10.2562 8.94645 10.2674 8.94645C10.2776 8.94645 10.281 8.96367 10.2674 8.96022H10.1931C10.1886 8.95334 10.1908 8.94875 10.1998 8.94645C10.21 8.94645 10.1998 8.93268 10.1964 8.92579L10.1762 8.89825H10.1221ZM10.1593 8.88103C10.1638 8.88103 10.1638 8.87873 10.1593 8.87414L10.1153 8.81561V8.88447H10.1593V8.88103ZM10.2641 8.81905C10.2607 8.80527 10.2539 8.78461 10.237 8.78461C10.2235 8.78461 10.2179 8.78002 10.2201 8.77084H10.2776C10.3001 8.76625 10.3227 8.7674 10.3452 8.77428C10.3993 8.79494 10.4331 8.83397 10.4466 8.89136C10.4466 8.91431 10.4398 8.93268 10.4263 8.94645C10.3993 8.96022 10.3711 8.96367 10.3418 8.95678L10.2945 8.96022C10.2843 8.96022 10.281 8.94301 10.2945 8.94645C10.3058 8.94186 10.308 8.93383 10.3012 8.92235L10.2641 8.81905ZM10.3317 8.90513C10.3339 8.91661 10.3396 8.92809 10.3486 8.93956H10.3824C10.3982 8.93497 10.406 8.92464 10.406 8.90857C10.4046 8.88324 10.3977 8.85855 10.3858 8.83626C10.3722 8.81331 10.352 8.79724 10.3249 8.78806H10.2911V8.80183L10.3317 8.90513ZM9.61837 9.33211C9.62063 9.34358 9.62964 9.35047 9.64542 9.35276C9.65218 9.35276 9.66908 9.35277 9.66908 9.36654C9.66007 9.37113 9.65105 9.37113 9.64204 9.36654L9.59133 9.37342H9.5609C9.55414 9.36883 9.55527 9.36424 9.56428 9.35965C9.57555 9.35965 9.58231 9.35506 9.58457 9.34588L9.57781 9.31833L9.53724 9.22192C9.53499 9.21274 9.5271 9.20929 9.51358 9.21159C9.50456 9.21388 9.49667 9.21159 9.48991 9.2047C9.48991 9.19437 9.50682 9.19782 9.51358 9.19093L9.54738 9.1806C9.55414 9.1806 9.55752 9.18404 9.55752 9.19093L9.61837 9.33211ZM9.64204 9.17716H9.70965C9.72317 9.17716 9.71641 9.15994 9.72317 9.15994C9.73444 9.16453 9.73895 9.17256 9.73669 9.18404C9.73669 9.20011 9.72993 9.207 9.71641 9.2047H9.6657L9.6826 9.24602L9.70289 9.23913C9.73669 9.23913 9.77726 9.2598 9.79078 9.29423C9.7998 9.31259 9.7998 9.32981 9.79078 9.34588C9.77726 9.36195 9.75923 9.36883 9.73669 9.36654C9.71866 9.36654 9.70289 9.35965 9.68937 9.34588C9.68598 9.33899 9.68598 9.32177 9.69613 9.32522C9.7119 9.32522 9.71979 9.33211 9.71979 9.34588C9.72655 9.35047 9.73444 9.35162 9.74345 9.34932C9.75472 9.34932 9.76148 9.34358 9.76374 9.33211C9.76374 9.31374 9.7581 9.29767 9.74683 9.2839C9.74007 9.27012 9.72542 9.26209 9.70289 9.2598L9.67584 9.26324C9.66683 9.26094 9.66232 9.2552 9.66232 9.24602L9.63866 9.1806L9.64542 9.17716H9.64204ZM9.87529 9.21159C9.87079 9.19552 9.86065 9.18404 9.84487 9.17716C9.83811 9.17716 9.82121 9.17371 9.83135 9.16338H9.88544C9.91023 9.15879 9.93389 9.15994 9.95643 9.16682C10.0105 9.18748 10.0443 9.22651 10.0578 9.2839C10.0601 9.30685 10.0522 9.32522 10.0342 9.33899C10.0094 9.34817 9.98234 9.35162 9.95305 9.34932L9.9091 9.35621C9.89896 9.35621 9.89558 9.33899 9.9091 9.33899C9.91812 9.3367 9.92037 9.32866 9.91586 9.31489L9.87529 9.21159ZM9.94291 9.29767L9.96319 9.33211H9.99699C10.0105 9.32522 10.0173 9.31374 10.0173 9.29767C10.0173 9.27472 10.0094 9.25061 9.99361 9.22536C9.97784 9.20011 9.95755 9.18519 9.93276 9.1806H9.89896V9.19437L9.94291 9.29767ZM10.1593 9.14961C10.1683 9.1519 10.1739 9.15764 10.1762 9.16682C10.1784 9.17601 10.1818 9.18519 10.1863 9.19437C10.1773 9.20126 10.1705 9.19781 10.166 9.18404C10.1638 9.17486 10.157 9.16912 10.1457 9.16682H10.1018V9.18748L10.1221 9.23569C10.1333 9.23569 10.1424 9.2334 10.1491 9.22881C10.1559 9.22192 10.139 9.2047 10.1559 9.20815C10.1649 9.21274 10.1694 9.22192 10.1694 9.23569L10.1863 9.27357C10.1829 9.28734 10.1694 9.27357 10.166 9.26324C10.1593 9.25406 10.1502 9.25061 10.139 9.25291C10.13 9.25291 10.1277 9.2552 10.1322 9.2598L10.1525 9.31145C10.1615 9.32063 10.1728 9.32407 10.1863 9.32177C10.2021 9.32177 10.2133 9.31833 10.2201 9.31145C10.2269 9.30456 10.2133 9.29078 10.2201 9.2839C10.2336 9.28619 10.2393 9.29193 10.237 9.30111L10.2472 9.33555H10.2336L10.1288 9.34243C10.1176 9.34703 10.1074 9.34588 10.0984 9.33899C10.0916 9.32522 10.1153 9.3321 10.1187 9.32177L10.1086 9.29078L10.0714 9.19093C10.0669 9.17945 10.0578 9.17142 10.0443 9.16682C10.0376 9.16682 10.024 9.16682 10.0308 9.15305H10.0646L10.1593 9.14961ZM9.23975 9.64201C9.24651 9.65807 9.25778 9.66726 9.27356 9.66955C9.30286 9.67644 9.32765 9.68906 9.34793 9.70743C9.3592 9.7212 9.36483 9.73727 9.36483 9.75563C9.36258 9.774 9.35131 9.78548 9.33103 9.79007C9.313 9.79695 9.29384 9.79581 9.27356 9.78662C9.2668 9.78318 9.27018 9.8004 9.25666 9.79696C9.25215 9.78777 9.24989 9.77744 9.24989 9.76596L9.23637 9.73153C9.24088 9.72464 9.24651 9.72694 9.25327 9.73842C9.26454 9.76137 9.28257 9.774 9.30736 9.7763C9.32314 9.7763 9.33215 9.76941 9.33441 9.75563C9.33215 9.73727 9.32314 9.7235 9.30736 9.71431L9.23975 9.68677C9.2301 9.68113 9.22197 9.67315 9.21607 9.66354C9.21017 9.65393 9.2067 9.64298 9.20595 9.63167C9.2082 9.61561 9.21722 9.60528 9.23299 9.60068C9.24877 9.59609 9.2668 9.59609 9.28708 9.60068C9.29159 9.59609 9.29835 9.59495 9.30736 9.59724L9.31412 9.6179L9.32427 9.64889C9.31525 9.65348 9.30962 9.65119 9.30736 9.64201C9.29835 9.62594 9.28708 9.61675 9.27356 9.61446C9.26004 9.61446 9.24877 9.6179 9.23975 9.62479V9.64201ZM9.46287 9.58347C9.47414 9.58576 9.47977 9.5915 9.47977 9.60068L9.48653 9.62823C9.48203 9.63512 9.47639 9.63282 9.46963 9.62135C9.46738 9.61216 9.45949 9.60642 9.44597 9.60413H9.4054V9.62479L9.4223 9.673C9.43357 9.673 9.44259 9.6707 9.44935 9.66611C9.45611 9.65922 9.44259 9.64545 9.45273 9.64201C9.464 9.6466 9.46963 9.65463 9.46963 9.66611L9.48315 9.71087C9.47639 9.71776 9.47076 9.71431 9.46625 9.70054C9.46174 9.69136 9.45273 9.68792 9.4392 9.69021C9.43019 9.69021 9.42681 9.69251 9.42906 9.6971L9.44935 9.74875C9.45385 9.75793 9.46174 9.76137 9.47301 9.75908C9.48879 9.75908 9.50231 9.75563 9.51358 9.74875C9.51583 9.73957 9.51583 9.73038 9.51358 9.7212C9.52484 9.71661 9.53161 9.72005 9.53386 9.73153L9.54062 9.76596C9.53837 9.77285 9.53386 9.77515 9.5271 9.77285L9.42568 9.77974C9.41216 9.77974 9.39864 9.79007 9.39188 9.77974C9.39188 9.76597 9.40878 9.76941 9.41216 9.75908L9.4054 9.73153L9.37159 9.62823C9.37159 9.61675 9.36371 9.60987 9.34793 9.60757C9.33666 9.60757 9.33215 9.60298 9.33441 9.5938H9.36821L9.46287 9.58347ZM9.60485 9.72809C9.60936 9.73957 9.61612 9.7476 9.62513 9.75219C9.63866 9.7499 9.64767 9.75219 9.65218 9.75908C9.65218 9.77285 9.63528 9.76596 9.62851 9.76596L9.57443 9.77285C9.56541 9.77285 9.55865 9.77056 9.55414 9.76596C9.55414 9.75219 9.57105 9.75908 9.57443 9.75219L9.57105 9.72465L9.53724 9.62135C9.53273 9.60757 9.52484 9.59954 9.51358 9.59724C9.50231 9.59954 9.49667 9.59495 9.49667 9.58347H9.52034C9.54287 9.57888 9.56766 9.57658 9.59471 9.57658C9.60709 9.57743 9.619 9.58174 9.62914 9.58903C9.63927 9.59632 9.64724 9.60631 9.65218 9.6179C9.65894 9.63397 9.65894 9.64889 9.65218 9.66266C9.63415 9.67414 9.61499 9.68103 9.59471 9.68332C9.5902 9.68332 9.5902 9.68677 9.59471 9.69366L9.60485 9.72809ZM9.58457 9.66611H9.60823C9.6195 9.66152 9.62401 9.65348 9.62175 9.64201C9.62175 9.62594 9.61612 9.61216 9.60485 9.60068C9.59358 9.58921 9.58119 9.58691 9.56767 9.5938V9.61101L9.58457 9.66611ZM9.79416 9.71776C9.79416 9.72694 9.7998 9.73383 9.81106 9.73842C9.82233 9.73842 9.83022 9.74186 9.83473 9.74875C9.84149 9.75908 9.81782 9.75563 9.81106 9.75563L9.75698 9.75908C9.74796 9.75908 9.74233 9.75563 9.74007 9.74875C9.74683 9.74186 9.76374 9.74875 9.76374 9.73497L9.7536 9.69366L9.71979 9.5938C9.71754 9.58691 9.70965 9.58462 9.69613 9.58691C9.68711 9.58691 9.67922 9.59035 9.67246 9.59724V9.62479C9.66345 9.62938 9.65894 9.62594 9.65894 9.61446L9.64542 9.58002C9.64767 9.57314 9.65331 9.5697 9.66232 9.5697L9.80092 9.56281C9.81219 9.56281 9.81783 9.56855 9.81783 9.58002L9.83135 9.61446C9.82459 9.61905 9.81895 9.61675 9.81444 9.60757C9.80768 9.5938 9.79641 9.58576 9.78064 9.58347H9.7536L9.76036 9.60757L9.79416 9.71776ZM9.86515 9.60413C9.86515 9.59036 9.85839 9.58117 9.84487 9.57658C9.83585 9.57888 9.82909 9.57429 9.82459 9.56281H9.84487L9.90572 9.55592C9.91586 9.55248 9.92262 9.5697 9.91248 9.5697C9.90234 9.5697 9.8922 9.57658 9.89558 9.58691L9.91248 9.64201L9.93614 9.71776C9.9384 9.72464 9.94403 9.72924 9.95305 9.73153C9.96657 9.72924 9.97333 9.73383 9.97333 9.74531H9.94967L9.89558 9.75219C9.88882 9.75219 9.87529 9.7453 9.88206 9.73842C9.89332 9.73842 9.90009 9.73383 9.90234 9.72465L9.8922 9.68332L9.86515 9.60413ZM10.0612 9.54903C10.0702 9.55133 10.0747 9.55707 10.0747 9.56625L10.0815 9.5938C10.0747 9.60068 10.0691 9.59839 10.0646 9.58691C10.0624 9.57543 10.0545 9.56855 10.0409 9.56625H10.0038V9.59036L10.0207 9.63512L10.0477 9.62823C10.0545 9.62479 10.0409 9.60757 10.0511 9.60757C10.0624 9.60987 10.068 9.61675 10.068 9.62823C10.0702 9.6443 10.0747 9.65922 10.0815 9.673C10.0747 9.67988 10.0691 9.67759 10.0646 9.66611C10.0601 9.65463 10.0511 9.65004 10.0376 9.65233C10.0342 9.65233 10.0207 9.65234 10.0274 9.65922L10.0443 9.71087C10.0511 9.72005 10.059 9.72465 10.068 9.72465C10.0838 9.72465 10.0973 9.7212 10.1086 9.71431L10.1119 9.68332C10.1232 9.68103 10.1288 9.68562 10.1288 9.6971L10.1356 9.73153C10.1356 9.73842 10.1311 9.74071 10.1221 9.73842L10.0207 9.74186H9.98685C9.98347 9.72809 10.0038 9.73153 10.0071 9.72465L10.0038 9.6971L9.96995 9.5938C9.96995 9.58002 9.96206 9.57199 9.94629 9.5697C9.93952 9.5697 9.926 9.56281 9.93276 9.55592H9.96657L10.0646 9.54903H10.0612ZM10.1288 9.58347C10.1243 9.56969 10.1153 9.56166 10.1018 9.55936C10.0916 9.56281 10.0849 9.5387 10.1018 9.54559H10.1525L10.1762 9.57658L10.2505 9.67644L10.2472 9.66611L10.2607 9.54215C10.2674 9.53526 10.2843 9.54215 10.2945 9.53526C10.3046 9.53526 10.3283 9.53526 10.3215 9.54903C10.3057 9.54903 10.299 9.55592 10.3012 9.5697L10.3418 9.69366C10.3441 9.70743 10.3531 9.71317 10.3689 9.71087C10.379 9.71087 10.379 9.73153 10.3689 9.72809H10.308C10.2922 9.73268 10.2843 9.72924 10.2843 9.71776C10.2945 9.71776 10.3114 9.71087 10.3046 9.6971L10.2708 9.58691V9.60068L10.2641 9.70398L10.2607 9.73153C10.2517 9.73153 10.246 9.72809 10.2438 9.7212L10.1457 9.5938L10.1525 9.60413L10.1829 9.70398C10.1874 9.71546 10.1964 9.7212 10.21 9.7212C10.219 9.73038 10.2167 9.73497 10.2032 9.73497H10.1525C10.1435 9.73038 10.1435 9.72579 10.1525 9.7212C10.166 9.71661 10.1683 9.70743 10.1593 9.69366L10.1288 9.58347ZM10.4229 9.61101H10.4398C10.4511 9.61331 10.459 9.60872 10.4635 9.59724C10.4635 9.58117 10.4579 9.5674 10.4466 9.55592C10.4331 9.54904 10.4196 9.54674 10.406 9.54903V9.56625L10.4229 9.61101ZM10.4398 9.66611L10.4534 9.70054C10.4646 9.70513 10.4748 9.70628 10.4838 9.70398C10.4928 9.70398 10.4973 9.69825 10.4973 9.68677C10.4973 9.66381 10.4872 9.6466 10.4669 9.63512H10.4331V9.64545L10.4398 9.66611ZM10.3756 9.58347C10.3756 9.56969 10.3689 9.55822 10.3553 9.54903C10.3441 9.54903 10.3373 9.54559 10.335 9.53871C10.3317 9.52838 10.352 9.53871 10.3587 9.53526H10.45C10.477 9.54444 10.4917 9.56281 10.4939 9.59036C10.4917 9.60413 10.4838 9.61446 10.4703 9.62135H10.4872C10.5052 9.62823 10.5187 9.642 10.5277 9.66266C10.5368 9.67644 10.5368 9.69136 10.5277 9.70743C10.512 9.71891 10.4951 9.7235 10.477 9.7212L10.3993 9.72465C10.3891 9.72465 10.3858 9.70743 10.3993 9.71087C10.4105 9.70858 10.4128 9.70054 10.406 9.68677L10.3756 9.58347ZM10.548 9.57658C10.548 9.56281 10.5413 9.55133 10.5277 9.54215C10.5165 9.54215 10.5097 9.5387 10.5075 9.53182C10.5142 9.52149 10.5277 9.53182 10.5413 9.52837H10.6089C10.6382 9.53067 10.6573 9.54674 10.6663 9.57658C10.6708 9.59495 10.6663 9.60872 10.6528 9.6179L10.6393 9.62479C10.6618 9.63397 10.6776 9.64774 10.6866 9.66611L10.7035 9.69366C10.7103 9.69595 10.7137 9.69251 10.7137 9.68332C10.7272 9.67644 10.734 9.69365 10.7272 9.70398C10.7182 9.71776 10.7069 9.72235 10.6934 9.71776C10.6875 9.71704 10.6819 9.71475 10.6771 9.71112C10.6724 9.70749 10.6687 9.70266 10.6663 9.6971L10.6325 9.63856C10.6213 9.63168 10.6111 9.63053 10.6021 9.63512V9.64889L10.619 9.69021C10.6258 9.69939 10.6348 9.70398 10.6461 9.70398C10.6596 9.70398 10.6596 9.7212 10.6461 9.71776H10.5615C10.5548 9.70054 10.5751 9.70743 10.5818 9.70054L10.5751 9.66955L10.548 9.57658ZM10.592 9.61101C10.5953 9.62134 10.6123 9.61101 10.619 9.61101C10.6303 9.60872 10.6348 9.60298 10.6325 9.5938C10.6325 9.57543 10.6269 9.56051 10.6156 9.54903C10.6044 9.54215 10.5931 9.541 10.5818 9.54559C10.5773 9.54789 10.5773 9.55363 10.5818 9.56281L10.592 9.60757V9.61101ZM10.8252 9.52149C10.8342 9.52378 10.8387 9.52952 10.8387 9.53871C10.8387 9.54789 10.8421 9.55707 10.8489 9.56625C10.8399 9.57314 10.8331 9.57084 10.8286 9.55936C10.8286 9.54789 10.8218 9.541 10.8083 9.53871H10.7644C10.7599 9.5433 10.7599 9.55018 10.7644 9.55936L10.7779 9.60757C10.7892 9.60757 10.7982 9.60528 10.8049 9.60068C10.8151 9.59724 10.8016 9.58347 10.8117 9.57658C10.823 9.57888 10.8275 9.58691 10.8252 9.60068C10.8275 9.61675 10.832 9.63167 10.8387 9.64545C10.832 9.65233 10.8264 9.65004 10.8218 9.63856C10.8196 9.62708 10.8117 9.62249 10.7982 9.62479C10.7948 9.62479 10.7813 9.6179 10.7847 9.62479L10.8016 9.68332C10.8061 9.69251 10.814 9.69595 10.8252 9.69366C10.841 9.69366 10.8545 9.69136 10.8658 9.68677L10.8692 9.65922C10.8827 9.65463 10.8883 9.65807 10.8861 9.66955L10.8928 9.70398C10.8906 9.71087 10.8861 9.71317 10.8793 9.71087H10.7745C10.7632 9.71317 10.7542 9.71317 10.7475 9.71087C10.7373 9.6971 10.7542 9.70054 10.761 9.69366C10.7678 9.68677 10.761 9.67644 10.761 9.66955L10.7306 9.56281C10.7306 9.54903 10.7238 9.541 10.7103 9.53871C10.6923 9.53871 10.6866 9.53411 10.6934 9.52493H10.7272L10.8252 9.52149ZM9.71641 9.97256C9.71641 9.95879 9.70965 9.94731 9.69613 9.93813C9.6826 9.93813 9.67697 9.93469 9.67922 9.9278L9.71303 9.92436H9.79416C9.83923 9.93584 9.86853 9.96224 9.88206 10.0036C9.89107 10.0311 9.88882 10.0575 9.87529 10.0828C9.85501 10.1034 9.83022 10.1126 9.80092 10.1103C9.77839 10.1103 9.75698 10.1126 9.73669 10.1172C9.72993 10.1206 9.71641 10.1137 9.72317 10.1034C9.73669 10.1034 9.74345 10.0977 9.74345 10.0862L9.72993 10.0345L9.71641 9.97256ZM9.7705 10.0586C9.77275 10.0701 9.77726 10.0805 9.78402 10.0896C9.79529 10.0942 9.80656 10.0942 9.81783 10.0896C9.8336 10.0896 9.84374 10.0793 9.84825 10.0586C9.8509 10.0326 9.84621 10.0063 9.83473 9.9829C9.83036 9.97223 9.82342 9.96285 9.81456 9.95563C9.8057 9.94841 9.7952 9.94357 9.78402 9.94157H9.74683V9.95535L9.7705 10.0586ZM10.0105 9.9037C10.0195 9.90599 10.024 9.91173 10.024 9.92091L10.0308 9.95191C10.0218 9.9565 10.0161 9.9542 10.0139 9.94502C10.0094 9.93354 10.0026 9.92665 9.99361 9.92436H9.94967C9.94516 9.92895 9.94516 9.93584 9.94967 9.94502C9.94967 9.96338 9.95305 9.97945 9.95981 9.99322C9.97108 9.99322 9.98009 9.99093 9.98685 9.98634C9.99361 9.97945 9.98347 9.96568 9.99361 9.96223C10.0026 9.96683 10.0071 9.97486 10.0071 9.98634L10.0173 10.0311C10.0173 10.0414 10.0004 10.0311 10.0004 10.0242C9.99812 10.0127 9.99023 10.0081 9.97671 10.0104C9.97333 10.0104 9.95981 10.007 9.96657 10.0139C9.96657 10.03 9.97108 10.0483 9.98009 10.069C9.98234 10.0782 9.99023 10.0816 10.0038 10.0793C10.0195 10.0793 10.0331 10.0759 10.0443 10.069L10.0511 10.0414C10.0578 10.0368 10.0624 10.0414 10.0646 10.0552L10.0714 10.0896C10.0669 10.0942 10.0612 10.0954 10.0545 10.0931L9.95305 10.1C9.94178 10.1046 9.93164 10.1046 9.92262 10.1C9.91811 10.0908 9.92262 10.0862 9.93614 10.0862C9.94516 10.0793 9.94629 10.0713 9.93953 10.0621L9.91586 9.95191C9.91135 9.93813 9.90459 9.9301 9.89558 9.9278C9.88206 9.9278 9.87642 9.92321 9.87867 9.91403H9.91248L10.0105 9.9037ZM10.2303 10.0449C10.2303 10.0564 10.237 10.0644 10.2505 10.069C10.2595 10.069 10.2674 10.0713 10.2742 10.0759C10.2776 10.0862 10.2607 10.0828 10.2539 10.0828L10.1964 10.0862H10.1694C10.1604 10.0816 10.1615 10.077 10.1728 10.0724C10.1841 10.0724 10.1919 10.0678 10.1964 10.0586L10.1931 10.0311L10.1694 9.93469C10.1694 9.92551 10.1626 9.92206 10.1491 9.92436C10.1401 9.92895 10.1322 9.9278 10.1255 9.92091C10.1255 9.90714 10.1424 9.91058 10.1491 9.90714L10.1863 9.89337C10.1931 9.89337 10.1964 9.89681 10.1964 9.9037L10.2303 10.0449ZM10.3553 9.93125C10.3553 9.91518 10.3474 9.90599 10.3317 9.9037C10.3181 9.9037 10.3091 9.90714 10.3046 9.91403C10.3001 9.9278 10.3046 9.93928 10.3181 9.94846L10.3486 9.96568L10.3553 9.94502V9.93125ZM10.3824 10.0311C10.3779 10.015 10.3666 10.0036 10.3486 9.99667L10.3317 9.99322C10.3264 9.99705 10.3224 10.0023 10.32 10.0084C10.3176 10.0145 10.3169 10.0212 10.3181 10.0277C10.3249 10.0506 10.3362 10.0621 10.352 10.0621C10.3655 10.0667 10.3767 10.0621 10.3858 10.0483V10.0311H10.3824ZM10.4162 10.0242C10.4162 10.0426 10.4094 10.0575 10.3959 10.069C10.3779 10.0805 10.3553 10.0828 10.3283 10.0759C10.308 10.0713 10.2945 10.0575 10.2877 10.0345C10.2877 10.0162 10.2934 10.0001 10.3046 9.98634C10.308 9.98634 10.3215 9.9829 10.3114 9.97945C10.2911 9.97256 10.2798 9.95879 10.2776 9.93813C10.2708 9.91977 10.2765 9.90485 10.2945 9.89337C10.3094 9.88552 10.3268 9.88364 10.343 9.8881C10.3593 9.89256 10.3733 9.90303 10.3824 9.91747C10.3891 9.93354 10.3891 9.94731 10.3824 9.95879L10.3621 9.97601C10.3801 9.9783 10.3936 9.98749 10.4027 10.0036C10.4094 10.0081 10.4128 10.015 10.4128 10.0242H10.4162ZM10.5244 10.0449C10.5334 10.0449 10.539 10.0403 10.5413 10.0311C10.5446 10.0242 10.5413 10.007 10.5514 10.0104C10.5582 10.0104 10.5615 10.0173 10.5615 10.0311C10.5638 10.0449 10.5593 10.0575 10.548 10.069C10.5413 10.0736 10.5322 10.0747 10.521 10.0724H10.4635C10.4545 10.077 10.4466 10.077 10.4398 10.0724V10.0483C10.4489 10.0254 10.4601 10.007 10.4737 9.99322C10.4894 9.98404 10.4984 9.97142 10.5007 9.95535L10.4939 9.91403C10.4915 9.91014 10.4884 9.90678 10.4847 9.90415C10.481 9.90152 10.4768 9.89966 10.4724 9.8987C10.468 9.89774 10.4634 9.89769 10.459 9.89854C10.4546 9.8994 10.4504 9.90115 10.4466 9.9037C10.4353 9.91058 10.432 9.91862 10.4365 9.9278C10.4432 9.93469 10.4567 9.9278 10.4601 9.94157C10.4646 9.95305 10.4613 9.95994 10.45 9.96223C10.4387 9.96453 10.4275 9.9565 10.4162 9.93813C10.4117 9.91747 10.4184 9.9014 10.4365 9.88992C10.4545 9.87845 10.4737 9.87615 10.4939 9.88304C10.5142 9.88993 10.5277 9.9037 10.5345 9.92436C10.539 9.93813 10.5379 9.95305 10.5311 9.96912L10.4737 10.0277C10.4691 10.0322 10.468 10.0391 10.4703 10.0483C10.4748 10.0414 10.4804 10.0391 10.4872 10.0414L10.5244 10.0449ZM10.6562 10.0311C10.6562 10.0403 10.663 10.0472 10.6765 10.0518C10.6855 10.0518 10.6934 10.0541 10.7001 10.0586C10.7069 10.069 10.69 10.069 10.6832 10.069H10.592C10.5875 10.0598 10.5897 10.0552 10.5987 10.0552C10.6077 10.0552 10.6156 10.0506 10.6224 10.0414V10.0139L10.5987 9.91747C10.5965 9.90829 10.5908 9.90485 10.5818 9.90714C10.5728 9.90944 10.5649 9.90944 10.5582 9.90714C10.5514 9.89337 10.5683 9.89337 10.5751 9.88992L10.6156 9.87615C10.6246 9.87615 10.6292 9.87959 10.6292 9.88648L10.6562 10.0311Z" fill="#B07E09"/>
<path d="M9.69344 7.22144L9.56498 7.37983C9.52441 7.55888 9.62583 7.69662 9.82528 7.81369C9.98417 7.91699 10.2817 7.94109 10.3763 7.85845L9.91317 7.41082L9.69344 7.22144Z" fill="url(#paint9_radial_4430_2552)" stroke="#4C0505" stroke-width="0.163766"/>
<path d="M10.633 11.8664L10.5654 11.7804C10.2714 12.1864 9.89421 12.5224 9.45996 12.7651C9.97042 12.6205 10.3051 12.2418 10.633 11.8664ZM10.109 13.0957C10.2992 12.7166 10.5045 12.3456 10.7243 11.9835L10.6533 11.8905C10.4031 12.3106 10.1124 12.8099 10.1124 13.0957H10.109ZM11.5221 9.15309C11.49 8.99887 11.4413 8.84874 11.3767 8.70545C11.0138 8.08344 10.5051 7.56286 9.89605 7.19039V7.18006H9.90957L9.90619 7.17662H9.91971L9.91295 7.16629H9.92648L9.91633 7.15251H9.92986L9.91971 7.14218H9.93662L9.92648 7.12841H9.94L9.92648 7.11808L9.94676 7.11464L9.92986 7.10431L9.94676 7.10086L9.93324 7.09053L9.95352 7.08364L9.93662 7.07332L9.9569 7.06299L9.93662 7.04921L9.96028 7.04232L9.93324 7.03199L9.9569 7.01822H9.92986L9.94676 6.99412H9.9231L9.93324 6.9769H9.91295L9.9231 6.95969L9.89943 6.96313L9.90957 6.94247L9.88929 6.95624L9.89605 6.93214L9.87239 6.94591L9.87577 6.92181L9.85548 6.93902L9.85887 6.91492L9.84196 6.93214V6.90804L9.82506 6.92869V6.90459L9.81154 6.92181L9.80478 6.90115L9.79125 6.92181L9.78787 6.89771L9.77773 6.92181L9.77097 6.89771L9.76083 6.92181L9.75407 6.90115L9.74731 6.92181L9.74055 6.90115L9.73379 6.92869L9.72702 6.90459L9.71688 6.93214L9.70674 6.90804V6.93558L9.69322 6.91148V6.93902L9.67632 6.91837V6.94591L9.66279 6.92525V6.94936L9.64927 6.93902L9.65603 6.96313L9.63913 6.9528L9.64589 6.97346L9.63237 6.96657L9.63575 6.98723H9.62223L9.62899 7.00101H9.61885L9.62561 7.01478C9.61335 7.05365 9.60875 7.09461 9.61209 7.13529C9.61209 7.14218 9.63237 7.14907 9.63575 7.15596L9.64251 7.17662C9.58842 7.26614 9.54109 7.33501 9.53771 7.43831C9.57828 7.38321 9.62561 7.31435 9.68646 7.31435C9.65603 7.366 9.64251 7.52439 9.67632 7.54849L9.70336 7.50373C9.70336 7.53817 9.70787 7.56456 9.71688 7.58293C9.7259 7.55997 9.73717 7.54046 9.75069 7.52439C9.75069 7.57719 9.75745 7.61507 9.77097 7.63802C9.78675 7.61277 9.80478 7.59441 9.82506 7.58293C9.81605 7.61277 9.81266 7.64376 9.81492 7.6759C9.8352 7.64376 9.85661 7.61507 9.87915 7.58982C9.86563 7.64491 9.87915 7.68623 9.89267 7.74477C9.90619 7.6759 9.91295 7.66557 9.94338 7.63802C9.94676 7.70345 9.93662 7.76198 9.95014 7.79986C9.97718 7.74132 9.99747 7.74821 10.0178 7.71033C10.011 7.76543 10.0008 7.82396 10.0178 7.87217C10.0289 7.83593 10.0515 7.80445 10.082 7.78264C10.082 7.85839 10.0989 7.84462 10.0549 7.91004C10.0752 7.91693 10.1395 7.89627 10.1766 7.87906C10.1597 7.92037 10.1631 7.95136 10.1462 7.98235C10.18 7.9594 10.2127 7.93185 10.2442 7.89972C10.2307 7.94792 10.1935 7.99613 10.2104 8.04089C10.224 7.99498 10.2499 7.96629 10.2882 7.95481C10.2814 7.97891 10.2781 8.03056 10.2442 8.05467C10.3254 8.06155 10.3592 8.00646 10.3998 7.96169C10.3964 8.00646 10.3998 8.04433 10.4538 8.10976C10.4437 8.02712 10.4606 8.04433 10.4978 7.99613C10.5181 8.06844 10.5384 8.14763 10.6127 8.20273C10.5789 8.12353 10.5789 8.08221 10.5924 8.03401C10.6026 8.08565 10.6499 8.14764 10.6601 8.1924C10.6668 8.13731 10.6781 8.09139 10.6939 8.05467C10.7187 8.11627 10.7346 8.18122 10.7412 8.24749C10.7592 8.21306 10.7716 8.17862 10.7784 8.14419C11.4477 8.85007 11.5965 9.75223 10.8629 10.706C11.1266 10.527 11.1942 10.2412 11.3395 9.9967C11.1976 10.3169 11.1367 10.675 10.8832 10.9402C11.1266 10.7267 11.1773 10.5304 11.3226 10.3238C11.1705 10.7542 10.9508 11.226 10.6533 11.6598L10.8156 11.8389L10.9508 11.6013C11.2686 11.071 11.7858 10.31 11.5255 9.15309H11.5221Z" fill="#448127" stroke="#34541F" stroke-width="0.163766"/>
<path d="M9.60513 7.08024C9.57133 7.08713 9.55781 7.1009 9.53076 7.12845C9.56231 7.13534 9.59161 7.13878 9.61866 7.13878C9.62542 7.13419 9.6288 7.1273 9.6288 7.11812L9.62204 7.08369C9.62204 7.0768 9.60175 7.08024 9.59499 7.08369L9.60513 7.08024Z" fill="#EAC102" stroke="#A08307" stroke-width="0.163766"/>
<path d="M9.75785 7.11125C9.77297 7.11125 9.78523 7.09891 9.78523 7.0837C9.78523 7.06848 9.77297 7.05615 9.75785 7.05615C9.74273 7.05615 9.73047 7.06848 9.73047 7.0837C9.73047 7.09891 9.74273 7.11125 9.75785 7.11125Z" fill="black" stroke="black" stroke-width="0.081883"/>
<path d="M9.76417 7.09395C9.76985 7.09395 9.77444 7.08779 9.77444 7.08018C9.77444 7.07257 9.76985 7.06641 9.76417 7.06641C9.7585 7.06641 9.75391 7.07257 9.75391 7.08018C9.75391 7.08779 9.7585 7.09395 9.76417 7.09395Z" fill="url(#paint10_radial_4430_2552)"/>
<path d="M10.1126 13.0854C10.1737 12.879 10.2577 12.6803 10.3627 12.4931C10.4378 12.3503 10.5179 12.2101 10.6027 12.073L10.6906 11.9353L10.6061 12.073L10.3695 12.4966C10.2706 12.6854 10.1848 12.881 10.1126 13.0819V13.0854ZM9.47363 12.7583C9.86847 12.583 10.2137 12.3095 10.4777 11.9629C10.3445 12.0914 10.2181 12.227 10.099 12.3692C9.91167 12.5312 9.70067 12.6624 9.47363 12.7583ZM10.7346 11.7494C10.7616 11.7126 10.7864 11.6748 10.8089 11.6357C10.8815 11.5217 10.9492 11.4045 11.0118 11.2845L11.1402 11.0435L11.2653 10.8024L11.2079 10.923L11.147 11.0469C11.0651 11.208 10.9782 11.3665 10.8867 11.5221L10.7346 11.7494ZM10.934 10.8851C11.0501 10.7454 11.1468 10.5902 11.2214 10.4237C11.331 10.1728 11.3995 9.90522 11.4242 9.63171L11.4208 9.76945C11.3922 9.99725 11.3259 10.2185 11.2248 10.4237C11.1484 10.59 11.0506 10.7451 10.934 10.8851Z" fill="#34541F"/>
<path d="M10.8799 10.6853C10.9981 10.5573 11.0972 10.4123 11.174 10.2549C11.2305 10.1375 11.2802 10.0168 11.3227 9.89337L11.3329 9.86238L11.343 9.83139L11.3633 9.76941C11.3976 9.59459 11.3999 9.41481 11.3701 9.23914C11.3722 9.32795 11.3801 9.41653 11.3937 9.50427C11.3937 9.5961 11.3858 9.68447 11.3701 9.76941L11.3498 9.83483L11.3396 9.86582L11.3261 9.89681L11.1774 10.2618C11.1401 10.3407 11.0971 10.4166 11.0489 10.4891C10.9997 10.5616 10.943 10.6285 10.8799 10.6888V10.6853Z" fill="#34541F"/>
<path d="M10.6807 11.6908C10.7235 11.6357 10.7641 11.5783 10.8024 11.5186L10.8632 11.4325L10.9207 11.3464L11.0221 11.1605L11.11 10.9711C11.1708 10.8448 11.2272 10.7151 11.279 10.582C11.38 10.3199 11.4405 10.0435 11.4582 9.76249C11.4871 9.48152 11.4571 9.1975 11.3703 8.9292C11.4662 9.19541 11.4986 9.48101 11.465 9.76249C11.447 10.0445 11.3866 10.3221 11.2858 10.5854C11.2339 10.7163 11.1776 10.8448 11.1168 10.9711L11.0221 11.1605C10.9928 11.2248 10.9601 11.2867 10.9241 11.3464L10.8666 11.4359L10.8057 11.522L10.684 11.6942L10.6807 11.6908Z" fill="#34541F"/>
<path d="M10.7752 11.7975C10.9343 11.5325 11.0854 11.2627 11.2282 10.9883C11.4346 10.5702 11.5356 10.1063 11.5223 9.63854C11.5223 9.48245 11.5088 9.32864 11.4818 9.17714H11.4852C11.5145 9.33094 11.528 9.48474 11.5257 9.63854C11.5248 9.94911 11.4839 10.2582 11.404 10.5579C11.3595 10.707 11.303 10.8522 11.235 10.9918C11.0909 11.265 10.9388 11.5337 10.7786 11.7975H10.7752ZM9.83545 7.26953H9.88278C9.93097 7.27709 9.97772 7.29219 10.0214 7.31429C10.1342 7.37557 10.2369 7.45459 10.3256 7.54844C10.2357 7.45785 10.1332 7.38127 10.0214 7.32118C9.96231 7.29454 9.89962 7.27713 9.83545 7.26953Z" fill="#34541F"/>
<path d="M10.3899 7.64153C10.3899 7.64153 10.4913 7.70351 10.5488 7.79304C10.5488 7.79304 10.3899 7.76205 10.2783 7.63464" fill="#448127"/>
<path d="M10.3898 7.64153C10.4549 7.67834 10.5105 7.73025 10.5521 7.79304L10.5555 7.79992H10.5487C10.4962 7.78745 10.446 7.76653 10.4 7.73794C10.3549 7.7104 10.3132 7.67596 10.2749 7.63464C10.3303 7.69371 10.3986 7.73855 10.4744 7.76549L10.5487 7.78959V7.79648C10.5284 7.76411 10.5033 7.73508 10.4744 7.7104L10.3898 7.64153Z" fill="#34541F"/>
<path d="M10.1597 7.61047C10.1597 7.61047 10.4031 7.76887 10.4403 7.78264C10.4403 7.78264 10.3828 7.66212 10.2678 7.61047" fill="#448127"/>
<path d="M10.1597 7.61047L10.2983 7.69656L10.4031 7.75854L10.4369 7.7792V7.78264C10.4187 7.74563 10.3947 7.7119 10.3659 7.68278C10.3373 7.65339 10.3042 7.62896 10.2678 7.61047C10.3064 7.62527 10.341 7.64882 10.3693 7.67934C10.3984 7.70949 10.4224 7.74441 10.4403 7.78264L10.447 7.78953L10.4369 7.78608L10.3659 7.74476L10.1597 7.61047Z" fill="#34541F"/>
<path d="M10.258 7.53137C10.258 7.53137 10.3831 7.58647 10.4135 7.67944C10.4135 7.67944 10.1836 7.58302 10.1431 7.53137" fill="#448127"/>
<path d="M10.258 7.53137C10.292 7.5449 10.3239 7.56346 10.3527 7.58647L10.3898 7.62779L10.4169 7.67944V7.68632H10.4101C10.3292 7.64802 10.2502 7.60549 10.1735 7.55892L10.1431 7.53137L10.1735 7.55548L10.2073 7.57614C10.2727 7.61712 10.3417 7.6517 10.4135 7.67944H10.4101C10.4056 7.66337 10.3966 7.64845 10.3831 7.63467L10.3493 7.59335C10.322 7.56821 10.2913 7.54732 10.258 7.53137Z" fill="#34541F"/>
<path d="M10.0654 7.63123C10.0654 7.63123 10.2885 7.79306 10.3562 7.79306C10.3562 7.79306 10.2885 7.67943 10.1736 7.63123" fill="#448127"/>
<path d="M10.0654 7.63123L10.3156 7.77929L10.3562 7.78962L10.3528 7.79651C10.3318 7.76054 10.3056 7.72804 10.275 7.70009C10.2445 7.67245 10.2104 7.64927 10.1736 7.63123C10.2315 7.65469 10.2826 7.69258 10.3224 7.74141L10.3562 7.79306L10.3629 7.79651H10.3562C10.3404 7.79651 10.3257 7.79306 10.3122 7.78618L10.2784 7.76896C10.2025 7.7314 10.1311 7.68519 10.0654 7.63123Z" fill="#34541F"/>
<path d="M10.0654 7.67941C10.0654 7.67941 10.1804 7.78271 10.248 7.78271C10.248 7.78271 10.1804 7.66908 10.0654 7.61743" fill="#448127"/>
<path d="M10.0654 7.67939L10.2007 7.76547L10.2209 7.77236L10.248 7.77924L10.2446 7.78269C10.2233 7.74794 10.1971 7.71661 10.1668 7.68972C10.1363 7.66207 10.1022 7.6389 10.0654 7.62085C10.1229 7.64334 10.174 7.68001 10.2142 7.72759L10.248 7.77924L10.2547 7.78613H10.248L10.1939 7.77236C10.1622 7.75681 10.1327 7.73713 10.106 7.71382L10.0654 7.67939Z" fill="#34541F"/>
<path d="M10.0044 7.45557C10.0044 7.45557 10.2478 7.63118 10.2748 7.72759C10.2748 7.72759 10.0585 7.62429 10.0179 7.57264" fill="#448127"/>
<path d="M10.0044 7.45557C10.0959 7.52286 10.1808 7.59896 10.2579 7.68283L10.2816 7.72415V7.73448L10.2748 7.73103L10.045 7.59674L10.0788 7.6174C10.1432 7.65802 10.2111 7.6926 10.2816 7.7207L10.2748 7.72759L10.2512 7.68627C10.2019 7.62207 10.1452 7.56425 10.0821 7.5141L10.0044 7.45557Z" fill="#34541F"/>
<path d="M8.65203 12.4173C8.43956 12.5309 8.2023 12.5878 7.9624 12.5826C8.30046 12.3003 8.62837 12.2934 8.65203 12.4173ZM11.0117 12.5723C11.1874 12.7341 11.7216 12.8477 11.8061 12.8271C11.4477 12.4586 11.059 12.4208 11.0117 12.5723Z" fill="#406325" stroke="#24420E" stroke-width="0.163766"/>
<path d="M8.65203 12.4174C8.62837 12.29 8.29708 12.3003 7.9624 12.5826C8.18283 12.4926 8.41532 12.4369 8.65203 12.4174ZM11.015 12.5689C11.0624 12.4174 11.4477 12.4552 11.8061 12.8271C11.5562 12.702 11.2897 12.615 11.015 12.5689Z" fill="#67923D" stroke="#24420E" stroke-width="0.163766"/>
</g>
</g>
<defs>
<radialGradient id="paint0_radial_4430_2552" cx="0" cy="0" r="1" gradientUnits="userSpaceOnUse" gradientTransform="translate(8.73284 10.2824) scale(0.55779 0.56815)">
<stop offset="0.2" stop-color="#F9F0AA"/>
<stop offset="1" stop-color="#B07E09"/>
</radialGradient>
<radialGradient id="paint1_radial_4430_2552" cx="0" cy="0" r="1" gradientUnits="userSpaceOnUse" gradientTransform="translate(8.87511 10.4444) scale(0.368479 0.375323)">
<stop offset="0.2" stop-color="#F9F0AA"/>
<stop offset="1" stop-color="#B07E09"/>
</radialGradient>
<radialGradient id="paint2_radial_4430_2552" cx="0" cy="0" r="1" gradientUnits="userSpaceOnUse" gradientTransform="translate(8.95955 10.2928) scale(0.331294 0.337447)">
<stop offset="0.2" stop-color="#F9F0AA"/>
<stop offset="1" stop-color="#B07E09"/>
</radialGradient>
<radialGradient id="paint3_radial_4430_2552" cx="0" cy="0" r="1" gradientUnits="userSpaceOnUse" gradientTransform="translate(9.10495 10.2412) scale(0.588214 0.59914)">
<stop offset="0.2" stop-color="#F9F0AA"/>
<stop offset="1" stop-color="#B07E09"/>
</radialGradient>
<linearGradient id="paint4_linear_4430_2552" x1="9.62876" y1="8.59179" x2="9.57615" y2="7.65531" gradientUnits="userSpaceOnUse">
<stop offset="0.2" stop-color="#B07E09" stop-opacity="0"/>
<stop offset="1" stop-color="#B07E09"/>
</linearGradient>
<linearGradient id="paint5_linear_4430_2552" x1="9.93961" y1="9.88302" x2="10.0238" y2="10.9123" gradientUnits="userSpaceOnUse">
<stop offset="0.2" stop-color="#B07E09" stop-opacity="0"/>
<stop offset="1" stop-color="#B07E09"/>
</linearGradient>
<radialGradient id="paint6_radial_4430_2552" cx="0" cy="0" r="1" gradientUnits="userSpaceOnUse" gradientTransform="translate(8.68555 8.35761) scale(0.439471 0.447633)">
<stop offset="0.2" stop-color="#F9F0AA"/>
<stop offset="1" stop-color="#B07E09"/>
</radialGradient>
<linearGradient id="paint7_linear_4430_2552" x1="8.87151" y1="8.25775" x2="9.00748" y2="7.95314" gradientUnits="userSpaceOnUse">
<stop offset="0.2" stop-color="#F9F0AA"/>
<stop offset="1" stop-color="#B07E09"/>
</linearGradient>
<linearGradient id="paint8_linear_4430_2552" x1="9.60847" y1="7.83428" x2="9.69964" y2="8.9772" gradientUnits="userSpaceOnUse">
<stop offset="0.2" stop-color="#F9F0AA"/>
<stop offset="1" stop-color="#B07E09"/>
</linearGradient>
<radialGradient id="paint9_radial_4430_2552" cx="0" cy="0" r="1" gradientUnits="userSpaceOnUse" gradientTransform="translate(9.76443 7.08026) scale(0.0101416 0.01033)">
<stop offset="0.3" stop-color="#A50A0A"/>
<stop offset="1" stop-color="#4C0505"/>
</radialGradient>
<radialGradient id="paint10_radial_4430_2552" cx="0" cy="0" r="1" gradientUnits="userSpaceOnUse" gradientTransform="translate(9.76366 7.07789) scale(0.010033 0.0105724)">
<stop stop-color="white"/>
<stop offset="1" stop-color="white" stop-opacity="0"/>
</radialGradient>
<clipPath id="clip0_4430_2552">
<rect width="20" height="20" fill="white"/>
</clipPath>
<clipPath id="clip1_4430_2552">
<rect width="26.6667" height="20" fill="white" transform="translate(-3.5)"/>
</clipPath>
</defs>
</svg>
