<svg width="20" height="20" viewBox="0 0 20 20" fill="none" xmlns="http://www.w3.org/2000/svg">
<g clip-path="url(#clip0_4479_622)">
<mask id="mask0_4479_622" style="mask-type:luminance" maskUnits="userSpaceOnUse" x="-3" y="0" width="27" height="20">
<path d="M23.6667 0H-3V20H23.6667V0Z" fill="white"/>
</mask>
<g mask="url(#mask0_4479_622)">
<path d="M-3 0H23.6667V6.6667H-3V0Z" fill="#FF0000"/>
<path d="M-3 6.66675H23.6667V13.3333H-3V6.66675Z" fill="white"/>
<path d="M-3 13.3333H23.6667V20H-3V13.3333Z" fill="#171796"/>
<mask id="mask1_4479_622" style="mask-type:luminance" maskUnits="userSpaceOnUse" x="7" y="6" width="7" height="8">
<path d="M7.1333 6.40002H13.5333V11.4C13.5333 12.8667 12.4666 13.6 10.3333 13.6C8.19997 13.6 7.1333 12.8667 7.1333 11.4V6.40002Z" fill="white"/>
</mask>
<g mask="url(#mask1_4479_622)">
<path d="M7.1333 6.40002H8.7333V7.84002H7.1333V6.40002Z" fill="#FF0000"/>
<path d="M8.7334 6.40002H10.3334V7.84002H8.7334V6.40002Z" fill="white"/>
<path d="M10.3335 6.40002H11.9335V7.84002H10.3335V6.40002Z" fill="#FF0000"/>
<path d="M11.9336 6.40002H13.5336V7.84002H11.9336V6.40002Z" fill="white"/>
<path d="M7.1333 7.83997H8.7333V9.27997H7.1333V7.83997Z" fill="white"/>
<path d="M8.7334 7.83997H10.3334V9.27997H8.7334V7.83997Z" fill="#FF0000"/>
<path d="M10.3335 7.83997H11.9335V9.27997H10.3335V7.83997Z" fill="white"/>
<path d="M11.9336 7.83997H13.5336V9.27997H11.9336V7.83997Z" fill="#FF0000"/>
<path d="M7.1333 9.28003H8.7333V10.72H7.1333V9.28003Z" fill="#FF0000"/>
<path d="M8.7334 9.28003H10.3334V10.72H8.7334V9.28003Z" fill="white"/>
<path d="M10.3335 9.28003H11.9335V10.72H10.3335V9.28003Z" fill="#FF0000"/>
<path d="M11.9336 9.28003H13.5336V10.72H11.9336V9.28003Z" fill="white"/>
<path d="M7.1333 10.72H8.7333V12.16H7.1333V10.72Z" fill="white"/>
<path d="M8.7334 10.72H10.3334V12.16H8.7334V10.72Z" fill="#FF0000"/>
<path d="M10.3335 10.72H11.9335V12.16H10.3335V10.72Z" fill="white"/>
<path d="M11.9336 10.72H13.5336V12.16H11.9336V10.72Z" fill="#FF0000"/>
<path d="M7.1333 12.16H8.7333V13.6H7.1333V12.16Z" fill="#FF0000"/>
<path d="M8.7334 12.16H10.3334V13.6H8.7334V12.16Z" fill="white"/>
<path d="M10.3335 12.16H11.9335V13.6H10.3335V12.16Z" fill="#FF0000"/>
<path d="M11.9336 12.16H13.5336V13.6H11.9336V12.16Z" fill="white"/>
</g>
</g>
</g>
<defs>
<clipPath id="clip0_4479_622">
<rect width="20" height="20" fill="white"/>
</clipPath>
</defs>
</svg>
