<svg width="20" height="20" viewBox="0 0 20 20" fill="none" xmlns="http://www.w3.org/2000/svg">
<g clip-path="url(#clip0_4430_2562)">
<g clip-path="url(#clip1_4430_2562)">
<path fill-rule="evenodd" clip-rule="evenodd" d="M-3 0H24V20H-3V0Z" fill="#00247D"/>
<path d="M17.6899 4.46619V5.09824L18.9698 4.46619H17.6899Z" fill="white"/>
<path d="M17.9459 5.22465L17.6899 4.71901L18.9698 4.46619L17.9459 5.22465Z" fill="white"/>
<path d="M17.6899 4.46619V5.09824L16.41 4.46619H17.6899Z" fill="white"/>
<path d="M17.434 5.22465L17.6899 4.71901L16.41 4.46619L17.434 5.22465Z" fill="white"/>
<path d="M18.0522 4.72815L17.446 4.92178L18.4502 5.93207L18.0522 4.72815Z" fill="white"/>
<path d="M17.4041 5.2014L17.8097 4.80562L18.4503 5.93235L17.4041 5.2014Z" fill="white"/>
<path d="M17.3247 4.72986L17.9309 4.92349L17.7226 3.52594L17.3247 4.72986Z" fill="white"/>
<path d="M18.1321 4.72168L17.5673 4.80757L17.7228 3.5259L18.1321 4.72168Z" fill="white"/>
<path d="M17.3271 4.72815L17.9334 4.92178L16.9292 5.93207L17.3271 4.72815Z" fill="white"/>
<path d="M17.9753 5.2014L17.5697 4.80562L16.9291 5.93235L17.9753 5.2014Z" fill="white"/>
<path d="M17.6895 4.59485V5.0125L18.5352 4.59485H17.6895Z" fill="#CC142B"/>
<path d="M17.8586 5.09604L17.6895 4.76191L18.5352 4.59485L17.8586 5.09604Z" fill="#CC142B"/>
<path d="M17.6895 4.59485V5.0125L16.8437 4.59485H17.6895Z" fill="#CC142B"/>
<path d="M17.5203 5.09604L17.6895 4.76191L16.8437 4.59485L17.5203 5.09604Z" fill="#CC142B"/>
<path d="M17.9292 4.76807L17.5286 4.89602L18.1921 5.56361L17.9292 4.76807Z" fill="#CC142B"/>
<path d="M17.5009 5.08079L17.7689 4.81926L18.1923 5.56379L17.5009 5.08079Z" fill="#CC142B"/>
<path d="M17.4482 4.76904L17.8488 4.89699L17.7112 3.9735L17.4482 4.76904Z" fill="#CC142B"/>
<path d="M17.9818 4.76372L17.6085 4.82048L17.7113 3.97356L17.9818 4.76372Z" fill="#CC142B"/>
<path d="M17.4497 4.76807L17.8503 4.89602L17.1868 5.56361L17.4497 4.76807Z" fill="#CC142B"/>
<path d="M17.878 5.08079L17.61 4.81926L17.1866 5.56379L17.878 5.08079Z" fill="#CC142B"/>
<path d="M21.0425 7.38513L21.0434 7.94579L19.9045 7.38332L21.0425 7.38513Z" fill="white"/>
<path d="M20.8161 8.05791L21.0429 7.60951L19.9047 7.38332L20.8161 8.05791Z" fill="white"/>
<path d="M13.7832 8.35059L13.7843 8.98063L15.062 8.35263L13.7832 8.35059Z" fill="white"/>
<path d="M14.0402 9.10744L13.7836 8.60274L15.0618 8.35263L14.0402 9.10744Z" fill="white"/>
<path d="M13.7817 8.35254L13.7828 8.98258L12.5029 8.3505L13.7817 8.35254Z" fill="white"/>
<path d="M13.5273 9.10858L13.7822 8.60469L12.5031 8.3505L13.5273 9.10858Z" fill="white"/>
<path d="M14.145 8.61255L13.5396 8.80564L14.5438 9.81701L14.145 8.61255Z" fill="white"/>
<path d="M13.4979 9.08529L13.9027 8.68981L14.544 9.81739L13.4979 9.08529Z" fill="white"/>
<path d="M13.418 8.6134L14.0254 8.80783L13.8147 7.41028L13.418 8.6134Z" fill="white"/>
<path d="M14.2264 8.60622L13.661 8.69131L13.8148 7.41026L14.2264 8.60622Z" fill="white"/>
<path d="M13.4189 8.61255L14.0264 8.80698L13.0222 9.81567L13.4189 8.61255Z" fill="white"/>
<path d="M14.0691 9.08655L13.6625 8.69033L13.0226 9.81582L14.0691 9.08655Z" fill="white"/>
<path d="M13.7832 8.47913L13.7839 8.89545L14.6282 8.48047L13.7832 8.47913Z" fill="#CC142B"/>
<path d="M13.953 8.97925L13.7835 8.64575L14.6281 8.48047L13.953 8.97925Z" fill="#CC142B"/>
<path d="M13.7827 8.48047L13.7834 8.8968L12.9377 8.47912L13.7827 8.48047Z" fill="#CC142B"/>
<path d="M13.6146 8.98006L13.783 8.64709L12.9378 8.47912L13.6146 8.98006Z" fill="#CC142B"/>
<path d="M14.0225 8.65234L13.6224 8.77993L14.286 9.44825L14.0225 8.65234Z" fill="#CC142B"/>
<path d="M13.5949 8.96473L13.8624 8.7034L14.2861 9.44849L13.5949 8.96473Z" fill="#CC142B"/>
<path d="M13.542 8.65295L13.9434 8.78143L13.8041 7.85794L13.542 8.65295Z" fill="#CC142B"/>
<path d="M14.0762 8.64812L13.7026 8.70435L13.8042 7.85784L14.0762 8.64812Z" fill="#CC142B"/>
<path d="M13.543 8.65222L13.9443 8.7807L13.2808 9.44724L13.543 8.65222Z" fill="#CC142B"/>
<path d="M13.9723 8.96544L13.7036 8.70362L13.2808 9.44733L13.9723 8.96544Z" fill="#CC142B"/>
<path d="M17.6899 14.4481V15.1498L19.1108 14.4481H17.6899Z" fill="white"/>
<path d="M17.9741 15.2901L17.6899 14.7288L19.1108 14.4481L17.9741 15.2901Z" fill="white"/>
<path d="M17.6899 14.4481V15.1498L16.2691 14.4481H17.6899Z" fill="white"/>
<path d="M17.4058 15.2901L17.6899 14.7288L16.2691 14.4481L17.4058 15.2901Z" fill="white"/>
<path d="M18.0928 14.7391L17.4198 14.9541L18.5345 16.0756L18.0928 14.7391Z" fill="white"/>
<path d="M17.3727 15.2645L17.823 14.8251L18.5342 16.076L17.3727 15.2645Z" fill="white"/>
<path d="M17.2842 14.741L17.9572 14.9559L17.7259 13.4045L17.2842 14.741Z" fill="white"/>
<path d="M18.1805 14.7319L17.5535 14.8272L17.7261 13.4044L18.1805 14.7319Z" fill="white"/>
<path d="M17.2871 14.7391L17.9601 14.9541L16.8454 16.0756L17.2871 14.7391Z" fill="white"/>
<path d="M18.0066 15.2645L17.5564 14.8251L16.8452 16.076L18.0066 15.2645Z" fill="white"/>
<path d="M17.6899 14.5769V15.0642L18.6767 14.5769H17.6899Z" fill="#CC142B"/>
<path d="M17.8873 15.1616L17.6899 14.7718L18.6767 14.5769L17.8873 15.1616Z" fill="#CC142B"/>
<path d="M17.6899 14.5769V15.0642L16.7032 14.5769H17.6899Z" fill="#CC142B"/>
<path d="M17.4926 15.1616L17.6899 14.7718L16.7032 14.5769L17.4926 15.1616Z" fill="#CC142B"/>
<path d="M17.9692 14.7788L17.5019 14.9281L18.276 15.7069L17.9692 14.7788Z" fill="#CC142B"/>
<path d="M17.4696 15.1437L17.7822 14.8385L18.2761 15.7072L17.4696 15.1437Z" fill="#CC142B"/>
<path d="M17.4082 14.7802L17.8756 14.9294L17.715 13.852L17.4082 14.7802Z" fill="#CC142B"/>
<path d="M18.0306 14.7738L17.5952 14.84L17.7151 13.8519L18.0306 14.7738Z" fill="#CC142B"/>
<path d="M17.4102 14.7788L17.8775 14.9281L17.1034 15.7069L17.4102 14.7788Z" fill="#CC142B"/>
<path d="M17.9098 15.1437L17.5972 14.8385L17.1033 15.7072L17.9098 15.1437Z" fill="#CC142B"/>
<path d="M-3 0H10.5V10H-3V0Z" fill="#012169"/>
<path d="M-1.41797 0L3.72891 3.77083L8.85469 0H10.5V1.29167L5.4375 5.02083L10.5 8.72917V10H8.8125L3.75 6.27083L-1.29141 10H-3V8.75L2.04141 5.04167L-3 1.33333V0H-1.41797Z" fill="white"/>
<path d="M5.94375 5.85417L10.5 9.16667V10L4.78359 5.85417H5.94375ZM2.0625 6.27083L2.18906 7L-1.86094 10H-3L2.0625 6.27083ZM10.5 0V0.0625L5.24766 3.97917L5.28984 3.0625L9.44531 0H10.5ZM-3 0L2.04141 3.66667H0.775781L-3 0.875V0Z" fill="#C8102E"/>
<path d="M2.08359 0V10H5.45859V0H2.08359ZM-3 3.33333V6.66667H10.5V3.33333H-3Z" fill="white"/>
<path d="M-3 4.02083V6.02083H10.5V4.02083H-3ZM2.75859 0V10H4.78359V0H2.75859Z" fill="#C8102E"/>
</g>
</g>
<defs>
<clipPath id="clip0_4430_2562">
<rect width="20" height="20" fill="white"/>
</clipPath>
<clipPath id="clip1_4430_2562">
<rect width="27" height="20" fill="white" transform="translate(-3)"/>
</clipPath>
</defs>
</svg>
