<svg width="20" height="20" viewBox="0 0 20 20" fill="none" xmlns="http://www.w3.org/2000/svg">
<g clip-path="url(#clip0_4430_2568)">
<g clip-path="url(#clip1_4430_2568)">
<mask id="mask0_4430_2568" style="mask-type:luminance" maskUnits="userSpaceOnUse" x="-4" y="0" width="28" height="20">
<path d="M-3.49854 0H23.1655V20H-3.49854V0Z" fill="white"/>
</mask>
<g mask="url(#mask0_4430_2568)">
<path fill-rule="evenodd" clip-rule="evenodd" d="M-5.1665 0H24.8335V20H-5.1665V0Z" fill="#165D31"/>
<path fill-rule="evenodd" clip-rule="evenodd" d="M2.39187 5.668C2.36062 6.13675 2.31375 6.95706 2.71609 7.043C3.19656 7.08988 2.93093 6.2305 3.10672 6.07425C3.13797 5.99613 3.19656 5.99613 3.20047 6.09378V6.82425C3.20047 7.05863 3.35672 7.12894 3.4739 7.17581C3.5989 7.168 3.68484 7.17581 3.73172 7.293L3.79422 8.55472C3.79422 8.55472 4.08328 8.64066 4.0989 7.84769C4.11062 7.37894 4.00515 6.99222 4.06765 6.90238C4.06765 6.81253 4.18484 6.80863 4.26297 6.8516C4.38797 6.93753 4.44265 7.04691 4.63797 7.00785C4.93484 6.92191 5.11453 6.77738 5.11844 6.55081C5.11257 6.32816 5.06624 6.10844 4.98172 5.90238C4.99734 5.86331 4.92703 5.75785 4.94265 5.71878C4.99344 5.80472 5.07547 5.79691 5.09109 5.71878C5.04031 5.55472 4.96219 5.39456 4.83719 5.32816C4.73172 5.23441 4.57547 5.25003 4.52468 5.44535C4.49343 5.668 4.60281 5.92972 4.76297 6.14847C4.79812 6.2305 4.845 6.37113 4.82547 6.49613C4.73692 6.543 4.65489 6.52738 4.57937 6.44925C4.57937 6.44925 4.345 6.27347 4.345 6.2305C4.4075 5.83206 4.35672 5.78519 4.32156 5.67191C4.29812 5.51956 4.2239 5.46878 4.16531 5.36722C4.10672 5.30472 4.02859 5.30472 3.98953 5.36722C3.88406 5.54691 3.93484 5.93363 4.00906 6.10941C4.06375 6.26956 4.14578 6.37113 4.10672 6.37113C4.07547 6.46097 4.00906 6.43753 3.95828 6.33206C3.90129 6.11007 3.87371 5.88155 3.87625 5.65238C3.85672 5.47269 3.83328 5.08988 3.71218 4.98831C3.64187 4.89456 3.5364 4.94144 3.49734 5.02738C3.48696 5.20188 3.49088 5.37695 3.50906 5.55081C3.58718 5.83988 3.61453 6.09769 3.65359 6.39066C3.66531 6.78519 3.42703 6.56253 3.43875 6.36331C3.48999 6.11286 3.48599 5.85425 3.42703 5.6055C3.38797 5.50394 3.345 5.4805 3.24734 5.49613C3.17312 5.49613 2.98172 5.70316 2.92703 6.05472C2.92703 6.05472 2.88015 6.23441 2.86062 6.39456C2.83328 6.57425 2.71609 6.70706 2.63015 6.37113C2.55984 6.12503 2.51297 5.52738 2.39578 5.668H2.39187Z" fill="white"/>
<path fill-rule="evenodd" clip-rule="evenodd" d="M3.70068 7.58594L2.45068 8.1875C2.4624 7.90234 3.04053 7.39062 3.43897 7.38672C3.69287 7.39062 3.63037 7.48437 3.69678 7.58594H3.70068Z" fill="white"/>
<path fill-rule="evenodd" clip-rule="evenodd" d="M3.47808 7.97652C2.82183 9.67574 5.02105 9.91402 5.26715 8.04684C5.29058 7.96871 5.38433 7.89449 5.39996 8.01949C5.34918 9.7109 3.69683 9.82418 3.41558 9.29293C3.3495 9.11011 3.31643 8.91701 3.31793 8.72262C3.27886 8.39059 3.10308 8.51949 3.07574 8.84762C3.0484 9.03121 3.05621 9.08199 3.05621 9.25777C3.14215 10.5937 5.27105 10.0195 5.61871 8.91793C5.8023 8.30855 5.58746 7.85934 5.68512 7.85934C5.89605 8.0859 6.19293 7.89059 6.25933 7.81246C6.28668 7.7734 6.35699 7.74605 6.40387 7.79684C6.56793 7.91402 6.85699 7.85934 6.91949 7.6523C6.95595 7.44397 6.97939 7.23303 6.9898 7.01949C6.85308 7.05855 6.75543 7.0859 6.74371 7.14449L6.71637 7.32418C6.70465 7.38277 6.59137 7.38277 6.58355 7.30855C6.53277 7.07418 6.32183 7.04684 6.19293 7.40621C6.1109 7.47652 5.95465 7.49215 5.93902 7.38668C5.95855 7.14449 5.8609 7.11324 5.66558 7.22652L5.47808 5.81246C5.55621 5.81246 5.63433 5.87105 5.70855 5.7773C5.63043 5.5234 5.45465 5.00777 5.35699 4.96871C5.31402 4.91402 5.27496 4.94918 5.21246 4.9648C5.1109 4.99605 5.01715 5.08199 5.0484 5.25387C5.16558 5.98824 5.24371 6.54684 5.3648 7.28512C5.38433 7.36715 5.31402 7.48043 5.22027 7.46871C5.06402 7.36324 5.02496 7.1484 4.75152 7.15621C4.55621 7.15621 4.33746 7.37105 4.31012 7.57418C4.27496 7.73824 4.26324 7.91402 4.31012 8.05465C4.44683 8.21871 4.6109 8.20309 4.75543 8.16793C4.87262 8.11715 4.97027 7.99996 5.01324 8.0273C5.04058 8.06246 5.01715 8.45309 4.45465 8.74996C4.1148 8.90621 3.84137 8.93746 3.69683 8.66012C3.60699 8.48434 3.70465 7.82418 3.47808 7.97652Z" fill="white"/>
<path fill-rule="evenodd" clip-rule="evenodd" d="M6.2789 6.25003C6.4078 6.20316 7.0328 5.48441 7.0328 5.48441L6.93905 5.40628C6.9052 5.37764 6.9052 5.34899 6.93905 5.32034C7.0953 5.22659 7.04452 5.03128 6.9664 4.93753C6.91311 4.91254 6.85487 4.89991 6.79603 4.90059C6.73718 4.90126 6.67924 4.91523 6.62655 4.94144C6.51718 5.04691 6.49374 5.21488 6.57968 5.31644C6.66171 5.3555 6.74374 5.44144 6.68905 5.48831C6.43124 5.76175 5.73202 6.23441 5.81405 6.25003C5.82968 6.27347 6.26327 6.27347 6.27499 6.25003H6.2789ZM2.48983 8.78909C2.25546 9.16409 2.23593 9.72269 2.36483 9.89066C2.43515 9.96878 2.54843 10.0039 2.63046 9.97659C2.7789 9.91409 2.8453 9.61331 2.81015 9.50784C2.76327 9.42972 2.7164 9.42061 2.66952 9.4805C2.56796 9.69144 2.52499 9.54691 2.51327 9.42972C2.50207 9.23126 2.51255 9.03216 2.54452 8.83597C2.57186 8.67191 2.54452 8.71878 2.48983 8.78909ZM12.5328 8.19144C12.3062 7.69925 11.9898 7.21488 11.8922 7.03128C11.5878 6.55006 11.2646 6.08095 10.9234 5.62503C10.6812 5.33597 11.3219 5.74613 10.8453 5.168L10.4976 4.87503C10.4195 4.82035 10.232 4.71878 10.2008 4.88285C10.1851 5.03128 10.193 5.10941 10.2164 5.2305C10.2359 5.30863 10.3531 5.44534 10.4117 5.52347C11.2125 6.5842 11.9159 7.71509 12.5133 8.90238C12.6148 8.85159 12.5914 8.27347 12.5328 8.19144Z" fill="white"/>
<path fill-rule="evenodd" clip-rule="evenodd" d="M11.5367 9.82422C11.4898 9.875 11.6461 10.0898 11.8492 10.0898C12.1851 10.0508 12.482 9.86329 12.7554 9.36329C12.8666 9.19696 12.9374 9.00705 12.9625 8.8086C12.9956 7.86032 12.9195 6.91139 12.7359 5.98047C12.7242 5.90235 12.7359 5.8086 12.7437 5.78516C12.7672 5.75782 12.8414 5.78516 12.8804 5.71875C12.939 5.66016 12.7242 5.17188 12.607 4.98829C12.5679 4.90235 12.5484 4.84766 12.4781 4.9961C12.3933 5.15989 12.3528 5.34306 12.3609 5.52735C12.5211 6.64063 12.5718 7.61329 12.6734 8.72657C12.6851 8.83594 12.6695 8.99219 12.5953 9.05469C12.3007 9.38304 11.9399 9.64531 11.5367 9.82422ZM16.0875 9.82032C15.8453 9.96094 15.8453 10.1211 16.0406 10.125C16.3765 10.0859 16.775 10.0586 17.0484 9.64454C17.145 9.44951 17.2008 9.23685 17.2125 9.01954C17.2616 8.08586 17.2 7.14965 17.0289 6.23047C17.0211 6.15235 16.9859 5.96875 16.9976 5.94532C17.0211 5.89063 17.1304 5.94922 17.1695 5.88672C17.2242 5.82813 16.8843 5.39063 16.7633 5.20313C16.7242 5.11719 16.7086 5.0625 16.6343 5.21094C16.5549 5.376 16.5302 5.56214 16.564 5.74219C16.7437 6.95313 16.8765 7.85938 16.9039 8.92969C16.8883 9.03125 16.8843 9.08594 16.8375 9.21485C16.732 9.34766 16.6148 9.51954 16.5054 9.60157C16.3961 9.67969 16.1617 9.75782 16.0875 9.82032Z" fill="white"/>
<path fill-rule="evenodd" clip-rule="evenodd" d="M16.267 8.73829C16.2696 8.45443 16.2683 8.20704 16.2631 7.9961C16.2605 7.81415 16.2206 7.63465 16.1459 7.46876C16.0756 7.3086 16.1185 7.17969 16.0834 7.00782C16.0521 6.83594 16.0599 6.57813 16.0131 6.37891C15.9974 6.30079 15.9584 6.04688 15.9701 6.01954C15.9896 5.96485 16.0638 6.01954 16.1029 5.95704C16.1576 5.89844 15.9076 5.25391 15.7826 5.07032C15.7396 4.98829 15.6537 5.01563 15.556 5.14844C15.4584 5.23829 15.4935 5.43751 15.5326 5.62891C15.7709 6.89063 15.9545 8.03516 15.9154 9.23438C15.8998 9.33594 16.267 8.92969 16.267 8.73829ZM14.4818 7.17579C14.3295 7.16797 14.0131 6.87501 13.9193 6.70704C13.904 6.66599 13.8974 6.62217 13.9001 6.57842C13.9028 6.53468 13.9147 6.49199 13.9349 6.45313C13.9935 6.41407 14.0795 6.37501 14.1459 6.41407C14.1459 6.41407 14.2123 6.50782 14.2006 6.51954C14.2787 6.5586 14.3177 6.53907 14.3256 6.50391C14.3295 6.44532 14.3021 6.41016 14.3021 6.34766C14.3373 6.16797 14.5365 6.14063 14.6146 6.25391C14.6693 6.32422 14.6927 6.46876 14.6967 6.56641C14.6967 6.61719 14.6185 6.5586 14.5677 6.56641C14.5248 6.58204 14.5131 6.63672 14.5092 6.6836C14.5013 6.81251 14.4857 7.01954 14.4818 7.17188V7.17579ZM11.6771 9.05079C11.7162 8.66797 11.6615 7.98438 11.6576 7.75782C11.6367 7.17515 11.5885 6.59378 11.5131 6.01563C11.4662 5.68751 11.6459 6.05079 11.6224 5.85938C11.5638 5.53516 11.3842 5.31251 11.1693 5.01954C11.1029 4.92188 11.1029 4.90235 10.9974 5.04297C10.8802 5.30469 10.9818 5.48829 11.0131 5.69532C11.1654 6.36719 11.2552 6.98438 11.2982 7.59766C11.3432 8.23474 11.3485 8.874 11.3138 9.51172C11.431 9.51563 11.6107 9.32813 11.6771 9.05079Z" fill="white"/>
<path fill-rule="evenodd" clip-rule="evenodd" d="M16.7867 8.43749C16.5172 7.98436 16.1148 7.49999 16.0055 7.31639C15.6433 6.81056 15.2628 6.31805 14.8648 5.83983C14.5328 5.48827 15.0211 5.78124 14.8023 5.5078C14.6187 5.30858 14.568 5.24217 14.4078 5.12108C14.3297 5.0703 14.2828 4.97264 14.2516 5.14061C14.2391 5.2861 14.2365 5.43227 14.2437 5.57811C14.2437 5.64452 14.3141 5.77342 14.3766 5.85155C15.1852 6.84764 16.0719 7.86327 16.7828 9.14061C16.8844 9.08983 16.8492 8.51561 16.7828 8.43749H16.7867Z" fill="white"/>
<path fill-rule="evenodd" clip-rule="evenodd" d="M4.62249 7.60549C4.60296 7.64065 4.55999 7.68362 4.57562 7.72658C4.60166 7.76304 4.63551 7.77997 4.67718 7.77737C4.72015 7.77737 4.78265 7.78908 4.79437 7.76565C4.82041 7.7344 4.82822 7.69143 4.81781 7.63674C4.77093 7.51955 4.64593 7.56643 4.62249 7.60549Z" fill="#165D31"/>
<path fill-rule="evenodd" clip-rule="evenodd" d="M13.6694 14.1602C14.0288 14.1758 14.2632 14.1797 14.5796 14.2149L14.9546 14.1758C15.3687 14.1367 15.3843 14.7656 15.3843 14.7656C15.3843 15.1367 15.2397 15.1563 15.0562 15.1953C14.9507 15.211 14.8999 15.1328 14.8413 15.0547C14.753 15.083 14.6589 15.0884 14.5679 15.0703L14.1187 15.0508C13.9624 15.0391 13.8765 15.0703 13.7163 15.0547C13.6851 15.1055 13.6382 15.1758 13.5444 15.1563C13.4663 15.1445 13.3687 14.9219 13.396 14.7461C13.4546 14.6211 13.4351 14.6641 13.4351 14.6094C11.9663 14.5703 10.4858 14.5039 9.04834 14.5235C7.92334 14.5274 6.81396 14.5742 5.70068 14.6211C5.10693 14.6133 4.65381 14.5195 4.34131 14.0625C4.37256 14.0625 5.85693 14.1445 6.29053 14.1172C7.09131 14.1094 7.82568 14.043 8.64209 14.0195C10.2515 14.0469 11.8491 14.0469 13.4585 14.1602C13.3022 14.0547 13.3022 13.8086 13.5366 13.7461C13.5562 13.7305 13.5679 13.8672 13.603 13.8633C13.7944 13.8516 13.7085 14.1094 13.6694 14.1602ZM7.20068 5.28517C6.9585 5.98048 7.34131 6.74611 7.60693 6.67189C7.80225 6.75002 7.91943 6.38283 7.99756 5.98439C8.05615 5.87111 8.09521 5.85939 8.12256 5.91798C8.11475 6.44923 8.16162 6.57033 8.29834 6.73048C8.60303 6.96486 8.85693 6.76173 8.87646 6.7422L9.11084 6.50392C9.16813 6.44663 9.23454 6.44272 9.31006 6.4922C9.38428 6.55861 9.37256 6.67189 9.52881 6.75002C9.66162 6.8047 9.93896 6.76564 10.0054 6.65236C10.0913 6.50002 10.1147 6.44923 10.1538 6.39455C10.2163 6.31252 10.3218 6.34767 10.3218 6.37502C10.3101 6.42189 10.2476 6.46486 10.2905 6.5508C10.3687 6.60548 10.3843 6.57033 10.4272 6.55861C10.5835 6.48048 10.7007 6.14455 10.7007 6.14455C10.7046 6.01955 10.6343 6.02736 10.5874 6.05861L10.4663 6.14064C10.3882 6.15236 10.2437 6.20314 10.1694 6.08986C10.0952 5.95705 10.0952 5.76564 10.0405 5.62892C10.0405 5.62111 9.93897 5.41408 10.0327 5.40236C10.0796 5.41017 10.1772 5.43752 10.1929 5.35549C10.2397 5.27345 10.0913 5.04298 9.98584 4.9258C9.896 4.82814 9.771 4.81642 9.6499 4.91798C9.56396 4.99611 9.57568 5.08205 9.56006 5.16408C9.54587 5.22291 9.54554 5.28423 9.55909 5.3432C9.57265 5.40218 9.59973 5.4572 9.63818 5.50392C9.72412 5.66798 9.87646 5.88283 9.82568 6.18752C9.82568 6.18752 9.73584 6.32814 9.57959 6.30861C9.51318 6.29689 9.40771 6.26955 9.35303 5.84767C9.31006 5.53517 9.36084 5.08986 9.22803 4.88283C9.17725 4.75392 9.14209 4.63283 9.0249 4.84767C8.99365 4.93361 8.85693 5.06252 8.95459 5.32423C9.047 5.56008 9.07399 5.81651 9.03271 6.06642C8.97412 6.15236 8.9624 6.1797 8.88818 6.26173C8.78662 6.37892 8.67334 6.34767 8.5874 6.3047C8.50928 6.25392 8.44678 6.22658 8.40771 6.0508C8.41553 5.77736 8.43115 5.32814 8.38037 5.23439C8.30615 5.08595 8.18506 5.14064 8.13428 5.18752C7.90243 5.44601 7.74691 5.7638 7.68506 6.10548C7.61475 6.33205 7.54053 6.26564 7.48975 6.1758C7.36475 6.05861 7.35303 5.13283 7.20068 5.28517Z" fill="white"/>
<path fill-rule="evenodd" clip-rule="evenodd" d="M7.93494 6.80083C8.04822 6.72271 7.99744 6.66802 8.1615 6.83208C8.37327 7.20677 8.49621 7.62506 8.52088 8.05474C8.51307 8.1563 8.58338 8.2188 8.61854 8.19536C8.63416 7.96099 9.20838 7.63286 9.73572 7.58599C9.81385 7.56646 9.77479 7.41411 9.7865 7.33599C9.75525 7.04302 9.95057 6.7774 10.224 6.75786C10.599 6.81255 10.724 7.01177 10.7318 7.31255C10.6888 7.89849 10.0795 7.99615 9.73963 8.04302C9.68885 8.06255 9.66541 8.08599 9.73963 8.11333L11.1693 8.12115L11.2435 8.16021C11.2513 8.19927 11.2201 8.16802 11.1654 8.26177C11.0873 8.40016 11.0381 8.553 11.0209 8.71099C10.5951 8.85161 10.1537 8.9063 9.70838 8.9649C9.55213 9.04302 9.474 9.14849 9.50525 9.26568C9.55994 9.39458 9.90369 9.5274 9.90369 9.5313C9.9701 9.57036 10.0443 9.66802 9.88416 9.86724C9.18885 9.83599 8.64588 9.53911 8.45838 9.12115C8.40369 9.07818 8.34119 9.12115 8.30213 9.17583C8.02869 9.5274 7.76307 9.83989 7.29822 10.0118C7.02479 10.0821 6.73963 9.9688 6.60682 9.78911C6.51697 9.68365 6.52088 9.57036 6.48963 9.54693C6.33729 9.61333 5.04822 10.1602 5.21229 9.9024C5.52479 9.57036 6.07166 9.32036 6.54822 8.99224C6.58338 8.87896 6.64588 8.50396 6.83338 8.38286C6.8451 8.38286 6.80604 8.60161 6.80994 8.69536C6.80994 8.77349 6.80213 8.80083 6.81775 8.7813C6.85291 8.76177 7.43104 8.30474 7.48182 8.16411C7.5365 8.08599 7.49354 7.88286 7.49354 7.87505C7.38416 7.5938 7.23182 7.57036 7.17713 7.42974C7.12635 7.24615 7.14979 7.03521 7.25525 6.97271C7.35161 6.89198 7.45447 6.89849 7.56385 6.99224C7.68104 7.09771 7.7826 7.30474 7.81385 7.45708C7.79432 7.51568 7.6576 7.41802 7.61854 7.44536C7.69372 7.53177 7.74372 7.63716 7.76307 7.75005C7.84119 8.07036 7.81775 8.19536 7.73963 8.4024C7.48182 8.94536 7.15369 9.10552 6.86463 9.30865C6.85682 9.30865 6.85291 9.44536 6.95838 9.51958C6.99744 9.55865 7.14979 9.57818 7.32557 9.51958C7.70036 9.31006 8.00377 8.99304 8.19666 8.60943C8.22985 8.31699 8.19783 8.02083 8.10291 7.74224C7.98963 7.48052 7.85682 7.10943 7.85682 7.10161C7.85291 6.93755 7.86463 6.88286 7.93494 6.80083ZM4.19275 5.29302C4.35682 5.37115 4.66932 5.33599 4.65369 5.07036L4.64588 4.94927C4.61463 4.87115 4.52088 4.89068 4.50135 4.9688C4.49354 4.99615 4.51307 5.03911 4.48963 5.05083C4.474 5.06646 4.42322 5.05865 4.42322 4.98443C4.42062 4.95839 4.4115 4.93755 4.39588 4.92193C4.39067 4.91672 4.37895 4.91411 4.36072 4.91411C4.33729 4.91411 4.33729 4.91802 4.32557 4.93755L4.31385 5.00005C4.31124 5.02349 4.30083 5.03651 4.2826 5.03911C4.25916 5.03911 4.26307 5.03911 4.24354 5.0313C4.23312 5.02349 4.22661 5.01047 4.224 4.99224L4.21229 4.92974C4.20447 4.91932 4.19145 4.91151 4.17322 4.9063C4.08338 4.9063 4.07557 5.01177 4.08338 5.05083C4.07557 5.05865 4.07166 5.24224 4.19275 5.29302Z" fill="white"/>
<path fill-rule="evenodd" clip-rule="evenodd" d="M9.01699 7.332C9.18105 7.41012 9.57558 7.36715 9.47792 7.11325L9.47011 6.98825C9.43495 6.91012 9.34511 6.92965 9.32558 7.01169C9.31777 7.03512 9.3373 7.07809 9.30995 7.08981C9.29824 7.10544 9.24355 7.09762 9.24745 7.02731C9.24485 7.00127 9.23574 6.97913 9.22011 6.9609C9.2123 6.9557 9.19928 6.95309 9.18105 6.95309C9.16152 6.95309 9.16152 6.9609 9.1498 6.98044C9.14199 6.99866 9.13808 7.0195 9.13808 7.04294C9.13287 7.06377 9.12115 7.07679 9.10292 7.082C9.08339 7.082 9.0873 7.082 9.07167 7.07028C9.05865 7.06247 9.05084 7.05075 9.04823 7.03512L9.03652 6.97262C9.0287 6.9596 9.01568 6.95179 8.99745 6.94919C8.90761 6.94919 8.8998 7.05075 8.9037 7.08981C8.8998 7.09762 8.89589 7.28512 9.02089 7.332H9.01699ZM11.8295 6.48825C11.9935 6.56637 12.3021 6.53122 12.2904 6.2695L12.2826 6.1445C12.2475 6.06637 12.1576 6.0859 12.1381 6.16403C12.1303 6.19137 12.1498 6.23434 12.1225 6.24997C12.1107 6.26169 12.056 6.25387 12.06 6.17965C12.0573 6.15361 12.0482 6.13278 12.0326 6.11715C12.0248 6.11195 12.0118 6.10934 11.9935 6.10934C11.9753 6.10934 11.9649 6.11846 11.9623 6.13669L11.9506 6.19528C11.948 6.22132 11.9363 6.23434 11.9154 6.23434C11.8842 6.23434 11.8998 6.23434 11.8842 6.22653C11.8712 6.21872 11.8633 6.207 11.8607 6.19137C11.8607 6.16533 11.8568 6.1432 11.849 6.12497C11.8386 6.11455 11.8256 6.10804 11.81 6.10544C11.7201 6.10544 11.7123 6.207 11.7162 6.24606C11.7123 6.25387 11.7084 6.43747 11.8334 6.48825H11.8295ZM13.2865 8.60934C13.0014 8.93356 13.1264 9.46872 13.1928 9.5859C13.2865 9.7734 13.3607 9.8945 13.5443 9.98825C13.7123 10.1093 13.8451 10.0351 13.9154 9.94919C14.0834 9.7734 14.0873 9.32419 14.1654 9.23825C14.2201 9.07419 14.3607 9.10153 14.4271 9.17575C14.4899 9.26339 14.573 9.33445 14.6693 9.38278C14.8256 9.5195 15.0131 9.54684 15.2006 9.42184C15.3256 9.34762 15.4076 9.25778 15.4818 9.07419C15.56 8.85544 15.5209 7.83981 15.5014 7.23825L15.3373 6.3984C15.3373 6.39059 15.3178 5.99997 15.2982 5.91012C15.2982 5.87106 15.2865 5.85934 15.3256 5.86325C15.3685 5.90231 15.3725 5.90231 15.4037 5.91403C15.4428 5.92184 15.4818 5.84762 15.4545 5.78512L15.0639 5.05856C15.0326 5.02731 14.9896 4.99606 14.9389 5.06637C14.9083 5.09299 14.884 5.12608 14.8678 5.16324C14.8516 5.2004 14.8438 5.2407 14.8451 5.28122L14.8959 5.80075L15.0521 6.68356C15.1029 7.30856 15.1146 7.82419 15.1654 8.45309C15.1576 8.71872 15.0756 8.94919 14.9975 8.98434C14.9975 8.98434 14.8803 9.05075 14.8021 8.97653C14.7435 8.95309 14.5131 8.58981 14.5131 8.58981C14.3959 8.48434 14.3178 8.51169 14.2357 8.58981C14.0014 8.81637 13.8998 9.23044 13.7396 9.5195C13.7006 9.5859 13.5834 9.63669 13.4584 9.51559C13.1381 9.07419 13.3256 8.44919 13.2865 8.60934ZM11.9037 4.94919C12.0521 5.00778 12.1537 5.30856 12.1225 5.457C12.0912 5.63278 12.0131 5.82809 11.9584 5.80465C11.8959 5.78122 11.9975 5.62497 11.9389 5.4609C11.9076 5.35153 11.7045 5.15622 11.7279 5.10153C11.6889 4.98044 11.8139 4.92575 11.9037 4.94528V4.94919Z" fill="white"/>
<path fill-rule="evenodd" clip-rule="evenodd" d="M13.7633 8.78905C13.7906 8.42967 13.7398 8.21092 13.732 7.99998C13.7242 7.78905 13.4938 6.17967 13.4469 6.02342C13.3883 5.71873 13.6695 5.98436 13.6383 5.80467C13.5406 5.58592 13.3023 5.2617 13.2281 5.0703C13.1813 4.99217 13.2008 4.91405 13.0992 5.05077C13.0113 5.29037 12.9806 5.54718 13.0094 5.80077C13.2516 7.06248 13.4977 8.10936 13.4586 9.30858C13.5758 9.30858 13.7047 9.04686 13.7633 8.78905ZM16.2789 5.45701C16.4156 5.52342 16.4938 5.89842 16.4781 6.00389C16.4508 6.1992 16.3805 6.41014 16.3297 6.3828C16.2711 6.35936 16.3414 6.09373 16.3141 6.0117C16.2828 5.89451 16.0992 5.68358 16.1188 5.62108C16.0797 5.48826 16.1969 5.43358 16.2789 5.45701ZM6.29063 8.10936C6.41953 8.16014 6.49766 8.43358 6.48594 8.5117C6.45469 8.65623 6.38828 8.81248 6.3375 8.78905C6.28672 8.77342 6.34922 8.57811 6.32578 8.51561C6.31407 8.37108 6.13438 8.29295 6.13828 8.23045C6.10703 8.11326 6.21641 8.09373 6.29453 8.10936H6.29063Z" fill="white"/>
<path fill-rule="evenodd" clip-rule="evenodd" d="M9.40007 8.52344C9.56413 8.53125 9.64616 8.66406 9.49382 8.71875C9.33757 8.76953 9.19303 8.8125 9.18913 9.03125C9.24772 9.34375 9.111 9.23438 9.03288 9.19531C8.93913 9.125 8.6735 8.96094 8.63444 8.60938C8.63053 8.52734 8.69694 8.45312 8.80241 8.45312C8.95866 8.49609 9.19303 8.5 9.40007 8.52344Z" fill="#165D31"/>
<path fill-rule="evenodd" clip-rule="evenodd" d="M2.8567 4.8594C3.0442 4.91409 3.05591 5.19534 3.0442 5.27737C3.01685 5.42581 2.95045 5.58597 2.90357 5.56643C2.84888 5.5469 2.90357 5.34378 2.87623 5.28128C2.84888 5.19534 2.68873 5.03128 2.70435 4.9844C2.6692 4.88675 2.78248 4.83987 2.8567 4.8594ZM6.60279 6.1719C6.45435 6.25003 6.39966 6.4844 6.48951 6.62503C6.57545 6.74222 6.70826 6.69925 6.72388 6.69925C6.86841 6.71487 6.95435 6.42972 6.95435 6.42972C6.95435 6.42972 6.95826 6.35159 6.79029 6.50393C6.71607 6.51565 6.71216 6.48831 6.69263 6.44925C6.67475 6.37488 6.68161 6.29671 6.71216 6.22659C6.73951 6.15628 6.68482 6.12503 6.60279 6.1719ZM7.69654 4.75003C7.61841 4.80081 7.47388 4.95315 7.46998 5.12503C7.46607 5.22268 7.44654 5.22268 7.50904 5.28128C7.55982 5.35159 7.60279 5.34768 7.69654 5.2969C7.72006 5.28238 7.74023 5.26304 7.75572 5.24014C7.77121 5.21725 7.78166 5.19133 7.78638 5.16409C7.80982 5.05472 7.6692 5.21878 7.65357 5.09378C7.62232 4.97659 7.71216 4.92972 7.7981 4.82034C7.7981 4.74222 7.7981 4.69143 7.69263 4.75003H7.69654ZM8.57154 4.90628C8.53721 5.04854 8.51629 5.19371 8.50904 5.33987C8.4856 5.44925 8.62623 5.49612 8.68482 5.3555C8.77857 5.10159 8.77857 4.99222 8.78638 4.88675C8.75904 4.71878 8.64576 4.72268 8.57154 4.90628ZM14.1184 7.7305C14.134 7.71097 14.8997 7.168 14.8997 7.168C14.9778 7.14065 14.9583 7.44925 14.9231 7.44534C14.6856 7.67407 14.4125 7.86272 14.1145 8.00393C14.0754 8.03128 14.0403 7.7969 14.1145 7.7305H14.1184ZM14.8098 7.72268C14.9465 7.78909 15.0012 8.18362 14.9856 8.28909C14.9856 8.50003 14.8567 8.66409 14.802 8.64065C14.7473 8.61331 14.8098 8.37893 14.7825 8.2969C14.7512 8.17972 14.6379 7.96487 14.6575 7.90237C14.6184 7.76956 14.7278 7.69925 14.8137 7.72268H14.8098ZM10.2786 9.418C10.3419 9.34404 10.4156 9.27957 10.4973 9.22659C10.5754 9.18753 10.6458 9.25784 10.6419 9.25393C10.6536 9.33206 10.595 9.39847 10.6145 9.50003C10.6301 9.53909 10.6419 9.58597 10.7161 9.57034C10.8372 9.47268 10.9504 9.46487 11.0676 9.46097C11.1653 9.46487 11.1692 9.62503 11.1067 9.62503C10.884 9.6719 10.7864 9.7344 10.6262 9.793C10.5481 9.83987 10.4856 9.78128 10.4856 9.77737C10.4856 9.77347 10.4426 9.7344 10.47 9.63284C10.4778 9.54951 10.4465 9.51045 10.3762 9.51565C10.3294 9.5469 10.2825 9.56253 10.259 9.50393C10.2434 9.46748 10.2499 9.43883 10.2786 9.418ZM15.6145 9.62893C15.6458 9.668 15.6692 9.70706 15.6106 9.77737L15.4661 9.90237C15.4426 9.94143 15.427 10.0117 15.5051 10.0313C15.6458 10.0703 15.9739 9.8555 15.9739 9.85159C16.0286 9.81253 16.0129 9.7344 16.0051 9.7344C15.9739 9.69925 15.9036 9.72268 15.8567 9.71487C15.8333 9.71487 15.759 9.70706 15.7942 9.63675C15.8206 9.60236 15.8417 9.56416 15.8567 9.52347C15.8801 9.4792 15.8541 9.44404 15.7786 9.418C15.6965 9.40237 15.6614 9.41018 15.5715 9.418C15.5299 9.42321 15.5051 9.45315 15.4973 9.50784C15.5012 9.59768 15.5559 9.59378 15.6145 9.62503V9.62893Z" fill="white"/>
<path fill-rule="evenodd" clip-rule="evenodd" d="M10.306 7.41017C10.2864 7.44924 10.2161 7.44924 10.1497 7.41017C10.0833 7.37111 10.0443 7.30861 10.0677 7.27345C10.0911 7.2383 10.1575 7.2383 10.2239 7.27345C10.2903 7.30861 10.3255 7.37502 10.306 7.41017ZM6.82941 5.31642C6.79035 5.32814 6.73566 5.29299 6.71222 5.2383C6.68878 5.18361 6.7005 5.13674 6.73956 5.12502C6.77863 5.1133 6.82941 5.15236 6.85675 5.20314C6.8841 5.25392 6.86847 5.30861 6.8255 5.32033L6.82941 5.31642ZM13.7083 14.6485C14.0755 14.6641 14.4193 14.6485 14.7825 14.668C14.8489 14.7266 14.8021 14.8633 14.7591 14.8555L14.4544 14.8438C14.4505 14.7266 14.1536 14.7461 14.1614 14.8477C14.0013 14.8672 13.8568 14.8438 13.6927 14.836C13.6458 14.7774 13.6536 14.6719 13.7083 14.6485Z" fill="#165D31"/>
</g>
</g>
</g>
<defs>
<clipPath id="clip0_4430_2568">
<rect width="20" height="20" fill="white"/>
</clipPath>
<clipPath id="clip1_4430_2568">
<rect width="26.6667" height="20" fill="white" transform="translate(-3.5)"/>
</clipPath>
</defs>
</svg>
