<svg width="20" height="20" viewBox="0 0 20 20" fill="none" xmlns="http://www.w3.org/2000/svg">
<g clip-path="url(#clip0_4430_2550)">
<g clip-path="url(#clip1_4430_2550)">
<path d="M-3.5 0H23.1667V20H-3.5V0Z" fill="#012169"/>
<path d="M-0.375 0L9.79167 7.54167L19.9167 0H23.1667V2.58333L13.1667 10.0417L23.1667 17.4583V20H19.8333L9.83333 12.5417L-0.125 20H-3.5V17.5L6.45833 10.0833L-3.5 2.66667V0H-0.375Z" fill="white"/>
<path d="M14.1667 11.7083L23.1667 18.3333V20L11.875 11.7083H14.1667ZM6.5 12.5417L6.75 14L-1.25 20H-3.5L6.5 12.5417ZM23.1667 0V0.125L12.7917 7.95833L12.875 6.125L21.0833 0H23.1667ZM-3.5 0L6.45833 7.33333H3.95833L-3.5 1.75V0Z" fill="#C8102E"/>
<path d="M6.54167 0V20H13.2083V0H6.54167ZM-3.5 6.66667V13.3333H23.1667V6.66667H-3.5Z" fill="white"/>
<path d="M-3.5 8.04167V12.0417H23.1667V8.04167H-3.5ZM7.875 0V20H11.875V0H7.875Z" fill="#C8102E"/>
</g>
</g>
<defs>
<clipPath id="clip0_4430_2550">
<rect width="20" height="20" fill="white"/>
</clipPath>
<clipPath id="clip1_4430_2550">
<rect width="26.6667" height="20" fill="white" transform="translate(-3.5)"/>
</clipPath>
</defs>
</svg>
