<svg width="20" height="20" viewBox="0 0 20 20" fill="none" xmlns="http://www.w3.org/2000/svg">
<g clip-path="url(#clip0_4430_2490)">
<g clip-path="url(#clip1_4430_2490)">
<path d="M-3.5 0H23.1667V20H-3.5V0Z" fill="#74ACDF"/>
<path d="M-3.5 6.66663H23.1667V13.3333H-3.5V6.66663Z" fill="white"/>
<path d="M9.70508 10.0521L10.8451 12.5321C10.8451 12.5321 10.8651 12.5801 10.8971 12.5681C10.9291 12.5521 10.9091 12.5041 10.9091 12.5041L9.96108 9.94409M9.93308 10.9121C9.91708 11.2881 10.1491 11.4961 10.1211 11.8321C10.0931 12.1681 10.2731 12.3601 10.3211 12.4921C10.3611 12.6241 10.2731 12.7001 10.3091 12.7201C10.3491 12.7401 10.4291 12.6361 10.4051 12.4481C10.3811 12.2601 10.2371 12.2081 10.2691 11.7961C10.3011 11.3841 10.1011 11.2881 10.1491 10.9161" fill="#F6B40E"/>
<path d="M9.70508 10.0521L10.8451 12.5321C10.8451 12.5321 10.8651 12.5801 10.8971 12.5681C10.9291 12.5521 10.9091 12.5041 10.9091 12.5041L9.96108 9.94409M9.93308 10.9121C9.91708 11.2881 10.1491 11.4961 10.1211 11.8321C10.0931 12.1681 10.2731 12.3601 10.3211 12.4921C10.3611 12.6241 10.2731 12.7001 10.3091 12.7201C10.3491 12.7401 10.4291 12.6361 10.4051 12.4481C10.3811 12.2601 10.2371 12.2081 10.2691 11.7961C10.3011 11.3841 10.1011 11.2881 10.1491 10.9161" stroke="#85340A" stroke-width="1.056"/>
<path d="M9.695 9.99907L9.79917 12.7266C9.79917 12.7266 9.79928 12.7786 9.83343 12.7797C9.86912 12.7772 9.86901 12.7252 9.86901 12.7252L9.97284 9.99726M9.57654 10.8809C9.41786 11.2221 9.55261 11.5031 9.39816 11.8028C9.24371 12.1025 9.33653 12.3487 9.33036 12.4891C9.3168 12.6263 9.20642 12.6629 9.23202 12.6951C9.26132 12.7289 9.37503 12.6634 9.4248 12.4806C9.47458 12.2977 9.36144 12.1945 9.54867 11.8262C9.7359 11.4578 9.58786 11.2925 9.77456 10.9672" fill="#F6B40E"/>
<path d="M9.695 9.99907L9.79917 12.7266C9.79917 12.7266 9.79928 12.7786 9.83343 12.7797C9.86912 12.7772 9.86901 12.7252 9.86901 12.7252L9.97284 9.99726M9.57654 10.8809C9.41786 11.2221 9.55261 11.5031 9.39816 11.8028C9.24371 12.1025 9.33653 12.3487 9.33036 12.4891C9.3168 12.6263 9.20642 12.6629 9.23202 12.6951C9.26132 12.7289 9.37503 12.6634 9.4248 12.4806C9.47458 12.2977 9.36144 12.1945 9.54867 11.8262C9.7359 11.4578 9.58786 11.2925 9.77456 10.9672" stroke="#85340A" stroke-width="1.056"/>
<path d="M9.70586 9.94624L8.75834 12.506C8.75834 12.506 8.73854 12.5541 8.76965 12.5682C8.80359 12.5795 8.82339 12.5314 8.82339 12.5314L9.96325 10.0509M9.25897 10.7156C8.98178 10.9701 8.99875 11.2813 8.74137 11.499C8.48398 11.7168 8.47549 11.9799 8.4161 12.1072C8.35104 12.2288 8.23508 12.2203 8.24639 12.2599C8.26053 12.3023 8.39064 12.2853 8.50661 12.1354C8.62257 11.9855 8.55752 11.8469 8.87147 11.5782C9.18543 11.3095 9.11189 11.1002 9.40887 10.8711" fill="#F6B40E"/>
<path d="M9.70586 9.94624L8.75834 12.506C8.75834 12.506 8.73854 12.5541 8.76965 12.5682C8.80359 12.5795 8.82339 12.5314 8.82339 12.5314L9.96325 10.0509M9.25897 10.7156C8.98178 10.9701 8.99875 11.2813 8.74137 11.499C8.48398 11.7168 8.47549 11.9799 8.4161 12.1072C8.35104 12.2288 8.23508 12.2203 8.24639 12.2599C8.26053 12.3023 8.39064 12.2853 8.50661 12.1354C8.62257 11.9855 8.55752 11.8469 8.87147 11.5782C9.18543 11.3095 9.11189 11.1002 9.40887 10.8711" stroke="#85340A" stroke-width="1.056"/>
<path d="M9.73616 9.90168L7.8812 11.904C7.8812 11.904 7.8445 11.9408 7.86784 11.9658C7.89486 11.9892 7.93156 11.9524 7.93156 11.9524L9.9339 10.0969M9.02887 10.4414C8.67537 10.5705 8.57199 10.8645 8.25085 10.9672C7.92971 11.0699 7.82121 11.3097 7.71763 11.4045C7.61098 11.492 7.50709 11.4398 7.50239 11.4807C7.49922 11.5253 7.62592 11.5594 7.79042 11.4653C7.95493 11.3712 7.94786 11.2183 8.34075 11.0901C8.73363 10.962 8.74579 10.7405 9.10784 10.6425" fill="#F6B40E"/>
<path d="M9.73616 9.90168L7.8812 11.904C7.8812 11.904 7.8445 11.9408 7.86784 11.9658C7.89486 11.9892 7.93156 11.9524 7.93156 11.9524L9.9339 10.0969M9.02887 10.4414C8.67537 10.5705 8.57199 10.8645 8.25085 10.9672C7.92971 11.0699 7.82121 11.3097 7.71763 11.4045C7.61098 11.492 7.50709 11.4398 7.50239 11.4807C7.49922 11.5253 7.62592 11.5594 7.79042 11.4653C7.95493 11.3712 7.94786 11.2183 8.34075 11.0901C8.73363 10.962 8.74579 10.7405 9.10784 10.6425" stroke="#85340A" stroke-width="1.056"/>
<path d="M10.005 10.9761C10.025 11.3361 10.229 11.4961 10.189 11.8281C10.277 11.5681 10.065 11.3641 10.077 10.9801M9.76904 10.0281L10.549 11.7321L9.89704 9.97607" fill="#85340A"/>
<path d="M9.61856 10.9676C9.49927 11.3078 9.62651 11.5337 9.4625 11.8251C9.6433 11.6186 9.52551 11.349 9.68354 10.9988M9.7633 10.0014L9.83184 11.8742L9.90146 10.0024" fill="#85340A"/>
<path d="M9.26495 10.8119C9.02453 11.0806 9.05564 11.3379 8.7926 11.5444C9.03867 11.4228 9.03302 11.1286 9.31303 10.8656M9.76841 9.97464L9.11504 11.7311L9.89569 10.0284" fill="#85340A"/>
<path d="M8.99749 10.5325C8.67255 10.6887 8.60279 10.9384 8.28076 11.0285C8.55464 11.0103 8.66198 10.7364 9.02135 10.6005M9.78301 9.95166L8.50722 11.3244L9.88004 10.05" fill="#85340A"/>
<path d="M9.78165 9.87195L7.30165 11.0119C7.30165 11.0119 7.25365 11.0319 7.26565 11.0639C7.28165 11.0959 7.32965 11.0759 7.32965 11.0759L9.88965 10.1279M8.92165 10.0999C8.54565 10.0839 8.33765 10.3159 8.00165 10.2879C7.66565 10.2599 7.47365 10.4399 7.34165 10.4879C7.20965 10.5279 7.13365 10.4399 7.11365 10.4759C7.09365 10.5159 7.19765 10.5959 7.38565 10.5719C7.57365 10.5479 7.62565 10.4039 8.03765 10.4359C8.44965 10.4679 8.54565 10.2679 8.91765 10.3159" fill="#F6B40E"/>
<path d="M9.78165 9.87195L7.30165 11.0119C7.30165 11.0119 7.25365 11.0319 7.26565 11.0639C7.28165 11.0959 7.32965 11.0759 7.32965 11.0759L9.88965 10.1279M8.92165 10.0999C8.54565 10.0839 8.33765 10.3159 8.00165 10.2879C7.66565 10.2599 7.47365 10.4399 7.34165 10.4879C7.20965 10.5279 7.13365 10.4399 7.11365 10.4759C7.09365 10.5159 7.19765 10.5959 7.38565 10.5719C7.57365 10.5479 7.62565 10.4039 8.03765 10.4359C8.44965 10.4679 8.54565 10.2679 8.91765 10.3159" stroke="#85340A" stroke-width="1.056"/>
<path d="M9.8343 9.86187L7.10682 9.96604C7.10682 9.96604 7.05482 9.96615 7.05366 10.0003C7.0562 10.036 7.1082 10.0359 7.1082 10.0359L9.83611 10.1397M8.95252 9.74341C8.61126 9.58473 8.33031 9.71948 8.0306 9.56503C7.73089 9.41058 7.48463 9.5034 7.3443 9.49723C7.20705 9.48367 7.17051 9.37329 7.13825 9.39889C7.10447 9.42819 7.16994 9.5419 7.35281 9.59167C7.53568 9.64145 7.63883 9.52831 8.00722 9.71554C8.37562 9.90277 8.54085 9.75473 8.86616 9.94143" fill="#F6B40E"/>
<path d="M9.8343 9.86187L7.10682 9.96604C7.10682 9.96604 7.05482 9.96615 7.05366 10.0003C7.0562 10.036 7.1082 10.0359 7.1082 10.0359L9.83611 10.1397M8.95252 9.74341C8.61126 9.58473 8.33031 9.71948 8.0306 9.56503C7.73089 9.41058 7.48463 9.5034 7.3443 9.49723C7.20704 9.48367 7.17051 9.37329 7.13825 9.39889C7.10447 9.42819 7.16994 9.5419 7.35281 9.59167C7.53568 9.64145 7.63883 9.52831 8.00722 9.71554C8.37562 9.90277 8.54085 9.75473 8.86616 9.94143" stroke="#85340A" stroke-width="1.056"/>
<path d="M9.88701 9.87273L7.32729 8.92521C7.32729 8.92521 7.2792 8.90541 7.26506 8.93652C7.25374 8.97046 7.30183 8.99026 7.30183 8.99026L9.78236 10.1301M9.11768 9.42584C8.86312 9.14865 8.55199 9.16562 8.3342 8.90824C8.11642 8.65085 7.85337 8.64236 7.72609 8.58297C7.60447 8.51791 7.61296 8.40195 7.57336 8.41326C7.53093 8.4274 7.5479 8.55751 7.69781 8.67348C7.84772 8.78944 7.98631 8.72439 8.25501 9.03834C8.52371 9.3523 8.73301 9.27876 8.96212 9.57574" fill="#F6B40E"/>
<path d="M9.88701 9.87273L7.32729 8.92521C7.32729 8.92521 7.2792 8.90541 7.26506 8.93652C7.25374 8.97046 7.30183 8.99026 7.30183 8.99026L9.78236 10.1301M9.11768 9.42584C8.86312 9.14865 8.55199 9.16562 8.3342 8.90824C8.11642 8.65085 7.85337 8.64236 7.72609 8.58297C7.60447 8.51791 7.61296 8.40195 7.57336 8.41326C7.53093 8.4274 7.5479 8.55751 7.69781 8.67348C7.84772 8.78944 7.98631 8.72439 8.25501 9.03834C8.52371 9.3523 8.73301 9.27876 8.96212 9.57574" stroke="#85340A" stroke-width="1.056"/>
<path d="M9.93181 9.90291L7.92954 8.04795C7.92954 8.04795 7.89269 8.01125 7.86772 8.03458C7.84428 8.06161 7.88112 8.0983 7.88112 8.0983L9.73663 10.1007M9.39206 9.19562C9.26296 8.84212 8.96902 8.73874 8.8663 8.4176C8.76359 8.09646 8.52382 7.98796 8.42896 7.88437C8.34149 7.77773 8.39371 7.67384 8.35279 7.66914C8.30818 7.66597 8.27407 7.79266 8.36819 7.95717C8.46231 8.12167 8.61525 8.11461 8.74335 8.50749C8.87145 8.90038 9.09296 8.91253 9.19097 9.27459" fill="#F6B40E"/>
<path d="M9.93181 9.90291L7.92954 8.04794C7.92954 8.04794 7.89269 8.01125 7.86772 8.03458C7.84428 8.06161 7.88112 8.0983 7.88112 8.0983L9.73663 10.1007M9.39206 9.19562C9.26296 8.84212 8.96902 8.73874 8.8663 8.4176C8.76359 8.09646 8.52382 7.98796 8.42896 7.88437C8.34149 7.77773 8.39371 7.67384 8.35279 7.66914C8.30818 7.66597 8.27407 7.79266 8.36819 7.95717C8.46231 8.12167 8.61525 8.11461 8.74335 8.50749C8.87145 8.90038 9.09296 8.91253 9.19097 9.27459" stroke="#85340A" stroke-width="1.056"/>
<path d="M8.85742 10.172C8.49742 10.192 8.33742 10.396 8.00542 10.356C8.26542 10.444 8.46942 10.232 8.85342 10.244M9.80542 9.93604L8.10142 10.716L9.85742 10.064" fill="#85340A"/>
<path d="M8.86569 9.78543C8.52544 9.66614 8.29955 9.79338 8.00813 9.62937C8.21466 9.81017 8.48426 9.69238 8.83444 9.85041M9.83184 9.93017L7.95906 9.99871L9.8309 10.0683" fill="#85340A"/>
<path d="M9.02152 9.43145C8.75282 9.19103 8.49544 9.22215 8.28896 8.9591C8.41058 9.20518 8.70474 9.19952 8.96778 9.47953M9.85874 9.93491L8.10228 9.28154L9.805 10.0622" fill="#85340A"/>
<path d="M9.30114 9.16411C9.14489 8.83917 8.89519 8.76942 8.8051 8.44738C8.82329 8.72127 9.09722 8.82861 9.23309 9.18797M9.88196 9.94964L8.50924 8.67384L9.7836 10.0467" fill="#85340A"/>
<path d="M9.96143 9.94791L8.82143 7.46791C8.82143 7.46791 8.80142 7.41991 8.76942 7.43191C8.73742 7.44791 8.75743 7.49591 8.75743 7.49591L9.70542 10.0559M9.73343 9.08791C9.74943 8.71191 9.51742 8.50391 9.54542 8.16791C9.57342 7.83191 9.39342 7.63991 9.34542 7.50791C9.30542 7.37591 9.39343 7.29991 9.35743 7.27991C9.31743 7.25991 9.23743 7.36391 9.26143 7.55191C9.28543 7.73991 9.42943 7.79191 9.39743 8.20391C9.36543 8.61591 9.56543 8.71191 9.51743 9.08391" fill="#F6B40E"/>
<path d="M9.96143 9.94791L8.82143 7.46791C8.82143 7.46791 8.80142 7.41991 8.76942 7.43191C8.73742 7.44791 8.75743 7.49591 8.75743 7.49591L9.70542 10.0559M9.73343 9.08791C9.74943 8.71191 9.51742 8.50391 9.54542 8.16791C9.57342 7.83191 9.39342 7.63991 9.34542 7.50791C9.30542 7.37591 9.39343 7.29991 9.35743 7.27991C9.31743 7.25991 9.23743 7.36391 9.26143 7.55191C9.28543 7.73991 9.42943 7.79191 9.39743 8.20391C9.36543 8.61591 9.56543 8.71191 9.51743 9.08391" stroke="#85340A" stroke-width="1.056"/>
<path d="M9.97151 10.0009L9.86734 7.27345C9.86734 7.27345 9.86723 7.22145 9.83307 7.22029C9.79739 7.22283 9.79749 7.27483 9.79749 7.27483L9.69366 10.0027M10.09 9.11914C10.2486 8.77789 10.1139 8.49694 10.2683 8.19723C10.4228 7.89752 10.33 7.65125 10.3361 7.51093C10.3497 7.37367 10.4601 7.33713 10.4345 7.30488C10.4052 7.27109 10.2915 7.33656 10.2417 7.51943C10.1919 7.70231 10.3051 7.80546 10.1178 8.17385C9.93061 8.54224 10.0786 8.70747 9.89194 9.03279" fill="#F6B40E"/>
<path d="M9.97151 10.0009L9.86734 7.27345C9.86734 7.27345 9.86723 7.22145 9.83307 7.22029C9.79739 7.22283 9.79749 7.27483 9.79749 7.27483L9.69366 10.0027M10.09 9.11914C10.2486 8.77789 10.1139 8.49694 10.2683 8.19723C10.4228 7.89752 10.33 7.65125 10.3361 7.51093C10.3497 7.37367 10.4601 7.33713 10.4345 7.30488C10.4052 7.27109 10.2915 7.33656 10.2417 7.51943C10.1919 7.70231 10.3051 7.80546 10.1178 8.17385C9.93061 8.54224 10.0786 8.70747 9.89194 9.03279" stroke="#85340A" stroke-width="1.056"/>
<path d="M9.96064 10.0538L10.9082 7.49403C10.9082 7.49403 10.928 7.44595 10.8969 7.43181C10.8629 7.42049 10.8431 7.46858 10.8431 7.46858L9.70326 9.94911M10.4075 9.28443C10.6847 9.02987 10.6678 8.71874 10.9251 8.50095C11.1825 8.28316 11.191 8.02012 11.2504 7.89284C11.3155 7.77122 11.4314 7.7797 11.4201 7.74011C11.406 7.69768 11.2759 7.71465 11.1599 7.86456C11.0439 8.01446 11.109 8.15306 10.795 8.42176C10.4811 8.69046 10.5546 8.89976 10.2576 9.12886" fill="#F6B40E"/>
<path d="M9.96064 10.0538L10.9082 7.49403C10.9082 7.49403 10.928 7.44595 10.8969 7.43181C10.8629 7.42049 10.8431 7.46858 10.8431 7.46858L9.70326 9.94911M10.4075 9.28443C10.6847 9.02987 10.6678 8.71874 10.9251 8.50095C11.1825 8.28316 11.191 8.02012 11.2504 7.89284C11.3155 7.77122 11.4314 7.7797 11.4201 7.74011C11.406 7.69768 11.2759 7.71465 11.1599 7.86456C11.0439 8.01446 11.109 8.15306 10.795 8.42176C10.4811 8.69046 10.5546 8.89976 10.2576 9.12886" stroke="#85340A" stroke-width="1.056"/>
<path d="M9.93035 10.0983L11.7853 8.09604C11.7853 8.09604 11.822 8.05919 11.7987 8.03422C11.7716 8.01078 11.7349 8.04763 11.7349 8.04763L9.7326 9.90313M10.6376 9.55857C10.9911 9.42946 11.0945 9.13552 11.4157 9.03281C11.7368 8.93009 11.8453 8.69032 11.9489 8.59546C12.0555 8.50799 12.1594 8.56021 12.1641 8.5193C12.1673 8.47469 12.0406 8.44058 11.8761 8.53469C11.7116 8.62881 11.7186 8.78175 11.3258 8.90985C10.9329 9.03795 10.9207 9.25947 10.5587 9.35748" fill="#F6B40E"/>
<path d="M9.93035 10.0983L11.7853 8.09604C11.7853 8.09604 11.822 8.05919 11.7987 8.03422C11.7716 8.01078 11.7349 8.04763 11.7349 8.04763L9.7326 9.90313M10.6376 9.55857C10.9911 9.42946 11.0945 9.13552 11.4157 9.03281C11.7368 8.93009 11.8453 8.69032 11.9489 8.59546C12.0555 8.50799 12.1594 8.56021 12.1641 8.5193C12.1673 8.47469 12.0406 8.44058 11.8761 8.53469C11.7116 8.62881 11.7186 8.78175 11.3258 8.90985C10.9329 9.03795 10.9207 9.25947 10.5587 9.35748" stroke="#85340A" stroke-width="1.056"/>
<path d="M9.66146 9.02393C9.64146 8.66393 9.43746 8.50393 9.47746 8.17193C9.38946 8.43193 9.60146 8.63593 9.58946 9.01993M9.89746 9.97193L9.11746 8.26793L9.76946 10.0239" fill="#85340A"/>
<path d="M10.0479 9.03244C10.1672 8.69219 10.04 8.4663 10.204 8.17488C10.0232 8.38141 10.141 8.65101 9.98296 9.00119M9.9032 9.99859L9.83467 8.12581L9.76504 9.99765" fill="#85340A"/>
<path d="M10.4016 9.18815C10.642 8.91945 10.6109 8.66206 10.8739 8.45559C10.6278 8.57721 10.6335 8.87137 10.3535 9.13441M9.8981 10.0254L10.5515 8.26891L9.77082 9.97162" fill="#85340A"/>
<path d="M10.669 9.46752C10.994 9.31127 11.0637 9.06157 11.3857 8.97148C11.1119 8.98967 11.0045 9.2636 10.6452 9.39947M9.88349 10.0483L11.1593 8.67562L9.78647 9.94998" fill="#85340A"/>
<path d="M9.88534 10.1281L12.3653 8.98805C12.3653 8.98805 12.4133 8.96805 12.4013 8.93605C12.3853 8.90405 12.3373 8.92405 12.3373 8.92405L9.77734 9.87205M10.7453 9.90005C11.1213 9.91605 11.3293 9.68405 11.6653 9.71205C12.0013 9.74005 12.1933 9.56005 12.3253 9.51205C12.4573 9.47205 12.5333 9.56005 12.5533 9.52405C12.5733 9.48405 12.4693 9.40405 12.2813 9.42805C12.0933 9.45205 12.0413 9.59605 11.6293 9.56405C11.2173 9.53205 11.1213 9.73205 10.7493 9.68405" fill="#F6B40E"/>
<path d="M9.88534 10.1281L12.3653 8.98805C12.3653 8.98805 12.4133 8.96805 12.4013 8.93605C12.3853 8.90405 12.3373 8.92405 12.3373 8.92405L9.77734 9.87205M10.7453 9.90005C11.1213 9.91605 11.3293 9.68405 11.6653 9.71205C12.0013 9.74005 12.1933 9.56005 12.3253 9.51205C12.4573 9.47205 12.5333 9.56005 12.5533 9.52405C12.5733 9.48405 12.4693 9.40405 12.2813 9.42805C12.0933 9.45205 12.0413 9.59605 11.6293 9.56405C11.2173 9.53205 11.1213 9.73205 10.7493 9.68405" stroke="#85340A" stroke-width="1.056"/>
<path d="M9.83269 10.1381L12.5602 10.034C12.5602 10.034 12.6122 10.0339 12.6133 9.9997C12.6108 9.96401 12.5588 9.96412 12.5588 9.96412L9.83088 9.86029M10.7145 10.2566C11.0557 10.4153 11.3367 10.2805 11.6364 10.435C11.9361 10.5894 12.1824 10.4966 12.3227 10.5028C12.4599 10.5163 12.4965 10.6267 12.5287 10.6011C12.5625 10.5718 12.4971 10.4581 12.3142 10.4083C12.1313 10.3586 12.0282 10.4717 11.6598 10.2845C11.2914 10.0972 11.1261 10.2453 10.8008 10.0586" fill="#F6B40E"/>
<path d="M9.83269 10.1381L12.5602 10.034C12.5602 10.034 12.6122 10.0339 12.6133 9.9997C12.6108 9.96401 12.5588 9.96412 12.5588 9.96412L9.83088 9.86029M10.7145 10.2566C11.0557 10.4153 11.3367 10.2805 11.6364 10.435C11.9361 10.5894 12.1824 10.4966 12.3227 10.5028C12.4599 10.5163 12.4965 10.6267 12.5287 10.6011C12.5625 10.5718 12.4971 10.4581 12.3142 10.4083C12.1313 10.3586 12.0282 10.4717 11.6598 10.2845C11.2914 10.0972 11.1261 10.2453 10.8008 10.0586" stroke="#85340A" stroke-width="1.056"/>
<path d="M9.77998 10.1273L12.3397 11.0748C12.3397 11.0748 12.3878 11.0946 12.4019 11.0635C12.4132 11.0295 12.3652 11.0097 12.3652 11.0097L9.88463 9.86988M10.5493 10.5742C10.8039 10.8513 11.115 10.8344 11.3328 11.0918C11.5506 11.3492 11.8136 11.3576 11.9409 11.417C12.0625 11.4821 12.054 11.5981 12.0936 11.5867C12.1361 11.5726 12.1191 11.4425 11.9692 11.3265C11.8193 11.2106 11.6807 11.2756 11.412 10.9617C11.1433 10.6477 10.934 10.7212 10.7049 10.4243" fill="#F6B40E"/>
<path d="M9.77998 10.1273L12.3397 11.0748C12.3397 11.0748 12.3878 11.0946 12.4019 11.0635C12.4132 11.0295 12.3652 11.0097 12.3652 11.0097L9.88463 9.86988M10.5493 10.5742C10.8039 10.8513 11.115 10.8344 11.3328 11.0918C11.5506 11.3492 11.8136 11.3576 11.9409 11.417C12.0625 11.4821 12.054 11.5981 12.0936 11.5867C12.1361 11.5726 12.1191 11.4425 11.9692 11.3265C11.8193 11.2106 11.6807 11.2756 11.412 10.9617C11.1433 10.6477 10.934 10.7212 10.7049 10.4243" stroke="#85340A" stroke-width="1.056"/>
<path d="M9.73518 10.0971L11.7375 11.9521C11.7375 11.9521 11.7743 11.9887 11.7993 11.9654C11.8227 11.9384 11.7859 11.9017 11.7859 11.9017L9.93036 9.89935M10.2749 10.8044C10.404 11.1579 10.698 11.2613 10.8007 11.5824C10.9034 11.9035 11.1432 12.012 11.238 12.1156C11.3255 12.2223 11.2733 12.3262 11.3142 12.3309C11.3588 12.334 11.3929 12.2073 11.2988 12.0428C11.2047 11.8783 11.0517 11.8854 10.9236 11.4925C10.7955 11.0996 10.574 11.0875 10.476 10.7254" fill="#F6B40E"/>
<path d="M9.73518 10.0971L11.7375 11.9521C11.7375 11.9521 11.7743 11.9887 11.7993 11.9654C11.8227 11.9384 11.7859 11.9017 11.7859 11.9017L9.93036 9.89935M10.2749 10.8044C10.404 11.1579 10.698 11.2613 10.8007 11.5824C10.9034 11.9035 11.1432 12.012 11.238 12.1156C11.3255 12.2223 11.2733 12.3262 11.3142 12.3309C11.3588 12.334 11.3929 12.2073 11.2988 12.0428C11.2047 11.8783 11.0517 11.8854 10.9236 11.4925C10.7955 11.0996 10.574 11.0875 10.476 10.7254" stroke="#85340A" stroke-width="1.056"/>
<path d="M10.8096 9.82797C11.1696 9.80797 11.3296 9.60396 11.6616 9.64396C11.4016 9.55596 11.1976 9.76796 10.8136 9.75596M9.86157 10.064L11.5656 9.28396L9.80957 9.93596" fill="#85340A"/>
<path d="M10.8013 10.2146C11.1416 10.3339 11.3674 10.2066 11.6589 10.3706C11.4523 10.1898 11.1827 10.3076 10.8326 10.1496M9.83515 10.0698L11.7079 10.0013L9.83609 9.93167" fill="#85340A"/>
<path d="M10.6455 10.5686C10.9142 10.809 11.1716 10.7779 11.378 11.0409C11.2564 10.7948 10.9623 10.8005 10.6992 10.5205M9.80825 10.0651L11.5647 10.7185L9.86199 9.93781" fill="#85340A"/>
<path d="M10.3659 10.8359C10.5221 11.1608 10.7718 11.2306 10.8619 11.5526C10.8437 11.2787 10.5698 11.1714 10.4339 10.812M9.78504 10.0504L11.1578 11.3262L9.88339 9.95334" fill="#85340A"/>
<path d="M9.8332 11.1125C10.4476 11.1125 10.9457 10.6144 10.9457 9.99995C10.9457 9.38553 10.4476 8.88745 9.8332 8.88745C9.21879 8.88745 8.7207 9.38553 8.7207 9.99995C8.7207 10.6144 9.21879 11.1125 9.8332 11.1125Z" fill="#F6B40E" stroke="#85340A" stroke-width="1.4"/>
<path d="M10.2085 9.76245C10.1377 9.76245 10.0627 9.79578 10.021 9.86245C10.1043 9.94162 10.296 9.94578 10.4252 9.85412C10.3979 9.82515 10.3649 9.80207 10.3284 9.78631C10.2918 9.77054 10.2525 9.76242 10.2127 9.76245H10.2085ZM10.2085 9.77912C10.2835 9.77912 10.3543 9.81245 10.3627 9.84578C10.2793 9.94162 10.1418 9.92912 10.0543 9.86245C10.0988 9.8069 10.1516 9.77912 10.2127 9.77912H10.2085Z" fill="#843511"/>
<path d="M10.2251 9.70837C10.1126 9.70837 10.0876 9.73337 10.0376 9.77921C9.98763 9.82087 9.95846 9.81254 9.9543 9.82087C9.9418 9.82921 9.9543 9.85421 9.9668 9.84587C9.98624 9.84032 10.021 9.8181 10.071 9.77921C10.146 9.72087 10.1751 9.73754 10.2251 9.73754C10.3793 9.73754 10.4626 9.86254 10.4793 9.85421C10.5001 9.84587 10.396 9.70837 10.2251 9.70837Z" fill="#85340A"/>
<path d="M10.5332 9.76254C10.3374 9.5917 10.0874 9.56254 9.94987 9.6917C9.91821 9.73336 9.89679 9.78189 9.88737 9.83337C9.8707 9.93337 9.89987 10.0375 9.97487 10.1459L9.94154 10.1625C9.87487 10.032 9.85265 9.90142 9.87487 9.77087L9.89987 9.67503C10.0874 9.52087 10.3457 9.50837 10.5332 9.75837V9.76254Z" fill="#85340A"/>
<path d="M10.2083 9.92087C10.2497 9.92087 10.2833 9.8873 10.2833 9.84587C10.2833 9.80445 10.2497 9.77087 10.2083 9.77087C10.1669 9.77087 10.1333 9.80445 10.1333 9.84587C10.1333 9.8873 10.1669 9.92087 10.2083 9.92087Z" fill="#85340A"/>
<path d="M10.4292 9.89582C10.2834 10.0083 10.1375 9.99998 10.0542 9.94998C9.97087 9.89582 9.97087 9.87915 9.98753 9.87915C10.0042 9.87915 10.0209 9.89582 10.0875 9.93332C10.1584 9.96665 10.2584 9.96665 10.4292 9.89582Z" fill="#85340A"/>
<path d="M9.66647 10.1542C9.65489 10.1569 9.64413 10.1624 9.63508 10.1701C9.62602 10.1778 9.61893 10.1875 9.61439 10.1985C9.60985 10.2095 9.60799 10.2214 9.60896 10.2333C9.60994 10.2452 9.61372 10.2566 9.61999 10.2667C9.62626 10.2768 9.63485 10.2853 9.64504 10.2914C9.65523 10.2976 9.66674 10.3012 9.67861 10.302C9.69047 10.3028 9.70236 10.3008 9.71329 10.2961C9.72422 10.2914 9.73388 10.2842 9.74147 10.275C9.76895 10.2921 9.8008 10.3007 9.83314 10.3H9.84147C9.86925 10.3 9.90119 10.2917 9.9373 10.275C9.95119 10.2945 9.97203 10.3042 9.9998 10.3042C10.0197 10.3058 10.0394 10.2995 10.0547 10.2866C10.0699 10.2737 10.0794 10.2553 10.0811 10.2354C10.0827 10.2155 10.0764 10.1958 10.0635 10.1806C10.0506 10.1653 10.0322 10.1558 10.0123 10.1542C10.0345 10.1625 10.0456 10.1792 10.0456 10.2042C10.0456 10.2174 10.0404 10.2302 10.031 10.2395C10.0216 10.2489 10.0089 10.2542 9.99564 10.2542C9.98238 10.2542 9.96966 10.2489 9.96028 10.2395C9.95091 10.2302 9.94564 10.2174 9.94564 10.2042C9.93576 10.2247 9.92045 10.2422 9.90135 10.2547C9.88226 10.2672 9.86011 10.2742 9.8373 10.275C9.81523 10.2735 9.79395 10.2661 9.77565 10.2537C9.75734 10.2412 9.74268 10.2241 9.73314 10.2042C9.73036 10.2347 9.7123 10.2514 9.67897 10.2542C9.65119 10.2514 9.63453 10.2347 9.62897 10.2042C9.62064 10.1583 9.64147 10.1625 9.6623 10.1542H9.66647ZM9.7498 10.3792C9.6623 10.3792 9.6248 10.4625 9.5498 10.5083C9.59147 10.4917 9.6248 10.4583 9.6873 10.425C9.7498 10.3917 9.79564 10.4333 9.83314 10.4333C9.87064 10.4333 9.91647 10.3917 9.97897 10.425L10.1165 10.5083C10.0373 10.4583 10.004 10.3833 9.91647 10.3833C9.89703 10.3833 9.86925 10.3917 9.83314 10.4083L9.7498 10.3792Z" fill="#85340A"/>
<path d="M9.71686 10.4834C9.68631 10.4834 9.63908 10.4917 9.5752 10.5084C9.72936 10.4751 9.7627 10.5292 9.83353 10.5292C9.9002 10.5292 9.9377 10.4751 10.0877 10.5084C9.92103 10.4584 9.88353 10.4917 9.83353 10.4917C9.8002 10.4917 9.7752 10.4792 9.71686 10.4834Z" fill="#85340A"/>
<path d="M9.58314 10.5083H9.5498C9.72897 10.5291 9.64564 10.6333 9.83314 10.6333C10.0206 10.6333 9.9373 10.5291 10.1165 10.5083C9.92897 10.4916 9.9873 10.6041 9.83314 10.6041C9.6873 10.6041 9.73314 10.5083 9.58314 10.5083Z" fill="#85340A"/>
<path d="M9.98753 10.7875C9.98753 10.7466 9.97129 10.7074 9.94238 10.6785C9.91347 10.6495 9.87425 10.6333 9.83337 10.6333C9.79248 10.6333 9.75327 10.6495 9.72435 10.6785C9.69544 10.7074 9.6792 10.7466 9.6792 10.7875C9.68734 10.7527 9.707 10.7217 9.73499 10.6995C9.76298 10.6773 9.79765 10.6652 9.83337 10.6652C9.86909 10.6652 9.90376 10.6773 9.93174 10.6995C9.95973 10.7217 9.97939 10.7527 9.98753 10.7875Z" fill="#85340A"/>
<path d="M9.1416 9.76254C9.33743 9.5917 9.58743 9.56254 9.72493 9.6917C9.7566 9.73336 9.77801 9.78189 9.78743 9.83337C9.8041 9.93337 9.77493 10.0375 9.69993 10.1459L9.73327 10.1625C9.79994 10.032 9.82216 9.90142 9.79994 9.77087L9.77494 9.67503C9.58744 9.52087 9.3291 9.50837 9.1416 9.75837V9.76254Z" fill="#85340A"/>
<path d="M9.45016 9.70837C9.56266 9.70837 9.58766 9.73337 9.63766 9.77921C9.68766 9.82087 9.71683 9.81254 9.721 9.82087C9.7335 9.82921 9.721 9.85421 9.7085 9.84587C9.68905 9.84032 9.65433 9.8181 9.60433 9.77921C9.52933 9.72087 9.50016 9.73754 9.45016 9.73754C9.296 9.73754 9.21267 9.86254 9.196 9.85421C9.17517 9.84587 9.27933 9.70837 9.45016 9.70837Z" fill="#85340A"/>
<path d="M9.44189 9.76245C9.37106 9.76245 9.29606 9.79578 9.25439 9.86245C9.33773 9.94162 9.5294 9.94578 9.65856 9.85412C9.63127 9.82515 9.59834 9.80207 9.56179 9.78631C9.52525 9.77054 9.48586 9.76242 9.44606 9.76245H9.44189ZM9.44189 9.77912C9.51689 9.77912 9.58773 9.81245 9.59606 9.84578C9.51273 9.94162 9.37523 9.92912 9.28773 9.86245C9.33217 9.8069 9.38495 9.77912 9.44606 9.77912H9.44189Z" fill="#843511"/>
<path d="M9.45439 9.92087C9.49582 9.92087 9.52939 9.8873 9.52939 9.84587C9.52939 9.80445 9.49582 9.77087 9.45439 9.77087C9.41297 9.77087 9.37939 9.80445 9.37939 9.84587C9.37939 9.8873 9.41297 9.92087 9.45439 9.92087Z" fill="#85340A"/>
<path d="M9.24561 9.89582C9.39144 10.0083 9.53727 9.99998 9.62061 9.94998C9.70394 9.89582 9.70394 9.87915 9.68727 9.87915C9.67061 9.87915 9.65394 9.89582 9.58727 9.93332C9.51644 9.96665 9.41644 9.96665 9.24561 9.89582Z" fill="#85340A"/>
</g>
</g>
<defs>
<clipPath id="clip0_4430_2490">
<rect width="20" height="20" fill="white"/>
</clipPath>
<clipPath id="clip1_4430_2490">
<rect width="26.6667" height="20" fill="white" transform="translate(-3.5)"/>
</clipPath>
</defs>
</svg>
