<svg width="20" height="20" viewBox="0 0 20 20" fill="none" xmlns="http://www.w3.org/2000/svg">
<g clip-path="url(#clip0_4430_2569)">
<g clip-path="url(#clip1_4430_2569)">
<mask id="mask0_4430_2569" style="mask-type:luminance" maskUnits="userSpaceOnUse" x="0" y="0" width="27" height="20">
<path d="M0 0H27V20H0V0Z" fill="white"/>
</mask>
<g mask="url(#mask0_4430_2569)">
<path fill-rule="evenodd" clip-rule="evenodd" d="M-0.84375 0H29.5312V20H-0.84375V0Z" fill="white"/>
<path fill-rule="evenodd" clip-rule="evenodd" d="M-0.84375 0H29.5312V10H-0.84375V0Z" fill="#DF0000"/>
<path fill-rule="evenodd" clip-rule="evenodd" d="M6.15931 1.67505C5.36019 1.84466 4.64449 2.28064 4.13237 2.9098C3.62024 3.53896 3.34288 4.32299 3.34683 5.13025C3.35079 5.9375 3.63583 6.71884 4.15411 7.34307C4.67238 7.9673 5.39232 8.39642 6.19306 8.55838C5.73434 8.68948 5.25393 8.72985 4.77938 8.67717C4.30483 8.6245 3.84548 8.47982 3.42766 8.25142C3.00985 8.02303 2.6418 7.71542 2.34462 7.34624C2.04744 6.97706 1.82697 6.55356 1.69587 6.10005C1.43547 5.18842 1.55113 4.21204 2.01756 3.3844C2.48399 2.55676 3.26324 1.94518 4.18493 1.68338C4.85993 1.49171 5.48431 1.48755 6.16353 1.67505H6.15931Z" fill="white"/>
<path fill-rule="evenodd" clip-rule="evenodd" d="M5.61113 4.5833L5.81785 5.2083L5.26941 4.82497L4.72941 5.21663L4.9277 4.5833L4.3877 4.1958L5.05848 4.18747L5.26941 3.56247L5.48035 4.18747H6.14691L5.61113 4.5833ZM6.34941 6.74997L6.56035 7.37913L6.01191 6.9958L5.4677 7.3833L5.67019 6.75413L5.1302 6.36247L5.80098 6.3583L6.00769 5.72913L6.21863 6.35413H6.89363L6.34941 6.74997ZM8.81738 6.7333L9.0241 7.36663L8.47566 6.97913L7.93566 7.36663L8.13395 6.73747L7.59395 6.34997L8.26473 6.34163L8.47566 5.71663L8.6866 6.34163H9.35316L8.81738 6.7333ZM9.55144 4.5833L9.75816 5.21247L9.20973 4.82913L8.66973 5.21663L8.87223 4.58747L8.32801 4.1958L9.00301 4.19163L9.20551 3.56247L9.41644 4.18747H10.0914L9.55144 4.5833ZM7.59816 3.15413L7.8091 3.78747L7.26066 3.39997L6.71644 3.79163L6.91895 3.1583L6.37894 2.76663L7.04551 2.76247L7.25645 2.1333L7.46738 2.7583H8.14238L7.59816 3.15413Z" fill="white"/>
</g>
</g>
</g>
<defs>
<clipPath id="clip0_4430_2569">
<rect width="20" height="20" fill="white"/>
</clipPath>
<clipPath id="clip1_4430_2569">
<rect width="27" height="20" fill="white"/>
</clipPath>
</defs>
</svg>
