<svg width="20" height="20" viewBox="0 0 20 20" fill="none" xmlns="http://www.w3.org/2000/svg">
<g clip-path="url(#clip0_4430_2577)">
<g clip-path="url(#clip1_4430_2577)">
<path d="M24 0H-3V20H24V0Z" fill="#BD3D44"/>
<path d="M24 1.53833H-3V3.07666H24V1.53833Z" fill="white"/>
<path d="M24 4.6167H-3V6.15503H24V4.6167Z" fill="white"/>
<path d="M24 7.69165H-3V9.22998H24V7.69165Z" fill="white"/>
<path d="M24 10.7709H-3V12.3092H24V10.7709Z" fill="white"/>
<path d="M24 13.8458H-3V15.3842H24V13.8458Z" fill="white"/>
<path d="M24 16.925H-3V18.4634H24V16.925Z" fill="white"/>
<path d="M12.39 0H-3V10.7708H12.39V0Z" fill="#192F5D"/>
<path d="M0.83916 0.458374L1.21885 1.58337L0.248535 0.875041H1.42979L0.459473 1.58337L0.83916 0.458374Z" fill="white"/>
<path d="M3.4124 0.458374L3.79209 1.58337L2.82178 0.875041H4.00303L3.03271 1.58337L3.4124 0.458374Z" fill="white"/>
<path d="M5.98613 0.458374L6.36582 1.58337L5.39551 0.875041H6.57676L5.60645 1.58337L5.98613 0.458374Z" fill="white"/>
<path d="M8.55937 0.458374L8.93906 1.58337L7.96875 0.875041H9.15L8.17969 1.58337L8.55937 0.458374Z" fill="white"/>
<path d="M11.0906 0.458374L11.4703 1.58337L10.5 0.875041H11.6812L10.7109 1.58337L11.0906 0.458374Z" fill="white"/>
<path d="M-0.426465 1.54163L-0.0467773 2.66663L-1.01709 1.95829H0.16416L-0.806152 2.66663L-0.426465 1.54163Z" fill="white"/>
<path d="M2.14678 1.54163L2.52646 2.66663L1.55615 1.95829H2.7374L1.76709 2.66663L2.14678 1.54163Z" fill="white"/>
<path d="M4.72051 1.54163L5.1002 2.66663L4.12988 1.95829H5.31113L4.34082 2.66663L4.72051 1.54163Z" fill="white"/>
<path d="M7.25176 1.54163L7.63145 2.66663L6.66113 1.95829H7.84238L6.87207 2.66663L7.25176 1.54163Z" fill="white"/>
<path d="M9.825 1.54163L10.2047 2.66663L9.23438 1.95829H10.4156L9.44531 2.66663L9.825 1.54163Z" fill="white"/>
<path d="M0.83916 2.625L1.21885 3.75L0.248535 3.04167H1.42979L0.459473 3.75L0.83916 2.625Z" fill="white"/>
<path d="M3.4124 2.625L3.79209 3.75L2.82178 3.04167H4.00303L3.03271 3.75L3.4124 2.625Z" fill="white"/>
<path d="M5.98613 2.625L6.36582 3.75L5.39551 3.04167H6.57676L5.60645 3.75L5.98613 2.625Z" fill="white"/>
<path d="M8.55937 2.625L8.93906 3.75L7.96875 3.04167H9.15L8.17969 3.75L8.55937 2.625Z" fill="white"/>
<path d="M11.0906 2.625L11.4703 3.75L10.5 3.04167H11.6812L10.7109 3.75L11.0906 2.625Z" fill="white"/>
<path d="M-0.426465 3.70837L-0.0467773 4.83337L-1.01709 4.12504H0.16416L-0.806152 4.83337L-0.426465 3.70837Z" fill="white"/>
<path d="M2.14678 3.70837L2.52646 4.83337L1.55615 4.12504H2.7374L1.76709 4.83337L2.14678 3.70837Z" fill="white"/>
<path d="M4.72051 3.70837L5.1002 4.83337L4.12988 4.12504H5.31113L4.34082 4.83337L4.72051 3.70837Z" fill="white"/>
<path d="M7.25176 3.70837L7.63145 4.83337L6.66113 4.12504H7.84238L6.87207 4.83337L7.25176 3.70837Z" fill="white"/>
<path d="M9.825 3.70837L10.2047 4.83337L9.23438 4.12504H10.4156L9.44531 4.83337L9.825 3.70837Z" fill="white"/>
<path d="M0.83916 4.79163L1.21885 5.91663L0.248535 5.20829H1.42979L0.459473 5.91663L0.83916 4.79163Z" fill="white"/>
<path d="M3.4124 4.79163L3.79209 5.91663L2.82178 5.20829H4.00303L3.03271 5.91663L3.4124 4.79163Z" fill="white"/>
<path d="M5.98613 4.79163L6.36582 5.91663L5.39551 5.20829H6.57676L5.60645 5.91663L5.98613 4.79163Z" fill="white"/>
<path d="M8.55937 4.79163L8.93906 5.91663L7.96875 5.20829H9.15L8.17969 5.91663L8.55937 4.79163Z" fill="white"/>
<path d="M11.0906 4.79163L11.4703 5.91663L10.5 5.20829H11.6812L10.7109 5.91663L11.0906 4.79163Z" fill="white"/>
<path d="M-0.426465 5.875L-0.0467773 7L-1.01709 6.29167H0.16416L-0.806152 7L-0.426465 5.875Z" fill="white"/>
<path d="M2.14678 5.875L2.52646 7L1.55615 6.29167H2.7374L1.76709 7L2.14678 5.875Z" fill="white"/>
<path d="M4.72051 5.875L5.1002 7L4.12988 6.29167H5.31113L4.34082 7L4.72051 5.875Z" fill="white"/>
<path d="M7.25176 5.875L7.63145 7L6.66113 6.29167H7.84238L6.87207 7L7.25176 5.875Z" fill="white"/>
<path d="M9.825 5.875L10.2047 7L9.23438 6.29167H10.4156L9.44531 7L9.825 5.875Z" fill="white"/>
<path d="M0.83916 6.91663L1.21885 8.04163L0.248535 7.33329H1.42979L0.459473 8.04163L0.83916 6.91663Z" fill="white"/>
<path d="M3.4124 6.91663L3.79209 8.04163L2.82178 7.33329H4.00303L3.03271 8.04163L3.4124 6.91663Z" fill="white"/>
<path d="M5.98613 6.91663L6.36582 8.04163L5.39551 7.33329H6.57676L5.60645 8.04163L5.98613 6.91663Z" fill="white"/>
<path d="M8.55937 6.91663L8.93906 8.04163L7.96875 7.33329H9.15L8.17969 8.04163L8.55937 6.91663Z" fill="white"/>
<path d="M11.0906 6.91663L11.4703 8.04163L10.5 7.33329H11.6812L10.7109 8.04163L11.0906 6.91663Z" fill="white"/>
<path d="M-0.426465 8L-0.0467773 9.125L-1.01709 8.41667H0.16416L-0.806152 9.125L-0.426465 8Z" fill="white"/>
<path d="M2.14678 8L2.52646 9.125L1.55615 8.41667H2.7374L1.76709 9.125L2.14678 8Z" fill="white"/>
<path d="M4.72051 8L5.1002 9.125L4.12988 8.41667H5.31113L4.34082 9.125L4.72051 8Z" fill="white"/>
<path d="M7.25176 8L7.63145 9.125L6.66113 8.41667H7.84238L6.87207 9.125L7.25176 8Z" fill="white"/>
<path d="M9.825 8L10.2047 9.125L9.23438 8.41667H10.4156L9.44531 9.125L9.825 8Z" fill="white"/>
<path d="M0.83916 9.08337L1.21885 10.2084L0.248535 9.50004H1.42979L0.459473 10.2084L0.83916 9.08337Z" fill="white"/>
<path d="M3.4124 9.08337L3.79209 10.2084L2.82178 9.50004H4.00303L3.03271 10.2084L3.4124 9.08337Z" fill="white"/>
<path d="M5.98613 9.08337L6.36582 10.2084L5.39551 9.50004H6.57676L5.60645 10.2084L5.98613 9.08337Z" fill="white"/>
<path d="M8.55937 9.08337L8.93906 10.2084L7.96875 9.50004H9.15L8.17969 10.2084L8.55937 9.08337Z" fill="white"/>
<path d="M11.0906 9.08337L11.4703 10.2084L10.5 9.50004H11.6812L10.7109 10.2084L11.0906 9.08337Z" fill="white"/>
</g>
</g>
<defs>
<clipPath id="clip0_4430_2577">
<rect width="20" height="20" fill="white"/>
</clipPath>
<clipPath id="clip1_4430_2577">
<rect width="27" height="20" fill="white" transform="translate(-3)"/>
</clipPath>
</defs>
</svg>
