<svg width="20" height="20" viewBox="0 0 20 20" fill="none" xmlns="http://www.w3.org/2000/svg">
<g clip-path="url(#clip0_4430_2508)">
<g clip-path="url(#clip1_4430_2508)">
<path d="M2.75417 0H16.9083V20H2.75L2.75417 0Z" fill="white"/>
<path d="M-4.3208 0H2.7542V20H-4.3208V0ZM16.9084 0H23.9834V20H16.9125L16.9084 0ZM4.87503 9.66667L4.32087 9.85L6.8792 12.1C7.07504 12.6708 6.81253 12.8417 6.64587 13.1417L9.42087 12.7917L9.3542 15.5833L9.93337 15.5708L9.8042 12.7958L12.5834 13.1292C12.4125 12.7667 12.2584 12.575 12.4167 11.9958L14.9709 9.87083L14.525 9.70417C14.1584 9.42083 14.6834 8.34583 14.7584 7.66667C14.7584 7.66667 13.2709 8.17917 13.175 7.90833L12.7917 7.17917L11.4334 8.67083C11.2875 8.70833 11.225 8.65 11.1875 8.525L11.8125 5.40833L10.8209 5.96667C10.732 6.00278 10.6598 5.97222 10.6042 5.875L9.64587 3.95833L8.66253 5.95C8.58476 6.01944 8.51531 6.02917 8.4542 5.97917L7.50003 5.45L8.07087 8.5375C8.02503 8.6625 7.9167 8.69583 7.7917 8.62917L6.4917 7.15833C6.32503 7.42917 6.20837 7.87083 5.98337 7.97083C5.75837 8.07083 5.0042 7.78333 4.50003 7.67917C4.67503 8.29583 5.20837 9.32917 4.87503 9.66667Z" fill="#D52B1E"/>
</g>
</g>
<defs>
<clipPath id="clip0_4430_2508">
<rect width="20" height="20" fill="white"/>
</clipPath>
<clipPath id="clip1_4430_2508">
<rect width="26.6667" height="20" fill="white" transform="translate(-3.5)"/>
</clipPath>
</defs>
</svg>
