<svg width="20" height="20" viewBox="0 0 20 20" fill="none" xmlns="http://www.w3.org/2000/svg">
<g clip-path="url(#clip0_4430_2570)">
<g clip-path="url(#clip1_4430_2570)">
<path fill-rule="evenodd" clip-rule="evenodd" d="M-3.5 0H23.1667V20H-3.5V0Z" fill="#E30A17"/>
<path fill-rule="evenodd" clip-rule="evenodd" d="M13.4582 10.3125C13.4582 13.0708 11.1832 15.3083 8.37484 15.3083C5.5665 15.3083 3.2915 13.0708 3.2915 10.3083C3.2915 7.54582 5.5665 5.31665 8.37484 5.31665C11.1832 5.31665 13.4582 7.55415 13.4582 10.3125Z" fill="white"/>
<path fill-rule="evenodd" clip-rule="evenodd" d="M13.7083 10.3125C13.7083 12.5208 11.8916 14.3083 9.64577 14.3083C7.39994 14.3083 5.5791 12.5167 5.5791 10.3083C5.5791 8.09998 7.39994 6.31665 9.64577 6.31665C11.8916 6.31665 13.7124 8.10415 13.7124 10.3125H13.7083Z" fill="#E30A17"/>
<path fill-rule="evenodd" clip-rule="evenodd" d="M14.4456 7.97914L14.4039 9.82498L12.6831 10.2916L14.3831 10.8958L14.3414 12.5916L15.4456 11.2666L17.1206 11.85L16.1539 10.4291L17.3331 9.01664L15.5206 9.51664L14.4456 7.97498V7.97914Z" fill="white"/>
</g>
</g>
<defs>
<clipPath id="clip0_4430_2570">
<rect width="20" height="20" fill="white"/>
</clipPath>
<clipPath id="clip1_4430_2570">
<rect width="26.6667" height="20" fill="white" transform="translate(-3.5)"/>
</clipPath>
</defs>
</svg>
