<svg width="20" height="20" viewBox="0 0 20 20" fill="none" xmlns="http://www.w3.org/2000/svg">
<g clip-path="url(#clip0_4430_2573)">
<g clip-path="url(#clip1_4430_2573)">
<path d="M-3.5 0H5.3875V20H-3.5V0Z" fill="#007A5E"/>
<path d="M5.3877 0H14.2794V20H5.3877V0Z" fill="#CE1126"/>
<path d="M14.2793 0H23.1668V20H14.2793V0Z" fill="#FCD116"/>
<path d="M9.83351 7.62964L9.09277 9.88149L10.2187 10.2667L9.83351 7.62964Z" fill="#FCD116"/>
<path d="M9.83348 7.62964L10.5742 9.88149L9.44829 10.2667L9.83348 7.62964Z" fill="#FCD116"/>
<path d="M12.0878 9.26746L9.71726 9.25887L9.69888 10.4487L12.0878 9.26746Z" fill="#FCD116"/>
<path d="M12.0875 9.26745L10.1748 10.6678L9.46051 9.71604L12.0875 9.26745Z" fill="#FCD116"/>
<path d="M11.2264 11.9177L10.5021 9.66052L9.36478 10.0107L11.2264 11.9177Z" fill="#FCD116"/>
<path d="M11.2262 11.9178L9.30335 10.5314L9.98783 9.55794L11.2262 11.9178Z" fill="#FCD116"/>
<path d="M8.43979 11.9176L10.3627 10.5312L9.67818 9.55782L8.43979 11.9176Z" fill="#FCD116"/>
<path d="M8.44009 11.9177L9.16442 9.66052L10.3017 10.0107L8.44009 11.9177Z" fill="#FCD116"/>
<path d="M7.57901 9.26757L9.49172 10.6679L10.206 9.71616L7.57901 9.26757Z" fill="#FCD116"/>
<path d="M7.5792 9.26758L9.94973 9.25899L9.96812 10.4488L7.5792 9.26758Z" fill="#FCD116"/>
</g>
</g>
<defs>
<clipPath id="clip0_4430_2573">
<rect width="20" height="20" fill="white"/>
</clipPath>
<clipPath id="clip1_4430_2573">
<rect width="26.6667" height="20" fill="white" transform="translate(-3.5)"/>
</clipPath>
</defs>
</svg>
