<svg width="20" height="20" viewBox="0 0 20 20" fill="none" xmlns="http://www.w3.org/2000/svg">
<g clip-path="url(#clip0_4430_2565)">
<g clip-path="url(#clip1_4430_2565)">
<mask id="mask0_4430_2565" style="mask-type:luminance" maskUnits="userSpaceOnUse" x="-2" y="0" width="28" height="20">
<path d="M-1.00146 0H25.9959V20H-1.00146V0Z" fill="white"/>
</mask>
<g mask="url(#mask0_4430_2565)">
<path fill-rule="evenodd" clip-rule="evenodd" d="M-2.69043 0H27.6846V20H-2.69043V0Z" fill="#0C590B"/>
<path fill-rule="evenodd" clip-rule="evenodd" d="M-2.69043 0H4.9231V20H-2.69043V0Z" fill="white"/>
<path fill-rule="evenodd" clip-rule="evenodd" d="M17.0337 8.80469L15.7997 8.54688L15.1511 9.61328L15.0166 8.37891L13.7905 8.09766L14.9375 7.58984L14.8307 6.35156L15.6771 7.27344L16.8359 6.78906L16.2071 7.86719L17.0376 8.80469H17.0337Z" fill="white"/>
<path fill-rule="evenodd" clip-rule="evenodd" d="M17.4964 11.9531C17.2341 12.5211 16.8604 13.0321 16.3969 13.4566C15.9335 13.8812 15.3895 14.2108 14.7963 14.4265C14.2032 14.6423 13.5726 14.7398 12.9411 14.7135C12.3096 14.6873 11.6896 14.5377 11.1169 14.2734C10.5411 14.0107 10.0233 13.6384 9.59335 13.1778C9.16334 12.7172 8.82951 12.1775 8.61094 11.5893C8.39236 11.0012 8.29335 10.3763 8.31955 9.75036C8.34575 9.12441 8.49666 8.5097 8.76363 7.94141C9.0317 7.35187 9.42128 6.82401 9.90751 6.39153C10.3937 5.95906 10.9659 5.63147 11.5876 5.42969C11.4247 5.5636 11.2689 5.70572 11.1209 5.85547C10.3492 6.69948 9.9396 7.80647 9.97835 8.943C10.0171 10.0795 10.5012 11.1568 11.3286 11.9476C12.156 12.7384 13.262 13.181 14.4134 13.1821C15.5648 13.1831 16.6716 12.7425 17.5004 11.9531H17.4964Z" fill="white"/>
</g>
</g>
</g>
<defs>
<clipPath id="clip0_4430_2565">
<rect width="20" height="20" fill="white"/>
</clipPath>
<clipPath id="clip1_4430_2565">
<rect width="27" height="20" fill="white" transform="translate(-1)"/>
</clipPath>
</defs>
</svg>
