<svg width="20" height="20" viewBox="0 0 20 20" fill="none" xmlns="http://www.w3.org/2000/svg">
<g clip-path="url(#clip0_4430_2567)">
<g clip-path="url(#clip1_4430_2567)">
<path d="M0 0H27V20H0V0Z" fill="#20603D"/>
<path d="M0 0H27V15H0V0Z" fill="#FAD201"/>
<path d="M0 0H27V10H0V0Z" fill="#00A1DE"/>
<path d="M18.2925 5.22504L20.5537 5.3556L18.405 6.06116L20.6212 5.60838L18.7284 6.83616L20.7534 5.8306L19.2516 7.50561L20.9419 6.01949L19.9237 8.0195L21.1697 6.15005L20.7141 8.33617L21.4256 6.21672L21.5578 8.45006L21.5859 5.19727L18.2925 5.22504Z" fill="#E5BE01"/>
<path d="M18.2925 5.22503L20.5537 5.09447L18.405 4.38891L20.6212 4.84169L18.7284 3.61391L20.7534 4.61947L19.2516 2.94446L20.9419 4.43058L19.9237 2.43057L21.1697 4.30003L20.7141 2.1139L21.4256 4.23336L21.5578 2.00001L21.5859 5.25281L18.2925 5.22503Z" fill="#E5BE01"/>
<path d="M21.558 6.17778C22.0907 6.17778 22.5226 5.75121 22.5226 5.225C22.5226 4.69879 22.0907 4.27222 21.558 4.27222C21.0252 4.27222 20.5933 4.69879 20.5933 5.225C20.5933 5.75121 21.0252 6.17778 21.558 6.17778Z" fill="#E5BE01" stroke="#00A1DE" stroke-width="2.26668"/>
</g>
</g>
<defs>
<clipPath id="clip0_4430_2567">
<rect width="20" height="20" fill="white"/>
</clipPath>
<clipPath id="clip1_4430_2567">
<rect width="27" height="20" fill="white"/>
</clipPath>
</defs>
</svg>
