<svg width="20" height="20" viewBox="0 0 20 20" fill="none" xmlns="http://www.w3.org/2000/svg">
<g clip-path="url(#clip0_4430_2506)">
<g clip-path="url(#clip1_4430_2506)">
<path fill-rule="evenodd" clip-rule="evenodd" d="M-3.5 0H23.1667V20H-3.5V0Z" fill="#229E45"/>
<path fill-rule="evenodd" clip-rule="evenodd" d="M9.89157 18.1667L22.4541 10.0125L9.81657 1.83337L-2.7876 10.0292L9.89157 18.1667Z" fill="#F8E509"/>
<path fill-rule="evenodd" clip-rule="evenodd" d="M15.3667 10C15.3667 12.9292 12.9875 15.3042 10.05 15.3042C9.00029 15.3025 7.97463 14.9897 7.10269 14.4052C6.23075 13.8207 5.55166 12.9909 5.15129 12.0205C4.75091 11.0502 4.64722 9.98287 4.85333 8.95359C5.05943 7.92431 5.56607 6.97925 6.3092 6.23786C7.05233 5.49648 7.99859 4.99206 9.02835 4.78839C10.0581 4.58471 11.1251 4.69091 12.0946 5.09357C13.064 5.49623 13.8922 6.17726 14.4747 7.05058C15.0571 7.9239 15.3675 8.95028 15.3667 10Z" fill="#2B49A3"/>
<path fill-rule="evenodd" clip-rule="evenodd" d="M8.30426 13.1792L8.1376 13.0834L7.97093 13.1667L8.00843 12.9792L7.8751 12.8375L8.0626 12.8167L8.15426 12.65L8.23343 12.825L8.41676 12.8584L8.27926 12.9834M11.8626 14.0792L11.7001 13.9834L11.5334 14.0667L11.5668 13.8792L11.4376 13.7417L11.6251 13.7208L11.7126 13.55L11.7959 13.725L11.9793 13.7584L11.8376 13.8875M10.3293 12.6375L10.1876 12.5542L10.0418 12.6292L10.0751 12.4667L9.95843 12.3458L10.1251 12.3292L10.2001 12.1792L10.2668 12.3334L10.4293 12.3625L10.3043 12.475M13.9293 12.1208L13.7876 12.0375L13.6418 12.1125L13.6751 11.95L13.5626 11.8333L13.7251 11.8167L13.8001 11.6709L13.8668 11.8209L14.0251 11.85L13.9043 11.9583M10.2668 11.0417L10.1001 10.95L9.93343 11.0333L9.96676 10.8417L9.8376 10.7042L10.0251 10.6833L10.1126 10.5125L10.1959 10.6875L10.3793 10.7208L10.2376 10.8542M5.87926 9.39585L5.7126 9.30418L5.54593 9.38752L5.5876 9.19585L5.4501 9.05835L5.64176 9.03752L5.7251 8.86668L5.80843 9.04168L5.99176 9.07502L5.85426 9.20418M6.40843 11.5875L6.24176 11.4917L6.0751 11.575L6.1126 11.3875L5.97926 11.25L6.16676 11.225L6.25426 11.0583L6.3376 11.2334L6.52093 11.2667L6.38343 11.3958M11.8834 8.59168L11.7334 8.50835L11.5834 8.58335L11.6168 8.41668L11.5001 8.29168L11.6668 8.27085L11.7459 8.12085L11.8168 8.27918L11.9834 8.30835L11.8584 8.42085M11.5793 10.0167L11.4668 9.95002L11.3459 10.0083L11.3709 9.87502L11.2793 9.77918L11.4126 9.76252L11.4751 9.64585L11.5293 9.77085L11.6543 9.79168L11.5626 9.88335M5.6376 11.9834L5.5251 11.9209L5.4126 11.975L5.4376 11.85L5.3501 11.7584L5.4751 11.7417L5.53343 11.6292L5.5876 11.7458L5.7126 11.7708L5.61676 11.8542M13.9584 12.4917L13.8668 12.4459L13.7751 12.4875L13.7959 12.3917L13.7251 12.325L13.8251 12.3125L13.8751 12.2292L13.9168 12.3125L14.0209 12.3334L13.9418 12.3959" fill="#FFFFEF"/>
<path fill-rule="evenodd" clip-rule="evenodd" d="M5.6376 11.9833L5.5251 11.9208L5.4126 11.975L5.4376 11.85L5.3501 11.7583L5.4751 11.7416L5.53343 11.6292L5.5876 11.7458L5.7126 11.7708L5.61676 11.8542" fill="#FFFFEF"/>
<path fill-rule="evenodd" clip-rule="evenodd" d="M5.6376 11.9834L5.5251 11.9209L5.4126 11.975L5.4376 11.85L5.3501 11.7584L5.4751 11.7417L5.53343 11.6292L5.5876 11.7458L5.7126 11.7708L5.61676 11.8542M7.37927 11.9792L7.27093 11.9209L7.15843 11.975L7.18343 11.85L7.09593 11.7584L7.22093 11.7417L7.27927 11.6292L7.33343 11.7458L7.45843 11.7667L7.3626 11.8542M7.1626 12.5625L7.05426 12.5L6.94177 12.5583L6.96676 12.4333L6.87927 12.3375L7.00427 12.3209L7.0626 12.2083L7.11676 12.325L7.24176 12.35L7.14593 12.4333M10.7876 11.5084L10.6793 11.4417L10.5626 11.5L10.5876 11.375L10.5043 11.2792L10.6293 11.2667L10.6876 11.1542L10.7376 11.2708L10.8626 11.2917L10.7709 11.3792M9.7251 11.5042L9.6126 11.4417L9.5001 11.5L9.5251 11.375L9.44177 11.2792L9.56677 11.2667L9.6251 11.15L9.6751 11.2708L9.8001 11.2917L9.70843 11.3792M6.84176 11.1375L6.77093 11.0958L6.7001 11.1292L6.71676 11.05L6.6626 10.9917L6.74176 10.9834L6.7751 10.9125L6.80843 10.9875L6.8876 11L6.82926 11.0542M13.8209 12.9459L13.7126 12.8834L13.6001 12.9417L13.6251 12.8167L13.5376 12.7208L13.6626 12.7042L13.7209 12.5917L13.7751 12.7083L13.9001 12.7334L13.8043 12.8167M12.9376 13.0667L12.8459 13.0084L12.7501 13.0583L12.7709 12.95L12.7001 12.875L12.8043 12.8625L12.8543 12.7667L12.8959 12.8667L13.0001 12.8834L12.9209 12.9583M13.3543 13.0542L13.2709 13.0042L13.1834 13.0459L13.2001 12.95L13.1334 12.8792L13.2293 12.8667L13.2751 12.7833L13.3168 12.8667L13.4126 12.8875L13.3418 12.9542M14.5543 12.0042L14.4709 11.9625L14.3876 12.0042L14.4084 11.9083L14.3418 11.8375L14.4376 11.825L14.4793 11.7417L14.5209 11.8292L14.6084 11.8458L14.5418 11.9125M12.9251 13.6542L12.8209 13.5958L12.7084 13.6458L12.7334 13.5292L12.6501 13.4459L12.7751 13.4333L12.8293 13.3292L12.8793 13.4375L13.0043 13.4583L12.9084 13.5375M12.9334 14.1292L12.8334 14.0709L12.7334 14.125L12.7584 14.0084L12.6793 13.925L12.7918 13.9083L12.8418 13.8042L12.8876 13.9125L13.0001 13.9333L12.9168 14.0167M12.1251 13.0542L12.0459 13.0042L11.9626 13.0459L11.9793 12.9542L11.9168 12.8834L12.0084 12.875L12.0501 12.7917L12.0918 12.875L12.1834 12.8917L12.1168 12.9583M11.3751 13.0542L11.2918 13.0042L11.2084 13.0459L11.2293 12.9542L11.1626 12.8834L11.2584 12.875L11.3001 12.7917L11.3418 12.875L11.4293 12.8917L11.3626 12.9583M10.0959 11.9333L10.0126 11.8875L9.92926 11.9292L9.9501 11.8333L9.88343 11.7667L9.9751 11.7542L10.0168 11.6709L10.0584 11.7542L10.1501 11.775L10.0834 11.8375M10.2376 14.2125L10.1709 14.175L10.0959 14.2125L10.1126 14.1292L10.0584 14.0709L10.1376 14.0625L10.1751 13.9917L10.2084 14.0667L10.2876 14.0792L10.2293 14.1334M8.30426 10.525L8.1376 10.4292L7.97093 10.5125L8.00843 10.325L7.8751 10.1875L8.0626 10.1625L8.15427 9.99585L8.23343 10.1709L8.41676 10.2042L8.27927 10.3333" fill="#FFFFEF"/>
<path fill-rule="evenodd" clip-rule="evenodd" d="M15.0168 11.9083C15.12 11.6404 15.2008 11.3645 15.2585 11.0833C12.4335 8.60413 9.28766 7.3333 5.31266 7.5958C5.1686 7.87481 5.05006 8.16627 4.9585 8.46663C9.66683 8.01663 13.1252 10.1 15.0168 11.9083Z" fill="white"/>
<path d="M13.7501 10.5167L13.846 10.5708C13.8302 10.5987 13.8258 10.6315 13.8335 10.6625C13.8432 10.6927 13.8641 10.718 13.8918 10.7333C13.9196 10.7556 13.9474 10.7653 13.9751 10.7625C14.0001 10.7625 14.0182 10.7528 14.0293 10.7333L14.0376 10.6958L14.0168 10.6542L13.9543 10.5792C13.9204 10.5435 13.8948 10.5009 13.8793 10.4542C13.8713 10.4187 13.8751 10.3816 13.8901 10.3485C13.9052 10.3154 13.9306 10.2881 13.9626 10.2708C13.9931 10.2587 14.0264 10.2558 14.0585 10.2625C14.0976 10.2715 14.1345 10.2885 14.1668 10.3125C14.2251 10.3542 14.2612 10.3986 14.2751 10.4458C14.2812 10.4692 14.2821 10.4936 14.2777 10.5173C14.2734 10.5411 14.264 10.5636 14.2501 10.5833L14.1501 10.5208C14.164 10.4931 14.1668 10.4694 14.1585 10.45C14.1529 10.4278 14.1362 10.4083 14.1085 10.3917C14.0874 10.3739 14.061 10.3637 14.0335 10.3625C14.0259 10.3622 14.0184 10.364 14.0118 10.3677C14.0052 10.3714 13.9997 10.3768 13.996 10.3833C13.9876 10.3944 13.9862 10.4083 13.9918 10.425C13.9974 10.4472 14.0196 10.4778 14.0585 10.5167C14.0974 10.5556 14.1251 10.5903 14.1418 10.6208C14.1562 10.6483 14.1626 10.6792 14.1604 10.7101C14.1582 10.741 14.1474 10.7707 14.1293 10.7958C14.11 10.8243 14.0823 10.8462 14.0501 10.8583C14.0189 10.8727 13.984 10.8771 13.9501 10.8708C13.914 10.8625 13.8751 10.8444 13.8335 10.8167C13.7724 10.775 13.7349 10.7292 13.721 10.6792C13.7133 10.6512 13.7116 10.6219 13.7159 10.5932C13.7202 10.5645 13.7304 10.537 13.746 10.5125L13.7501 10.5167ZM13.2668 10.2L13.371 10.2542C13.3566 10.2826 13.3536 10.3153 13.3626 10.3458C13.3733 10.3744 13.394 10.3981 13.421 10.4125C13.4515 10.4347 13.4793 10.4431 13.5043 10.4375C13.5293 10.4375 13.5474 10.4264 13.5585 10.4042L13.5668 10.3708C13.5668 10.3569 13.5599 10.3431 13.546 10.3292L13.4793 10.2542C13.4321 10.2097 13.4043 10.1708 13.396 10.1375C13.3899 10.116 13.3883 10.0934 13.3912 10.0712C13.394 10.049 13.4013 10.0276 13.4126 10.0083C13.4292 9.98323 13.4522 9.96307 13.4793 9.95C13.5081 9.93727 13.5398 9.93293 13.571 9.9375C13.6095 9.94399 13.6463 9.95816 13.6793 9.97917C13.7432 10.0208 13.7807 10.0639 13.7918 10.1083C13.7997 10.1317 13.8023 10.1565 13.7994 10.181C13.7965 10.2055 13.7882 10.2291 13.7751 10.25L13.671 10.1917C13.6849 10.1639 13.6876 10.1403 13.6793 10.1208C13.6682 10.0931 13.6501 10.0736 13.6251 10.0625C13.6024 10.0454 13.5744 10.0366 13.546 10.0375C13.5391 10.038 13.5325 10.0401 13.5267 10.0437C13.5209 10.0474 13.516 10.0524 13.5126 10.0583C13.5043 10.0694 13.5029 10.0833 13.5085 10.1C13.5168 10.1222 13.5404 10.1528 13.5793 10.1917C13.621 10.2333 13.6487 10.2667 13.6626 10.2917C13.6789 10.318 13.6874 10.3483 13.6874 10.3792C13.6874 10.4101 13.6789 10.4404 13.6626 10.4667C13.6451 10.4961 13.6189 10.5193 13.5876 10.5333C13.5564 10.5477 13.5215 10.5521 13.4876 10.5458C13.4447 10.5386 13.4037 10.523 13.3668 10.5C13.3129 10.4713 13.2714 10.4239 13.2501 10.3667C13.2412 10.3392 13.2381 10.3103 13.241 10.2816C13.2438 10.2529 13.2526 10.2251 13.2668 10.2ZM12.6751 10.0417L12.9793 9.54167L13.346 9.77083L13.296 9.85417L13.0293 9.6875L12.9626 9.8L13.2126 9.95417L13.1585 10.0375L12.9085 9.88333L12.8251 10.0208L13.1043 10.1875L13.0543 10.2708L12.6751 10.0417ZM11.8126 9.33333L11.8585 9.25L12.0835 9.3625L11.9793 9.57083C11.946 9.57917 11.9043 9.58194 11.8543 9.57917C11.8062 9.57427 11.7595 9.56012 11.7168 9.5375C11.6667 9.51246 11.6237 9.47521 11.5918 9.42917C11.5631 9.38604 11.5486 9.33509 11.5501 9.28333C11.5528 9.22955 11.567 9.17697 11.5918 9.12917C11.6168 9.07906 11.6541 9.03607 11.7001 9.00417C11.7439 8.97319 11.7965 8.95712 11.8501 8.95833C11.889 8.95833 11.9335 8.97222 11.9835 9C12.0501 9.03056 12.0932 9.06944 12.1126 9.11667C12.1343 9.16217 12.1387 9.21398 12.1251 9.2625L12.0126 9.22917C12.0195 9.20126 12.0166 9.17183 12.0043 9.14583C11.9932 9.12083 11.971 9.10139 11.9376 9.0875C11.918 9.07689 11.8965 9.07031 11.8743 9.06816C11.8521 9.06602 11.8297 9.06834 11.8085 9.075C11.7668 9.08889 11.7307 9.125 11.7001 9.18333C11.6696 9.24167 11.6599 9.29444 11.671 9.34167C11.6774 9.36307 11.6881 9.38296 11.7025 9.40014C11.7168 9.41732 11.7344 9.43144 11.7543 9.44167C11.7765 9.45556 11.8001 9.4625 11.8251 9.4625H11.9001L11.9335 9.39583L11.8126 9.33333ZM8.0543 8.40417L8.13763 7.82083L8.31263 7.85L8.35846 8.25833L8.52096 7.88333L8.69596 7.90833L8.61263 8.48333L8.50013 8.46667L8.57096 8.0125L8.38763 8.45L8.27513 8.43333L8.2293 7.9625L8.16263 8.42083L8.0543 8.40417ZM7.4668 8.33333L7.52096 7.75L7.95013 7.79167L7.9418 7.89167L7.6293 7.8625L7.6168 7.9875L7.90846 8.01667L7.89596 8.11667L7.6043 8.0875L7.5918 8.24583L7.9168 8.275L7.90846 8.375L7.4668 8.33333Z" fill="#309E3A"/>
<path d="M5.52094 7.97078C5.52094 7.90967 5.53067 7.85966 5.55011 7.82078C5.56493 7.79128 5.58466 7.76451 5.60844 7.74161C5.6295 7.71967 5.65509 7.7026 5.68344 7.69161C5.72511 7.67772 5.76678 7.67078 5.80844 7.67078C5.89456 7.67355 5.964 7.70133 6.01678 7.75411C6.04342 7.78545 6.06313 7.82207 6.07462 7.86156C6.08611 7.90106 6.08912 7.94254 6.08344 7.98328C6.08344 8.07494 6.05567 8.14855 6.00011 8.20411C5.94258 8.25402 5.86781 8.27944 5.79178 8.27494C5.71688 8.27388 5.64527 8.24404 5.59178 8.19161C5.5655 8.1616 5.54565 8.12652 5.53347 8.08854C5.52129 8.05055 5.51702 8.01047 5.52094 7.97078Z" fill="#309E3A"/>
<path d="M5.6416 7.97075C5.6416 8.03464 5.65549 8.08464 5.68327 8.12075C5.71105 8.15686 5.74994 8.17492 5.79994 8.17492C5.84331 8.1754 5.88516 8.15896 5.9166 8.12909C5.94438 8.09575 5.95966 8.04436 5.96244 7.97492C5.96521 7.90825 5.95132 7.85825 5.92077 7.82492C5.8917 7.79297 5.85137 7.77355 5.80827 7.77075C5.76431 7.77138 5.72237 7.78935 5.6916 7.82075C5.66105 7.85409 5.64438 7.90409 5.6416 7.97075Z" fill="#F7FFFF"/>
<path d="M6.2085 8.27083L6.21683 7.6875H6.46683C6.52794 7.6875 6.57238 7.69444 6.60016 7.70833C6.62794 7.71667 6.65016 7.73472 6.66683 7.7625C6.69183 7.80417 6.69183 7.82083 6.69183 7.85833C6.69137 7.89827 6.67658 7.93671 6.65016 7.96667C6.61856 7.99429 6.57934 8.01171 6.53766 8.01667L6.60016 8.06667C6.61683 8.08333 6.63766 8.11528 6.66266 8.1625L6.7335 8.27917H6.59183L6.5085 8.14583L6.45016 8.0625L6.41266 8.0375L6.35433 8.02917H6.32933V8.27083H6.2085Z" fill="#309E3A"/>
<path d="M6.3335 7.93748H6.41683C6.47516 7.93748 6.51127 7.9347 6.52516 7.92914C6.53905 7.92636 6.55016 7.91942 6.5585 7.90831C6.56961 7.89164 6.57377 7.87775 6.571 7.86664C6.571 7.84164 6.56544 7.82498 6.55433 7.81664C6.546 7.80553 6.53211 7.7972 6.51266 7.79164H6.42933L6.3335 7.78748V7.93748Z" fill="white"/>
<path d="M6.87487 7.71667L7.09154 7.72917C7.13876 7.72917 7.17487 7.73334 7.19987 7.74168C7.23204 7.75394 7.26067 7.77398 7.2832 7.80001C7.3072 7.82914 7.3243 7.86333 7.3332 7.90001C7.34431 7.9389 7.34848 7.98473 7.3457 8.03751C7.3459 8.08005 7.33885 8.12232 7.32487 8.16251C7.3082 8.20417 7.28459 8.23751 7.25404 8.26251C7.22976 8.28251 7.20127 8.29676 7.1707 8.30418C7.14293 8.31251 7.1082 8.31529 7.06654 8.31251L6.8457 8.30001L6.87487 7.71667Z" fill="#309E3A"/>
<path d="M6.98714 7.8208L6.96631 8.2083H7.12464C7.14686 8.2083 7.16353 8.20136 7.17464 8.18747C7.18853 8.17636 7.19964 8.1583 7.20798 8.1333C7.21631 8.1083 7.22186 8.07219 7.22464 8.02497L7.22047 7.9208C7.2149 7.89868 7.20337 7.87851 7.18714 7.86247L7.13714 7.8333L7.04131 7.8208H6.98714Z" fill="white"/>
<path d="M9.7334 8.75832L9.8709 8.19165L10.0542 8.23332L10.1876 8.27498C10.2181 8.29165 10.2403 8.31804 10.2542 8.35415C10.2681 8.39026 10.2709 8.42915 10.2626 8.47082C10.2542 8.50415 10.2403 8.53193 10.2209 8.55415C10.2054 8.57223 10.1863 8.58679 10.1647 8.59686C10.1432 8.60692 10.1197 8.61225 10.0959 8.61248C10.0681 8.61248 10.0265 8.60554 9.9709 8.59165L9.90007 8.57082L9.85006 8.78748L9.7334 8.75832Z" fill="#309E3A"/>
<path d="M9.95863 8.31665L9.92529 8.47498L9.98779 8.49165C10.0322 8.50276 10.0628 8.50693 10.0795 8.50415C10.0955 8.50136 10.1103 8.49396 10.1221 8.48285C10.134 8.47175 10.1423 8.45743 10.1461 8.44165C10.1461 8.42221 10.1433 8.40415 10.1378 8.38748C10.1287 8.37055 10.1139 8.3573 10.0961 8.34998L10.017 8.32915L9.96279 8.31665H9.95863Z" fill="white"/>
<path d="M10.2749 8.92085L10.4707 8.37085L10.6999 8.45418C10.761 8.47641 10.8027 8.49585 10.8249 8.51252C10.8471 8.53196 10.861 8.55696 10.8666 8.58752C10.8749 8.63335 10.8749 8.65002 10.8666 8.68335C10.8499 8.72502 10.8249 8.75557 10.7916 8.77502C10.7582 8.79168 10.7166 8.79585 10.6666 8.78752C10.6832 8.80696 10.6971 8.82918 10.7082 8.85418L10.7416 8.96668L10.7666 9.09585L10.6374 9.05002L10.5957 8.90002L10.5666 8.80002L10.5416 8.76668C10.5332 8.75557 10.5152 8.74585 10.4874 8.73752L10.4666 8.72918L10.3832 8.96252L10.2749 8.92085Z" fill="#309E3A"/>
<path d="M10.4998 8.64165L10.5789 8.67082C10.6345 8.69026 10.6692 8.69998 10.6831 8.69998C10.697 8.69998 10.7095 8.69582 10.7206 8.68748C10.7345 8.67915 10.7428 8.66665 10.7456 8.64998C10.7539 8.63332 10.7539 8.61665 10.7456 8.59998L10.7123 8.56248L10.6289 8.53332L10.5456 8.50415L10.4956 8.64165H10.4998Z" fill="white"/>
<path d="M10.9584 8.90001C10.9727 8.85122 10.9968 8.80586 11.0292 8.76668L11.1042 8.70418L11.1875 8.67501C11.2292 8.67223 11.2723 8.67779 11.3167 8.69168C11.3909 8.71258 11.4538 8.76202 11.4917 8.82918C11.525 8.89584 11.5278 8.97501 11.5 9.06668C11.4907 9.10605 11.4733 9.14305 11.4489 9.17533C11.4245 9.20761 11.3937 9.23446 11.3584 9.25418C11.2945 9.29029 11.2223 9.29584 11.1417 9.27084C11.0675 9.24994 11.0046 9.20051 10.9667 9.13334C10.9493 9.09712 10.9396 9.0577 10.9382 9.01755C10.9367 8.9774 10.9436 8.93738 10.9584 8.90001Z" fill="#309E3A"/>
<path d="M11.0751 8.9334C11.0557 8.99729 11.0557 9.05007 11.0751 9.09173C11.1043 9.15423 11.1251 9.1584 11.171 9.17507C11.2126 9.18896 11.2543 9.1834 11.296 9.1584C11.3349 9.13618 11.364 9.09173 11.3835 9.02507C11.4057 8.96396 11.4057 8.91257 11.3835 8.8709C11.3648 8.83238 11.3319 8.80254 11.2918 8.78757C11.2501 8.77527 11.2052 8.77976 11.1668 8.80007C11.1251 8.82229 11.0946 8.86673 11.0751 8.9334Z" fill="white"/>
<path d="M12.0957 9.71247L12.3624 9.1958L12.5832 9.3083C12.6248 9.32827 12.6628 9.35503 12.6957 9.38747C12.7179 9.40691 12.729 9.4333 12.729 9.46663C12.729 9.51663 12.729 9.52913 12.7124 9.5583C12.6957 9.5953 12.666 9.62493 12.629 9.64163C12.5874 9.65275 12.5443 9.64997 12.4999 9.6333C12.5165 9.66108 12.5276 9.68469 12.5332 9.70413C12.5415 9.72913 12.5471 9.76802 12.5499 9.8208L12.5582 9.95413L12.4332 9.89163L12.4165 9.73747L12.404 9.6333L12.3832 9.59163L12.3332 9.56247L12.3124 9.54997L12.1999 9.76663L12.0957 9.71247Z" fill="#309E3A"/>
<path d="M12.354 9.46659L12.4332 9.50825C12.4832 9.53603 12.5151 9.54992 12.529 9.54992C12.5429 9.54992 12.5568 9.54714 12.5707 9.54159C12.5818 9.53603 12.5915 9.52492 12.5998 9.50825C12.6082 9.49159 12.6109 9.47492 12.6082 9.45825L12.579 9.41659L12.504 9.37492L12.4207 9.33325L12.354 9.46659Z" fill="white"/>
<path d="M14.2542 10.7792C14.2813 10.7365 14.3167 10.6996 14.3584 10.6709C14.3866 10.6533 14.4176 10.6406 14.4501 10.6334C14.4804 10.6277 14.5114 10.6277 14.5417 10.6334C14.5834 10.6417 14.6223 10.6584 14.6584 10.6834C14.7226 10.7256 14.7675 10.7915 14.7834 10.8667C14.7945 10.9389 14.7751 11.0153 14.7251 11.0959C14.7049 11.1304 14.6779 11.1605 14.6456 11.1841C14.6134 11.2078 14.5766 11.2246 14.5376 11.2334C14.4621 11.2472 14.3843 11.2307 14.3209 11.1876C14.2567 11.1453 14.2118 11.0794 14.1959 11.0042C14.1848 10.9292 14.2042 10.8542 14.2542 10.7792Z" fill="#309E3A"/>
<path d="M14.3586 10.8459C14.3197 10.9015 14.3044 10.9515 14.3128 10.9959C14.3208 11.0379 14.3447 11.0752 14.3794 11.1001C14.4211 11.1279 14.4628 11.1362 14.5044 11.1251C14.5461 11.114 14.5864 11.0807 14.6253 11.0251C14.6641 10.9668 14.6794 10.9168 14.6711 10.8751C14.6628 10.8334 14.6405 10.7973 14.6044 10.7668C14.5461 10.7209 14.5211 10.7334 14.4794 10.7459C14.4378 10.7543 14.3961 10.7876 14.3544 10.8459H14.3586Z" fill="white"/>
<path d="M9.0752 8.52088L9.17103 8.11255L9.47103 8.18338L9.45853 8.25005L9.2377 8.20005L9.21686 8.29172L9.42103 8.33755L9.40436 8.40838L9.2002 8.35838L9.1752 8.47088L9.40436 8.52505L9.3877 8.59172L9.0752 8.52088Z" fill="#309E3A"/>
</g>
</g>
<defs>
<clipPath id="clip0_4430_2506">
<rect width="20" height="20" fill="white"/>
</clipPath>
<clipPath id="clip1_4430_2506">
<rect width="26.6667" height="20" fill="white" transform="translate(-3.5)"/>
</clipPath>
</defs>
</svg>
