<svg width="20" height="20" viewBox="0 0 20 20" fill="none" xmlns="http://www.w3.org/2000/svg">
<g clip-path="url(#clip0_4430_2564)">
<g clip-path="url(#clip1_4430_2564)">
<path d="M-3 0H24V10H-3V0Z" fill="#0038A8"/>
<path d="M-3 10H24V20H-3V10Z" fill="#CE1126"/>
<path d="M14.5373 10L-3 20V0" fill="white"/>
<path d="M-1.8734 1.76672L-1.27012 2.29172L-0.569805 1.90839L-0.881992 2.63756L-0.291367 3.17922L-1.09293 3.11256L-1.43465 3.82922L-1.61605 3.05839L-2.40918 2.95839L-1.72152 2.54172L-1.8734 1.76672ZM11.7869 8.94589L11.8038 9.73756L12.5632 10.0001L11.8038 10.2584L11.7869 11.0501L11.3018 10.4209L10.5339 10.6501L10.9896 10.0001L10.5339 9.35006L11.3018 9.57922L11.7869 8.94589ZM-1.43043 16.1709L-1.09293 16.8876L-0.291367 16.8209L-0.877773 17.3626L-0.565586 18.0917L-1.2659 17.7126L-1.8734 18.2292L-1.72152 17.4501L-2.40918 17.0417L-1.61184 16.9417L-1.43043 16.1709ZM3.38738 5.79589L3.12582 6.05422L3.2566 8.01256L3.13004 8.02506L2.88957 6.23756L2.67441 6.44589L2.99504 8.04589C2.73594 8.09681 2.48944 8.19731 2.26941 8.34172L1.35395 6.99172H1.0502L2.16395 8.42089L2.0627 8.50422L0.750664 7.02506H0.379414V7.39172L1.87285 8.68339L1.78848 8.78756L0.341445 7.69172V7.98756L1.71254 8.89172C1.56629 9.10839 1.46645 9.34728 1.41301 9.60839L-0.202773 9.29172L-0.41793 9.50006L1.39191 9.73756C1.38348 9.782 1.37926 9.82506 1.37926 9.86672L-0.603555 9.74172L-0.865117 10.0001L-0.603555 10.2584L1.37926 10.1292L1.39191 10.2584L-0.41793 10.4959L-0.206992 10.7042L1.41301 10.3876C1.46456 10.6435 1.56632 10.8869 1.71254 11.1042L0.341445 12.0084V12.3084L1.78848 11.2126L1.87285 11.3126L0.379414 12.6042V12.9709H0.754883L2.0627 11.4959L2.16816 11.5792L1.0502 13.0084H1.35395L2.26941 11.6542C2.48879 11.7987 2.73066 11.8973 2.99504 11.9501L2.67441 13.5501L2.88535 13.7584L3.12582 11.9709C3.16801 11.9792 3.2116 11.9834 3.2566 11.9834L3.13004 13.9417L3.38738 14.2001L3.65316 13.9417L3.52238 11.9834L3.64895 11.9709L3.88941 13.7626L4.10457 13.5501L3.78395 11.9501C4.04304 11.8991 4.28955 11.7986 4.50957 11.6542L5.42504 13.0084H5.72879L4.61504 11.5792L4.71629 11.4959L6.02832 12.9709H6.39957V12.6042L4.90613 11.3126L4.99051 11.2126L6.43754 12.3084V12.0084L5.06645 11.1042C5.2127 10.8876 5.31254 10.6487 5.36598 10.3876L6.98176 10.7042L7.19691 10.4959L5.38707 10.2584C5.39551 10.2167 5.39973 10.1737 5.39973 10.1292L7.38254 10.2542L7.6441 10.0001L7.38254 9.74172L5.39973 9.86672L5.38707 9.74172L7.19691 9.50422L6.98598 9.29589L5.36598 9.60839C5.31442 9.35249 5.21267 9.10903 5.06645 8.89172L6.43754 7.98756V7.69172L4.99051 8.78756L4.90613 8.68756L6.39957 7.39589V7.02506H6.02832L4.72051 8.50422L4.61504 8.42089L5.72879 6.99172H5.42504L4.50957 8.34172C4.2902 8.19728 4.04832 8.09867 3.78395 8.04589L4.10457 6.45006L3.89363 6.24172L3.65316 8.02506L3.52238 8.01256L3.64895 6.05422L3.38738 5.79589Z" fill="#FCD116"/>
</g>
</g>
<defs>
<clipPath id="clip0_4430_2564">
<rect width="20" height="20" fill="white"/>
</clipPath>
<clipPath id="clip1_4430_2564">
<rect width="27" height="20" fill="white" transform="translate(-3)"/>
</clipPath>
</defs>
</svg>
