<svg width="20" height="20" viewBox="0 0 20 20" fill="none" xmlns="http://www.w3.org/2000/svg">
<g clip-path="url(#clip0_4430_2572)">
<g clip-path="url(#clip1_4430_2572)">
<mask id="mask0_4430_2572" style="mask-type:luminance" maskUnits="userSpaceOnUse" x="-4" y="0" width="28" height="20">
<path d="M-3.49854 0H23.1655V20H-3.49854V0Z" fill="white"/>
</mask>
<g mask="url(#mask0_4430_2572)">
<path fill-rule="evenodd" clip-rule="evenodd" d="M-5.1665 13.3359H24.8335V16.668H-5.1665V13.3359Z" fill="#FFE700"/>
<path fill-rule="evenodd" clip-rule="evenodd" d="M-5.1665 10H24.8335V13.332H-5.1665V10Z" fill="#000001"/>
<path fill-rule="evenodd" clip-rule="evenodd" d="M-5.1665 6.66797H24.8335V10H-5.1665V6.66797Z" fill="#DE3908"/>
<path fill-rule="evenodd" clip-rule="evenodd" d="M-5.1665 3.33594H24.8335V6.66797H-5.1665V3.33594Z" fill="#FFE700"/>
<path fill-rule="evenodd" clip-rule="evenodd" d="M-5.1665 0H24.8335V3.33203H-5.1665V0Z" fill="#000001"/>
<path fill-rule="evenodd" clip-rule="evenodd" d="M12.9468 10C12.9468 10.8257 12.6188 11.6176 12.0349 12.2014C11.4511 12.7853 10.6592 13.1133 9.8335 13.1133C9.0078 13.1133 8.21593 12.7853 7.63207 12.2014C7.04822 11.6176 6.72021 10.8257 6.72021 10C6.72021 9.17431 7.04822 8.38243 7.63207 7.79858C8.21593 7.21472 9.0078 6.88672 9.8335 6.88672C10.6592 6.88672 11.4511 7.21472 12.0349 7.79858C12.6188 8.38243 12.9468 9.17431 12.9468 10Z" fill="#FFFDFF" stroke="black" stroke-width="0.9375"/>
<path fill-rule="evenodd" clip-rule="evenodd" d="M9.28662 7.61328L9.0835 7.24219C9.16162 7.16406 9.29053 7.10156 9.50146 7.10156L9.47803 7.51172L9.28662 7.61328Z" fill="#DE3108" stroke="black" stroke-width="0.9375"/>
<path fill-rule="evenodd" clip-rule="evenodd" d="M9.48193 7.51173L9.50928 7.10158C9.50928 7.10158 9.92725 7.07814 10.1538 7.35158L9.93115 7.67189L9.48193 7.51173Z" fill="#FFE700" stroke="black" stroke-width="0.9375"/>
<path fill-rule="evenodd" clip-rule="evenodd" d="M9.93506 7.66797L10.1421 7.34766C10.2788 7.49219 10.3374 7.59375 10.3569 7.75C10.3608 7.75391 10.0327 7.83203 10.0327 7.82812L9.93506 7.66797Z" fill="#DE3108" stroke="black" stroke-width="0.9375"/>
<path fill-rule="evenodd" clip-rule="evenodd" d="M9.38841 12.9336C9.38841 12.9336 9.77513 12.4922 10.5251 12.586C10.4118 12.4024 10.0447 12.4258 10.0447 12.4258C10.0447 12.4258 9.93529 11.5664 10.0212 11.5196C10.1072 11.4727 10.49 11.5235 10.49 11.5235C10.5368 11.5235 10.6228 11.3907 10.5525 11.3047C10.4822 11.2188 10.2868 10.8946 10.3689 10.8282C10.4509 10.7618 10.8923 10.8672 10.8923 10.8672L9.64232 9.26566C9.64232 9.26566 9.51341 8.66019 9.77122 8.36722C10.0798 8.11332 10.0447 7.83597 10.0368 7.83988C9.99388 7.55863 9.5681 7.35941 9.27904 7.61722C9.11107 7.82035 9.22435 7.9766 9.22435 7.9766C9.22435 7.9766 8.77513 8.09769 8.7595 8.17582C8.74388 8.25394 9.26341 8.1641 9.26341 8.1641L9.21263 8.51957C9.21263 8.51957 8.19701 9.44144 8.97826 10.2383L9.00169 10.2071C9.00169 10.2071 9.27513 10.543 9.56029 10.6172C9.83372 10.8907 9.80638 10.8516 9.80638 10.8516C9.80638 10.8516 9.85716 11.2852 9.80638 11.3711C9.73997 11.3516 9.05247 11.3243 8.95091 11.3633C8.85716 11.3946 8.5056 11.375 8.59154 11.9532L8.72044 11.6602C8.72044 11.6602 8.70872 11.8672 8.79466 11.9414C8.77904 11.7227 8.87669 11.5743 8.87669 11.5743C8.87669 11.5743 8.89232 11.8164 8.94701 11.8477C9.00169 11.8868 9.00169 11.4571 9.29857 11.4961C9.58763 11.5313 9.80247 11.5196 9.80247 11.5196C9.80247 11.5196 9.90013 12.3555 9.86888 12.4336C9.65794 12.3828 9.15013 12.4532 9.11888 12.5821C9.41575 12.5625 9.55247 12.5977 9.55247 12.5977C9.55247 12.5977 9.31419 12.8125 9.38841 12.9336Z" fill="black" stroke="black" stroke-width="0.84375" stroke-linecap="round" stroke-linejoin="round"/>
<path fill-rule="evenodd" clip-rule="evenodd" d="M9.50536 8.39063C9.50536 8.39063 8.76708 9.20313 9.0874 9.82422C9.10302 9.73828 9.09521 9.68359 9.10693 9.6875C9.0874 9.67578 9.19677 9.76172 9.18896 9.74609C9.18896 9.69922 9.15771 9.60156 9.15771 9.60156L9.25536 9.62891L9.19677 9.51953L9.3413 9.53516C9.3413 9.53516 9.29052 9.40234 9.30615 9.40234L9.42333 9.41016C9.2124 9.03516 9.41161 8.72266 9.50536 8.38672V8.39063Z" fill="#9CA69C" stroke="#9CA69C" stroke-width="0.84375" stroke-linecap="round" stroke-linejoin="round"/>
<path fill-rule="evenodd" clip-rule="evenodd" d="M9.7634 7.69141C9.7634 7.69141 9.80247 7.97266 9.64622 8.05078C9.62669 8.07031 9.52903 8.10156 9.54465 8.16016C9.56028 8.23828 9.60325 8.22266 9.66184 8.20703C9.822 8.17969 10.0095 7.83984 9.7634 7.69141Z" fill="#9CA69C" stroke="#9CA69C" stroke-width="0.9375"/>
<path fill-rule="evenodd" clip-rule="evenodd" d="M9.48975 7.92969C9.48975 7.94523 9.48357 7.96013 9.47258 7.97112C9.4616 7.98211 9.44669 7.98828 9.43115 7.98828C9.41561 7.98828 9.40071 7.98211 9.38972 7.97112C9.37873 7.96013 9.37256 7.94523 9.37256 7.92969C9.37256 7.91415 9.37873 7.89924 9.38972 7.88826C9.40071 7.87727 9.41561 7.87109 9.43115 7.87109C9.44669 7.87109 9.4616 7.87727 9.47258 7.88826C9.48357 7.89924 9.48975 7.91415 9.48975 7.92969Z" fill="white"/>
<path fill-rule="evenodd" clip-rule="evenodd" d="M9.25149 8.16406C9.21243 8.19922 9.00931 8.41016 9.21243 8.48828C9.41946 8.43359 9.36087 8.39453 9.40774 8.34766C9.40774 8.25 9.30618 8.22656 9.25149 8.16797V8.16406Z" fill="#DE3108" stroke="black" stroke-width="0.9375"/>
<path fill-rule="evenodd" clip-rule="evenodd" d="M9.70075 10.1758C9.68903 10.2227 9.64215 10.3945 9.70465 10.5273C9.88434 10.4492 9.96637 10.4727 10.025 10.5117C9.88043 10.3945 9.82184 10.3438 9.70075 10.1758Z" fill="#9CA69C" stroke="#9CA69C" stroke-width="0.84375" stroke-linecap="round" stroke-linejoin="round"/>
<path fill-rule="evenodd" clip-rule="evenodd" d="M10.0054 10.9805L10.0132 11.3789C10.0132 11.3789 10.1538 11.4023 10.2163 11.3789C10.2788 11.3555 10.2163 11.1055 10.0054 10.9805Z" fill="white" stroke="white" stroke-width="0.84375" stroke-linecap="round" stroke-linejoin="round"/>
<path fill-rule="evenodd" clip-rule="evenodd" d="M11.0055 11.0312C11.0055 11.0312 10.7516 10.414 10.0993 10.2578C9.44693 10.1015 9.53287 9.40622 9.58365 9.36325C9.6149 9.30465 9.63443 9.2109 9.82193 9.30075C10.0094 9.39059 10.8766 9.82419 11.0016 9.84762C11.1266 9.87106 11.0172 11.0468 11.0094 11.0312H11.0055Z" fill="#9CA69C" stroke="black" stroke-width="0.9375"/>
<path fill-rule="evenodd" clip-rule="evenodd" d="M10.3883 10.2539C10.3766 10.2617 11.2594 10.7773 10.9938 11.2188C11.2438 11.0508 11.1656 10.7617 11.1656 10.7617C11.1656 10.7617 11.3688 11.2969 10.8688 11.5586C10.9235 11.6055 10.9586 11.5977 10.9586 11.5977L10.8727 11.6797C10.8727 11.6797 10.8336 11.7461 11.1695 11.582C11.0797 11.6562 11.0719 11.7109 11.0719 11.7109C11.0719 11.7109 11.0953 11.7813 11.3141 11.5898C11.1383 11.7813 11.0992 11.8789 11.0992 11.875C11.5797 11.8359 12.6227 10.2734 10.7711 9.81641L10.8531 9.90234L10.3883 10.2539Z" fill="#DE3108" stroke="black" stroke-width="0.84375" stroke-linejoin="round"/>
<path fill-rule="evenodd" clip-rule="evenodd" d="M10.4272 10.1015C10.5443 10.1875 10.5873 10.2187 10.6029 10.2578C10.4936 10.2344 10.3959 10.2422 10.3959 10.2422C10.3959 10.2422 10.1576 10.0156 10.1147 9.99607C10.0834 9.99607 9.89591 9.87889 9.89591 9.87889C9.80606 9.83201 9.72012 9.51561 10.06 9.60545C10.1903 9.67343 10.3247 9.73344 10.4623 9.78514L10.8803 9.91795L11.1225 10.1875C11.1225 10.1875 10.6928 9.97654 10.6381 9.97264C10.7553 10.0664 10.8217 10.1992 10.8217 10.1992C10.685 10.1601 10.5678 10.1211 10.4272 10.1015Z" fill="white" stroke="black" stroke-width="0.84375" stroke-linecap="round" stroke-linejoin="round"/>
<path d="M8.75537 8.19927C8.75537 8.19927 9.16553 8.0977 9.21631 8.11333" stroke="white" stroke-width="0.84375" stroke-linecap="round"/>
<path fill-rule="evenodd" clip-rule="evenodd" d="M-5.1665 16.668H24.8335V20H-5.1665V16.668Z" fill="#DE3908"/>
</g>
</g>
</g>
<defs>
<clipPath id="clip0_4430_2572">
<rect width="20" height="20" fill="white"/>
</clipPath>
<clipPath id="clip1_4430_2572">
<rect width="26.6667" height="20" fill="white" transform="translate(-3.5)"/>
</clipPath>
</defs>
</svg>
