<svg width="20" height="20" viewBox="0 0 20 20" fill="none" xmlns="http://www.w3.org/2000/svg">
<g clip-path="url(#clip0_4430_2575)">
<g clip-path="url(#clip1_4430_2575)">
<mask id="mask0_4430_2575" style="mask-type:luminance" maskUnits="userSpaceOnUse" x="-3" y="0" width="28" height="20">
<path d="M-3 0H24.0007V19.9996H-3V0Z" fill="white"/>
</mask>
<g mask="url(#mask0_4430_2575)">
<path fill-rule="evenodd" clip-rule="evenodd" d="M-3 15.9293V4.078L5.93433 10.0037L-3 15.9293Z" fill="#000001"/>
<path fill-rule="evenodd" clip-rule="evenodd" d="M3.09473 20.0035L13.1246 13.3396H27.3705V19.9996H3.09473V20.0035Z" fill="#000C8A"/>
<path fill-rule="evenodd" clip-rule="evenodd" d="M2.4541 -6.67875e-07H27.3706V6.67173H13.1207C13.1207 6.67173 2.58462 -0.0664055 2.4541 -6.67875e-07Z" fill="#E1392D"/>
<path fill-rule="evenodd" clip-rule="evenodd" d="M-2.99995 2.5V4.07809L5.93438 9.99984L-3.00391 15.9294V17.5036L8.24805 10.0037L-2.99995 2.5Z" fill="#FFB915"/>
<path fill-rule="evenodd" clip-rule="evenodd" d="M-3 2.49995V0H0.757244L12.6697 7.96858H27.3744V12.0388H12.6697L0.753289 19.9996H-3V17.5035L8.248 10.0037L-2.99605 2.49995H-3Z" fill="#007847"/>
<path fill-rule="evenodd" clip-rule="evenodd" d="M0.753418 0H3.09477L13.1246 6.66783H27.3705V7.96858H12.6698L0.753418 0ZM0.753418 20.0035H3.09477L13.1246 13.3396H27.3705V12.0427H12.6698L0.753418 19.9996V20.0035Z" fill="white"/>
</g>
</g>
</g>
<defs>
<clipPath id="clip0_4430_2575">
<rect width="20" height="20" fill="white"/>
</clipPath>
<clipPath id="clip1_4430_2575">
<rect width="27" height="20" fill="white" transform="translate(-3)"/>
</clipPath>
</defs>
</svg>
